<svg width="20" height="20" viewBox="0 0 20 20" fill="none" xmlns="http://www.w3.org/2000/svg">
    <path
        d="M9.05577 14.725L7.28702 16.4875C6.93423 16.8387 6.45669 17.0359 5.95889 17.0359C5.46109 17.0359 4.98356 16.8387 4.63077 16.4875L2.86202 14.7188C2.13702 13.9937 2.13702 12.8 2.86202 12.0687L4.63077 10.3L9.05577 14.725ZM17.4495 9.85625L9.49327 1.90625C9.42589 1.83545 9.34239 1.782 9.24988 1.75044C9.15738 1.71888 9.05862 1.71015 8.96202 1.725C8.76202 1.75625 8.59327 1.875 8.49952 2.05L4.91827 8.81875L10.5495 14.45L17.2995 10.85C17.4745 10.7625 17.5933 10.5875 17.6245 10.3937C17.6558 10.1937 17.587 10 17.4495 9.85625ZM3.74952 17.3688L1.98077 15.6C1.73077 15.35 1.53702 15.075 1.39327 14.775C1.08077 15.65 1.28077 16.6688 1.98077 17.3688C2.31283 17.7047 2.7338 17.939 3.19432 18.0442C3.65483 18.1494 4.13579 18.121 4.58077 17.9625C4.27033 17.816 3.98876 17.6149 3.74952 17.3688ZM11.0433 16.7062L9.94327 15.6062L8.16827 17.375C8.01827 17.525 7.85577 17.6562 7.68077 17.7687L8.83077 18.9188C9.12452 19.2125 9.51827 19.375 9.93702 19.375C10.3558 19.375 10.7495 19.2125 11.0433 18.9188C11.6495 18.3062 11.6495 17.3188 11.0433 16.7062ZM13.1245 2.5V1.25C13.1245 1.08424 13.0587 0.925268 12.9415 0.808058C12.8242 0.690848 12.6653 0.625 12.4995 0.625C12.3338 0.625 12.1748 0.690848 12.0576 0.808058C11.9404 0.925268 11.8745 1.08424 11.8745 1.25V2.5C11.8745 2.66576 11.9404 2.82473 12.0576 2.94194C12.1748 3.05915 12.3338 3.125 12.4995 3.125C12.6653 3.125 12.8242 3.05915 12.9415 2.94194C13.0587 2.82473 13.1245 2.66576 13.1245 2.5ZM18.7495 6.875C18.7495 6.70924 18.6837 6.55027 18.5665 6.43306C18.4492 6.31585 18.2903 6.25 18.1245 6.25H16.8745C16.7088 6.25 16.5498 6.31585 16.4326 6.43306C16.3154 6.55027 16.2495 6.70924 16.2495 6.875C16.2495 7.04076 16.3154 7.19973 16.4326 7.31694C16.5498 7.43415 16.7088 7.5 16.8745 7.5H18.1245C18.2903 7.5 18.4492 7.43415 18.5665 7.31694C18.6837 7.19973 18.7495 7.04076 18.7495 6.875ZM15.4414 4.81687L16.6914 3.56687C16.7511 3.50922 16.7987 3.44026 16.8315 3.364C16.8642 3.28775 16.8815 3.20574 16.8822 3.12275C16.8829 3.03976 16.8671 2.95746 16.8357 2.88065C16.8042 2.80384 16.7578 2.73406 16.6991 2.67538C16.6405 2.6167 16.5707 2.57029 16.4939 2.53886C16.4171 2.50744 16.3348 2.49162 16.2518 2.49234C16.1688 2.49306 16.0868 2.51031 16.0105 2.54306C15.9343 2.57582 15.8653 2.62343 15.8076 2.68313L14.5576 3.93313C14.4979 3.99078 14.4503 4.05974 14.4176 4.136C14.3848 4.21225 14.3676 4.29426 14.3669 4.37725C14.3661 4.46024 14.382 4.54254 14.4134 4.61935C14.4448 4.69616 14.4912 4.76594 14.5499 4.82462C14.6086 4.88331 14.6784 4.92971 14.7552 4.96114C14.832 4.99256 14.9143 5.00838 14.9973 5.00766C15.0803 5.00694 15.1623 4.98969 15.2385 4.95694C15.3148 4.92418 15.3837 4.87657 15.4414 4.81687Z"
        fill="#4E556F" />
</svg>
    