<svg width="21" height="20" viewBox="0 0 21 20" fill="none" xmlns="http://www.w3.org/2000/svg">
<g id="Frame" clip-path="url(#clip0_1396_37238)">
<g id="Group">
<g id="layer1">
<g id="Group_2">
<path id="Vector" d="M19.6 11.1568C19.0508 16.2172 15.5876 19.8868 11.8127 19.8868C11.6102 19.8868 11.4076 19.879 11.2128 19.8556C10.9986 19.8362 10.7921 19.8011 10.5856 19.7583C7.36397 19.0921 4.66043 15.6835 4.31761 11.1568C3.93584 6.07301 6.59654 1.33986 10.5856 0.299739C11.0882 0.167289 11.6102 0.097168 12.14 0.097168C16.7017 0.097168 19.9351 4.9355 19.6585 10.4049C19.6585 10.4049 19.6585 10.4049 19.6585 10.4166C19.6507 10.662 19.6273 10.9113 19.6 11.1568Z" fill="url(#paint0_linear_1396_37238)"/>
<path id="Vector_2" d="M9.35963 19.8868C9.35963 19.8868 11.8645 20.2335 13.2591 19.7115L13.9525 0.443834C13.9525 0.443834 13.1033 -0.257374 8.74023 0.101021L9.35963 19.8868Z" fill="url(#paint1_linear_1396_37238)"/>
<path id="Vector_3" d="M16.855 11.1568C16.5122 15.6874 13.8086 19.0921 10.5869 19.7583C10.1896 19.844 9.77666 19.8868 9.35983 19.8868C6.81601 19.8868 4.46307 18.2584 3.0178 15.7068C2.99053 15.6601 2.96326 15.6172 2.94378 15.5822C2.89314 15.4926 2.86587 15.438 2.86587 15.438C2.21141 14.2031 1.75173 12.7579 1.57643 11.1568C0.949236 5.39518 4.24881 0.097168 9.02871 0.097168C9.55851 0.097168 10.0805 0.167289 10.5869 0.299739C14.576 1.33986 17.2406 6.07301 16.855 11.1568Z" fill="url(#paint2_linear_1396_37238)"/>
<path id="Vector_4" d="M13.5673 11.1568C13.4504 14.3668 11.4598 16.8093 9.06011 16.9612C8.9783 16.969 8.8926 16.9729 8.8069 16.9729C6.29034 16.9729 4.05037 14.4759 3.77378 11.1568C3.47772 7.55337 5.58913 4.39404 8.51473 4.39404C8.61212 4.39404 8.7134 4.39404 8.81079 4.40963C11.5961 4.61609 13.692 7.68193 13.5673 11.1607V11.1568Z" fill="url(#paint3_linear_1396_37238)"/>
<path id="Vector_5" d="M13.5668 11.1568C13.45 14.3668 11.4593 16.8093 9.05963 16.9613C6.65604 16.8093 4.56411 14.3668 4.31868 11.1568C4.05378 7.67806 6.03275 4.61223 8.81031 4.40576C11.5957 4.61223 13.6915 7.67806 13.5668 11.1568Z" fill="url(#paint4_linear_1396_37238)"/>
<g id="Vector_6" style="mix-blend-mode:multiply" opacity="0.5">
<path d="M4.14453 8.04412C4.14453 8.04412 4.45228 8.51939 4.63148 8.28175C4.81068 8.04023 5.65602 5.47692 8.44917 5.16917C11.2657 4.85752 13.1473 8.28565 13.1473 8.28565C13.1473 8.28565 11.6552 4.22254 8.41411 4.39395C5.18466 4.56146 4.14453 8.04412 4.14453 8.04412Z" fill="#D640C6"/>
</g>
<g id="Vector_7" style="mix-blend-mode:soft-light">
<path d="M2.12563 6.87937C2.09057 8.23894 3.53583 7.96235 3.73061 7.90392C3.92539 7.84159 4.9811 5.3484 7.24055 4.29659C9.55453 3.21751 11.6465 5.18868 12.3866 6.17037C13.1112 7.12869 15.1759 5.45748 15.3356 4.65109C15.4953 3.82912 11.7945 -0.615757 7.46649 0.552923C3.24756 1.69433 2.12563 6.87937 2.12563 6.87937Z" fill="white"/>
</g>
<g id="Vector_8" style="mix-blend-mode:multiply" opacity="0.2">
<path d="M2.0678 7.64661C1.4562 7.67778 1.58085 10.5839 1.8068 11.6825C2.02495 12.7498 3.22869 12.3135 3.45074 11.9435C3.67279 11.5695 3.78187 8.49196 3.81693 8.25822C3.85588 8.02448 3.43516 8.0946 2.85472 8.04396C2.27038 7.99332 2.21584 7.63882 2.0678 7.64661Z" fill="#D81BDC"/>
</g>
<g id="Vector_9" style="mix-blend-mode:multiply" opacity="0.2">
<path d="M13.1941 6.72355C12.7889 6.91054 13.459 9.14272 13.8485 10.549C14.2264 11.9086 15.7145 10.1127 16.3028 10.2023C16.891 10.288 16.1937 5.76913 15.7885 5.38347C15.3795 4.99391 14.5575 6.37685 13.1941 6.72745V6.72355Z" fill="#D81BDC"/>
</g>
<g id="Vector_10" style="mix-blend-mode:soft-light">
<path d="M6.49265 18.9128C5.18762 17.2455 8.16386 17.7948 10.0493 16.9611C11.9777 16.108 12.7724 14.7835 13.2788 14.3394C13.793 13.8914 15.2889 15.3717 15.1292 16.0339C14.9695 16.6845 11.9192 21.3709 6.48875 18.9128H6.49265Z" fill="#FF724F"/>
</g>
<g id="Vector_11" style="mix-blend-mode:multiply" opacity="0.3">
<path d="M12.3524 0.552878C12.0602 0.552878 14.9936 3.04606 15.7299 4.32771C16.4506 5.5743 16.8518 7.06632 17.144 7.36238C17.4362 7.65455 19.2905 7.23772 19.2905 7.23772C19.2905 7.23772 18.9087 4.44848 17.1518 2.51626C15.3131 0.498339 12.3524 0.552878 12.3524 0.552878Z" fill="#B8038B"/>
</g>
<g id="Vector_12" style="mix-blend-mode:multiply" opacity="0.3">
<path d="M13.297 18.6791C12.9191 19.0531 14.6137 18.983 14.8045 18.9129C14.9993 18.8427 17.2977 17.5845 17.9717 16.034C18.6729 14.4173 16.8536 14.3706 16.5147 14.3667C16.1719 14.3667 15.6226 15.9327 14.4773 17.3079C13.371 18.6324 13.297 18.6791 13.297 18.6791Z" fill="#B8038B"/>
</g>
<g id="Vector_13" style="mix-blend-mode:soft-light">
<path d="M16.9332 7.64708C16.6371 7.65487 17.0033 9.82082 17.0345 11.5154C17.0657 13.1438 19.3757 12.5516 19.4147 12.3569C19.4537 12.1621 19.6251 10.1247 19.5627 9.17025C19.4965 8.19636 19.7458 7.44061 18.9862 7.43282C18.2265 7.42503 16.9371 7.64708 16.9371 7.64708H16.9332Z" fill="white"/>
</g>
<path id="Vector_14" d="M5.75589 15.6407C5.40139 14.5538 5.90782 15.7926 7.5167 16.5406C9.09053 17.273 11.0617 16.5406 11.8876 15.5472C11.8876 15.5472 10.8241 16.9068 8.98534 16.973C6.8973 17.0509 5.75589 15.6407 5.75589 15.6407Z" fill="#FFD8C3"/>
<g id="Vector_15" style="mix-blend-mode:soft-light">
<path d="M8.42004 0.365838C6.84622 0.498288 6.81895 4.00822 8.06165 4.03549C9.30434 4.06276 10.5626 4.16015 12.2689 6.02225C13.9011 7.81033 15.2568 4.74838 15.1984 4.14457C15.1399 3.52906 12.7636 -0.241876 8.42004 0.365838Z" fill="white"/>
</g>
<g id="Vector_16" style="mix-blend-mode:soft-light">
<path d="M4.42048 17.6157C2.7181 15.6991 4.82952 15.3485 5.20349 15.4498C5.57747 15.5511 6.54358 16.8522 8.52644 17.047C10.5015 17.2418 9.25102 19.6726 8.50696 19.7272C7.7629 19.7856 5.56579 18.9013 4.42048 17.6119V17.6157Z" fill="white"/>
</g>
<path id="Vector_17" d="M11.0655 0.552734C10.3331 0.587795 11.3616 3.08098 12.2654 3.96138C13.1497 4.82621 14.591 3.5913 14.5404 3.1511C14.4898 2.707 12.5147 1.02021 11.0655 0.552734Z" fill="white"/>
<path id="Vector_18" d="M5.13285 17.5493C4.81341 16.8675 6.46904 17.8843 6.27426 18.2427C6.08338 18.5972 5.4445 18.2193 5.13285 17.5493Z" fill="white"/>
<g id="Vector_19" style="mix-blend-mode:soft-light">
<path d="M14.1198 11.5148C13.7341 11.7564 13.738 13.1977 12.1954 15.5039C10.7384 17.6816 12.3161 18.4918 12.655 18.5152C12.994 18.5386 15.2222 16.435 16.0949 13.9457C17.0259 11.2889 16.3013 10.837 16.0559 10.7201C15.8066 10.6072 14.4392 11.3162 14.1198 11.5148Z" fill="white"/>
</g>
<g id="Vector_20" style="mix-blend-mode:soft-light">
<path d="M12.1372 0.552937C11.0698 0.552937 13.676 1.83459 14.5837 2.29037C15.4835 2.73837 16.5159 1.93587 16.5159 1.93587C16.5159 1.93587 15.3316 0.229603 12.1372 0.556833V0.552937Z" fill="white"/>
</g>
<g id="Vector_21" style="mix-blend-mode:soft-light">
<path d="M3.75884 10.8727C3.68092 10.265 4.04711 9.04563 4.1484 8.88591C4.24968 8.72619 4.61976 11.7881 4.50289 12.3608C4.38603 12.9218 3.80558 11.235 3.75884 10.8766V10.8727Z" fill="white"/>
</g>
<path id="Vector_22" d="M14.5527 3.03052C14.5527 3.03052 17.7549 7.0274 16.4265 13.424C16.4265 13.424 18.5886 7.19102 14.5527 3.03052Z" fill="#FFBA95"/>
<g id="Vector_23" style="mix-blend-mode:multiply" opacity="0.5">
<path d="M8.50977 19.8247C8.50977 19.8247 9.66286 20.0623 10.8666 19.9571C12.0703 19.8519 14.0026 17.8457 14.0026 17.8457C14.0026 17.8457 12.1093 20.1831 8.50977 19.8208V19.8247Z" fill="#D640C6"/>
</g>
<g id="Vector_24" style="mix-blend-mode:multiply" opacity="0.8">
<path d="M9.35961 19.8868C6.81579 19.8868 4.46284 18.2584 3.01758 15.7068C3.58244 16.6534 5.32767 19.1388 9.35961 19.8868Z" fill="#D64A6D"/>
</g>
<g id="Vector_25" style="mix-blend-mode:multiply" opacity="0.5">
<path d="M2.93945 15.582C2.96283 15.6249 2.9901 15.6677 3.01347 15.7067C2.9862 15.6599 2.95893 15.6171 2.93945 15.582Z" fill="#D640C6"/>
</g>
<g id="Vector_26" style="mix-blend-mode:multiply" opacity="0.5">
<path d="M19.6021 11.1567C19.0528 16.217 15.5896 19.8867 11.8148 19.8867C11.6122 19.8867 11.4096 19.8789 11.2148 19.8555C14.4482 19.5166 16.4778 17.6818 17.5919 16.4352C18.9087 14.9588 19.6176 10.6892 19.6605 10.4165C19.6527 10.6619 19.6293 10.9112 19.6021 11.1567Z" fill="#D64A6D"/>
</g>
<g id="Vector_27" style="mix-blend-mode:multiply" opacity="0.8">
<path d="M1.83008 6.91463C1.83008 6.91463 2.45727 4.24615 4.44792 2.44638C6.52038 0.572598 10.2991 0.0973349 10.2991 0.0973349L12.0326 0.0350053C12.0326 0.0350053 9.37196 -0.00784625 8.63179 0.0973349C7.89942 0.202516 3.4 0.595972 1.83008 6.91463Z" fill="#D64A6D"/>
</g>
<g id="Group_3">
<path id="Vector_28" d="M6.75102 14.2149C6.70038 13.8253 6.71986 13.4864 6.80556 13.202C7.05878 13.0813 7.22629 13.0189 7.3042 13.0189C7.45223 13.0189 7.68597 13.0696 8.0093 13.1825C8.05215 13.2916 8.09111 13.4513 8.13006 13.6578C8.37549 13.8487 8.63649 13.9695 8.90918 14.0201C8.76505 13.0813 8.65987 12.3645 8.59754 11.8814C8.28589 11.8347 8.02488 11.7762 7.80283 11.7061C7.58468 11.636 7.36263 11.523 7.13279 11.3711C6.90685 11.2192 6.71986 11.0049 6.57572 10.7244C6.43158 10.4478 6.33419 10.105 6.28355 9.69598C6.17447 8.82337 6.30303 8.03256 6.67701 7.31577C7.06657 6.57561 7.58468 6.11982 8.23135 5.97569L8.13396 4.66676C8.16902 4.57717 8.75726 4.61223 8.75726 4.61223L8.97541 5.94452C9.25979 5.96789 9.58312 6.06918 9.94152 6.24838C9.96489 5.93673 10.0272 5.70689 10.1324 5.56275C10.2726 5.4342 10.4557 5.34849 10.6856 5.30954C11.0518 5.24721 11.1842 5.31343 11.3439 5.48094C11.4024 5.66404 11.5894 6.11593 11.6322 6.85999C11.6634 7.35862 11.6478 7.70923 11.5933 7.91959C11.5387 8.12995 11.4179 8.27019 11.2349 8.34031C11.1063 8.40654 10.9816 8.4416 10.857 8.45718C10.5843 8.48835 10.3545 8.4377 10.1714 8.30915C10.1168 8.16501 10.0818 8.00529 10.0662 7.82609C9.85581 7.7326 9.58702 7.68585 9.26368 7.68585C9.39613 8.5312 9.50132 9.36875 9.57923 10.1946C10.4012 10.2531 11.0206 10.4284 11.4218 10.7205C11.827 11.0166 12.049 11.5386 12.0919 12.271C12.1425 13.1475 11.94 13.8993 11.4959 14.5226C11.0673 15.1264 10.5025 15.4537 9.80907 15.516L9.81686 16.6808C9.74284 16.7314 9.27147 16.8288 9.04943 16.8366L9.1624 15.5199C8.8079 15.4537 8.49625 15.3095 8.22356 15.0797C8.24304 15.2745 8.22745 15.4147 8.17681 15.5043C8.07553 15.5783 7.90022 15.6095 7.65091 15.6017C7.38601 15.5939 7.20291 15.5316 7.09384 15.4147C6.92632 15.1109 6.81335 14.7096 6.74713 14.2071L6.75102 14.2149ZM7.60416 9.29863C7.66259 9.8557 7.93139 10.1596 8.41834 10.2219C8.37549 9.70377 8.32874 8.92855 8.2781 7.87674C7.7483 8.10658 7.52625 8.58184 7.60416 9.29863ZM9.7779 13.9266C10.0077 13.8058 10.1947 13.6344 10.3389 13.4046C10.4869 13.1748 10.5492 12.9332 10.5298 12.6839C10.4947 12.2515 10.2181 12.0022 9.69609 11.936C9.73505 12.606 9.75842 13.2721 9.7779 13.9266Z" fill="url(#paint5_linear_1396_37238)"/>
<path id="Vector_29" d="M11.5673 12.306C11.5244 11.5697 11.2946 11.0477 10.8895 10.7555C10.8115 10.6971 10.7219 10.6464 10.6284 10.5997C10.235 10.3971 9.70519 10.2763 9.04683 10.2257C9.04683 10.214 9.04683 10.1984 9.04294 10.1906C9.03125 10.0933 9.02346 10.0037 9.01177 9.90626C8.92996 9.18168 8.83257 8.45321 8.71181 7.72083C9.03904 7.72083 9.30394 7.76758 9.5143 7.86107C9.52989 8.04027 9.56884 8.19999 9.62728 8.34413C9.81037 8.47268 10.0402 8.52333 10.3129 8.49216C10.4337 8.48047 10.5622 8.44152 10.6908 8.37919C10.87 8.30517 10.9946 8.16883 11.0453 7.95457C11.0959 7.74421 11.1115 7.3936 11.0764 6.89886C11.0297 6.15091 10.9752 5.68344 10.9089 5.50034C10.7531 5.33673 10.4882 5.28219 10.122 5.34452C9.89218 5.38737 9.70908 5.46918 9.56884 5.59773C9.46756 5.74187 9.40523 5.96781 9.38185 6.28336C9.02735 6.10026 8.70012 6.00287 8.41575 5.97561L8.1898 4.64331C7.87426 4.76018 7.69506 4.86146 7.66389 4.94717L7.67169 6.00677C7.02502 6.1548 6.5108 6.60669 6.12513 7.35075C5.75895 8.06754 5.63429 8.85445 5.74726 9.72707C5.74726 9.74265 5.75116 9.75823 5.75505 9.76992C5.80959 10.1556 5.90698 10.4828 6.04722 10.7516C6.19136 11.0282 6.37835 11.2463 6.60429 11.3944C6.83413 11.5502 7.05618 11.6593 7.27433 11.7333C7.49638 11.8034 7.76128 11.8657 8.06904 11.9086C8.1002 12.1345 8.13916 12.4111 8.1898 12.7423C8.24434 13.1123 8.31056 13.5486 8.39237 14.0434C8.11968 13.9966 7.86257 13.8759 7.61325 13.685C7.5743 13.4746 7.53534 13.3149 7.48859 13.2058C7.16526 13.0968 6.93542 13.0422 6.78738 13.0461C6.70558 13.0461 6.54196 13.1123 6.28875 13.2292C6.20694 13.5136 6.18746 13.8525 6.242 14.2421C6.30823 14.7446 6.42509 15.1458 6.5965 15.4458C6.70168 15.5627 6.88867 15.6211 7.15357 15.6328C7.39899 15.6406 7.5743 15.6055 7.67558 15.5354C7.72622 15.4458 7.74181 15.3017 7.72233 15.1069C7.99502 15.3367 8.30667 15.4848 8.66117 15.551L8.87932 16.8015C9.09747 16.7937 9.2494 16.7625 9.31952 16.7119L9.30394 15.5471C9.99736 15.4848 10.5583 15.1614 10.9829 14.5576C11.4231 13.9304 11.6218 13.1786 11.5634 12.3021L11.5673 12.306ZM7.64052 10.1945C7.3055 10.0777 7.11462 9.7894 7.06008 9.32971C6.97827 8.61682 7.19642 8.13766 7.72622 7.90782C7.77687 8.9012 7.82361 9.64915 7.87036 10.1634V10.1945C7.87036 10.1945 7.87815 10.2296 7.87815 10.2491C7.79245 10.2374 7.71454 10.2179 7.63663 10.1906L7.64052 10.1945ZM9.82206 13.4396C9.67792 13.6655 9.49093 13.8408 9.26499 13.9577C9.2494 13.4707 9.22603 12.9799 9.19876 12.4813C9.18707 12.3098 9.17928 12.1384 9.17149 11.967C9.39354 11.9943 9.57663 12.0566 9.70908 12.1579C9.88828 12.2787 9.98567 12.4696 10.0051 12.715C10.0285 12.9643 9.96619 13.2058 9.82206 13.4357V13.4396Z" fill="url(#paint6_linear_1396_37238)"/>
<g id="Vector_30" style="mix-blend-mode:soft-light">
<path d="M11.0453 7.95457C10.9946 8.16493 10.87 8.30517 10.6908 8.37919C10.5622 8.44541 10.4337 8.48437 10.3129 8.49216C10.0402 8.52333 9.81038 8.47268 9.62729 8.34413C9.57275 8.20389 9.5299 8.04027 9.51431 7.86107C9.30395 7.76758 9.03905 7.72083 8.71182 7.72083C8.83258 8.45321 8.92997 9.18558 9.01178 9.90626C8.63001 10.0231 8.24824 10.1127 7.87816 10.1595C7.83142 9.64526 7.78467 8.9012 7.73403 7.90393C7.20033 8.12987 6.98607 8.60903 7.06788 9.32582C7.11852 9.7855 7.3133 10.0738 7.64832 10.1906C6.90816 10.253 6.23032 10.1439 5.75896 9.76992C5.75896 9.75433 5.75506 9.73875 5.75117 9.72707C5.63819 8.85445 5.76285 8.06754 6.12904 7.35075C6.5147 6.60669 7.02892 6.1587 7.67559 6.00677L7.6678 4.94717C7.69897 4.86146 7.87816 4.76018 8.19371 4.64331L8.41965 5.97561C8.70403 5.99898 9.03126 6.10026 9.38576 6.28336C9.40913 5.96781 9.46757 5.74187 9.57275 5.59773C9.71299 5.46528 9.89608 5.38347 10.1259 5.34452C10.4921 5.28219 10.757 5.33673 10.9128 5.50034C10.9791 5.68344 11.0297 6.15091 11.0803 6.89886C11.1154 7.3936 11.0998 7.7481 11.0492 7.95457H11.0453Z" fill="white"/>
</g>
<g id="Vector_31" style="mix-blend-mode:multiply" opacity="0.2">
<path d="M10.302 11.5463C10.1345 11.7761 9.93192 11.9826 9.71377 12.1579C9.58132 12.0566 9.39822 11.9943 9.17617 11.967C9.18786 12.1384 9.19565 12.3098 9.20344 12.4812C8.884 12.641 8.5373 12.7345 8.19059 12.7422C8.13994 12.415 8.10099 12.1345 8.06982 11.9086C7.76207 11.8618 7.49717 11.8034 7.27512 11.7333C7.05697 11.6632 6.83492 11.5541 6.60508 11.3944C6.37913 11.2424 6.19215 11.0282 6.04801 10.7516C5.90777 10.4828 5.81038 10.1556 5.75584 9.7699C5.75584 9.75432 5.75194 9.73874 5.74805 9.72705C5.74805 9.72705 5.82596 10.1439 7.64131 10.1906C7.71922 10.1906 7.79713 10.1906 7.87504 10.1906C8.2685 10.1906 8.67364 10.1906 9.03983 10.1906C9.04372 10.2023 9.04372 10.2179 9.04372 10.2257C9.70208 10.2724 10.2319 10.3932 10.6253 10.5997C10.711 10.8022 10.6214 11.1061 10.2981 11.5463H10.302Z" fill="#D81BDC"/>
</g>
<path id="Vector_32" d="M7.61378 13.6851C7.59041 13.5604 8.3929 14.0435 8.3929 14.0435C8.3929 14.0435 7.69559 14.0357 7.61378 13.6851Z" fill="white"/>
<path id="Vector_33" d="M9.95703 5.38377C9.65707 5.41883 10.2921 6.8563 10.6582 7.14458C11.0205 7.42896 11.0517 5.77722 10.9037 5.50064C10.7556 5.22405 9.95314 5.38377 9.95314 5.38377H9.95703Z" fill="white"/>
<g id="Vector_34" style="mix-blend-mode:soft-light">
<path d="M7.97467 4.72903C7.65912 4.94719 8.29411 5.48088 8.29411 5.48088C8.29411 5.48088 8.25905 4.70566 8.13439 4.66281C8.00973 4.61996 7.97467 4.72903 7.97467 4.72903Z" fill="white"/>
</g>
</g>
<path id="Vector_35" d="M16.6173 6.68066C16.3719 5.65612 16.4109 7.59223 16.6329 8.63625C16.8511 9.6569 16.9913 9.38031 16.9913 9.38031C16.9913 9.38031 17.0186 7.38966 16.6173 6.68066Z" fill="white"/>
<g id="Vector_36" style="mix-blend-mode:soft-light">
<path d="M11.0976 19.953C9.88607 19.9413 12.1728 19.3608 12.6753 19.057C13.1818 18.7531 14.5257 19.1271 14.5257 19.1271C14.5257 19.1271 13.3259 20.0387 11.0976 19.953Z" fill="white"/>
</g>
<path id="Vector_37" d="M16.4265 13.4278C15.8344 13.3499 15.2189 15.3405 15.5461 15.7573C15.8734 16.1703 16.6486 14.9938 16.8005 14.6081C16.9563 14.2186 16.4265 13.4278 16.4265 13.4278Z" fill="#CC1F38"/>
<path id="Vector_38" d="M14.0048 17.8493C13.5724 17.783 14.5853 16.9961 14.7762 16.9611C14.967 16.926 14.8969 17.3428 14.7372 17.6467C14.5814 17.9466 14.1646 17.8765 14.0048 17.8493Z" fill="#CC1F38"/>
<path id="Vector_39" d="M14.0151 17.5376C13.8982 17.7674 14.128 17.9038 14.4748 17.822C14.576 17.7986 14.7124 17.6817 14.7124 17.6817C14.7124 17.6817 14.3696 18.0362 14.0307 18.0596C13.6917 18.083 13.7852 17.7635 14.0151 17.5376Z" fill="#FF7940"/>
<path id="Vector_40" d="M15.5034 14.9043C15.5034 14.9043 15.5151 15.1498 15.8929 15.1498C16.376 15.1498 16.7772 14.6511 16.7772 14.6511C16.7772 14.6511 16.3215 15.7575 15.7605 15.9756C15.2034 16.1938 15.4177 15.2433 15.5034 14.9043Z" fill="#FF7940"/>
<g id="Vector_41" style="mix-blend-mode:multiply" opacity="0.5">
<path d="M15.6979 14.2576C15.4759 15.2081 16.3524 14.4952 16.516 14.3667C16.6796 14.2342 16.8315 14.4446 16.8315 14.4446C16.8315 14.4446 16.6835 13.5057 16.4264 13.4278C16.1693 13.3499 15.6979 14.2615 15.6979 14.2615V14.2576Z" fill="#D640C6"/>
</g>
<g id="Vector_42" style="mix-blend-mode:multiply" opacity="0.5">
<path d="M14.3195 17.2492C14.1987 17.5843 14.5182 17.6972 14.7207 17.5765C14.9233 17.4557 14.8493 16.9298 14.7714 16.9571C14.6974 16.9882 14.3156 17.2454 14.3156 17.2454L14.3195 17.2492Z" fill="#D640C6"/>
</g>
<path id="Vector_43" d="M15.921 15.8901C15.6795 15.9329 16.034 15.6758 16.2443 15.4771C16.4586 15.2785 16.1314 15.7888 15.921 15.8901Z" fill="white"/>
<path id="Vector_44" d="M14.0613 18.0516C14.0224 18.0283 14.4119 17.8374 14.4704 17.8724C14.4431 17.9893 14.0613 18.0516 14.0613 18.0516Z" fill="white"/>
</g>
</g>
</g>
</g>
<defs>
<linearGradient id="paint0_linear_1396_37238" x1="11.9803" y1="19.8868" x2="11.9803" y2="0.097168" gradientUnits="userSpaceOnUse">
<stop stop-color="#E52436"/>
<stop offset="0.23" stop-color="#FE3931"/>
<stop offset="0.59" stop-color="#FB6134"/>
<stop offset="0.85" stop-color="#F63C3B"/>
<stop offset="1" stop-color="#CC0721"/>
</linearGradient>
<linearGradient id="paint1_linear_1396_37238" x1="11.3464" y1="19.9997" x2="11.3464" y2="-0.000263691" gradientUnits="userSpaceOnUse">
<stop stop-color="#E52436"/>
<stop offset="0.23" stop-color="#FE3931"/>
<stop offset="0.59" stop-color="#FB6134"/>
<stop offset="0.85" stop-color="#F63C3B"/>
<stop offset="1" stop-color="#CC0721"/>
</linearGradient>
<linearGradient id="paint2_linear_1396_37238" x1="12.5231" y1="19.1194" x2="5.87327" y2="0.841227" gradientUnits="userSpaceOnUse">
<stop stop-color="#FFB092"/>
<stop offset="0.63" stop-color="#FF4F26"/>
<stop offset="0.7" stop-color="#FF6F3B"/>
<stop offset="1" stop-color="#FF938D"/>
</linearGradient>
<linearGradient id="paint3_linear_1396_37238" x1="10.782" y1="16.4977" x2="6.54355" y2="4.85762" gradientUnits="userSpaceOnUse">
<stop stop-color="#FF9019"/>
<stop offset="0.21" stop-color="#FE3919"/>
<stop offset="1" stop-color="#BB1538"/>
</linearGradient>
<linearGradient id="paint4_linear_1396_37238" x1="8.93497" y1="16.9613" x2="8.93497" y2="4.40576" gradientUnits="userSpaceOnUse">
<stop stop-color="#FB6134"/>
<stop offset="1" stop-color="#CC0721"/>
</linearGradient>
<linearGradient id="paint5_linear_1396_37238" x1="9.56823" y1="16.8104" x2="8.76027" y2="4.58155" gradientUnits="userSpaceOnUse">
<stop stop-color="#CA143C"/>
<stop offset="0.49" stop-color="#DB1F16"/>
<stop offset="1" stop-color="#A4013E"/>
</linearGradient>
<linearGradient id="paint6_linear_1396_37238" x1="9.03366" y1="16.795" x2="8.23058" y2="4.63997" gradientUnits="userSpaceOnUse">
<stop stop-color="#FFB092"/>
<stop offset="0.63" stop-color="#FF4F19"/>
<stop offset="0.7" stop-color="#FF6F3B"/>
<stop offset="1" stop-color="#FF938D"/>
</linearGradient>
<clipPath id="clip0_1396_37238">
<rect width="20" height="20" fill="white" transform="translate(0.5)"/>
</clipPath>
</defs>
</svg>
