<svg width="22" height="22" viewBox="0 0 22 22" fill="none" xmlns="http://www.w3.org/2000/svg">
    <g clip-path="url(#clip0_1396_36765)">
        <path
            d="M14.9102 7.82031C11.0008 7.82031 7.82031 11.0008 7.82031 14.9102C7.82031 18.8195 11.0008 22 14.9102 22C18.8195 22 22 18.8195 22 14.9102C22 11.0008 18.8195 7.82031 14.9102 7.82031ZM14.9102 14.2656C15.9764 14.2656 16.8438 15.133 16.8438 16.1992C16.8438 17.0384 16.3033 17.7471 15.5547 18.0141V19.4219H14.2656V18.0141C13.517 17.7471 12.9766 17.0384 12.9766 16.1992H14.2656C14.2656 16.5548 14.5545 16.8438 14.9102 16.8438C15.2658 16.8438 15.5547 16.5548 15.5547 16.1992C15.5547 15.8436 15.2658 15.5547 14.9102 15.5547C13.8439 15.5547 12.9766 14.6873 12.9766 13.6211C12.9766 12.7819 13.517 12.0732 14.2656 11.8062V10.3984H15.5547V11.8062C16.3033 12.0732 16.8438 12.7819 16.8438 13.6211H15.5547C15.5547 13.2655 15.2658 12.9766 14.9102 12.9766C14.5545 12.9766 14.2656 13.2655 14.2656 13.6211C14.2656 13.9767 14.5545 14.2656 14.9102 14.2656ZM7.17578 7.82031C11.1512 7.82031 14.2656 6.1215 14.2656 3.95312C14.2656 1.78475 11.1512 0 7.17578 0C3.20031 0 0 1.78475 0 3.95312C0 6.1215 3.20031 7.82031 7.17578 7.82031ZM0 14.5045V15.5547C0 17.7231 3.20031 19.4219 7.17578 19.4219C7.40128 19.4219 7.61978 19.4011 7.8418 19.3903C7.34063 18.6028 6.97546 17.7368 6.76156 16.8282C3.88674 16.7489 1.39055 15.8655 0 14.5045ZM6.56223 15.5219C6.54745 15.3191 6.53125 15.1166 6.53125 14.9102C6.53125 14.2383 6.61929 13.588 6.76943 12.9614C3.89104 12.8834 1.3918 11.9995 0 10.6373V11.6875C0 13.7408 2.89016 15.3545 6.56223 15.5219ZM7.17578 11.6875L7.17776 11.6874C7.59993 10.6785 8.21489 9.76169 8.98816 8.98829C8.40606 9.06185 7.8045 9.10938 7.17578 9.10938C4.11568 9.10938 1.45776 8.19685 0 6.77011V7.82031C0 9.98869 3.20031 11.6875 7.17578 11.6875Z"
            fill="#4E556F" />
    </g>
    <defs>
        <clipPath id="clip0_1396_36765">
            <rect width="22" height="22" fill="white" />
        </clipPath>
    </defs>
</svg>
    