<svg width="52" height="79" viewBox="0 0 52 79" fill="none" xmlns="http://www.w3.org/2000/svg">
    <g clip-path="url(#clip0_1396_39680)">
        <path
            d="M33.4057 1.30124C37.0312 -0.00126719 43.1678 4.10768 44.43 5.08792C45.6923 6.05473 34.5739 32.8837 35.3662 35.7842C36.145 38.6846 46.0011 38.6309 48.7001 41.773C51.3991 44.9152 32.6403 72.1202 30.3173 73.0735C27.9942 74.0269 22.4619 73.9195 22.4619 73.9195L30.3173 50.9309L20.7969 20.718L33.4057 1.30124Z"
            fill="url(#paint0_linear_1396_39680)" />
        <path
            d="M5.87694 4.44319C2.6408 5.39657 2.65423 37.9996 4.02388 41.6251C5.40696 45.2507 14.9945 43.1693 18.2978 45.2641C21.601 47.3589 21.7219 72.1737 22.447 73.9193C23.1721 75.6515 43.4751 48.5271 45.4356 44.0422C47.3961 39.5572 32.5582 38.6039 30.5978 37.1671C28.6373 35.7303 37.1506 4.24177 34.7604 1.8516C32.3702 -0.538577 9.9456 3.2481 5.87694 4.44319Z"
            fill="url(#paint1_linear_1396_39680)" />
        <g style="mix-blend-mode:multiply" opacity="0.5">
            <path
                d="M30.6114 37.1806C26.395 35.9721 12.2822 42.5383 12.6314 43.1023C12.9805 43.6663 18.4054 42.968 20.0436 45.9759C21.6818 48.9838 22.0712 68.1051 23.884 69.5822C25.6967 71.0593 42.7099 48.0841 43.435 45.2777C44.1467 42.4712 30.5979 37.1806 30.5979 37.1806H30.6114Z"
                fill="#C05CC7" />
        </g>
        <g style="mix-blend-mode:soft-light">
            <path
                d="M5.90276 4.9404C3.808 5.71922 6.73529 18.6369 7.4604 21.6447C8.18551 24.6526 25.7895 26.2505 29.6836 23.3635C33.5912 20.4631 35.5382 5.46409 34.7594 3.26191C33.9806 1.05972 14.3221 1.81169 5.90276 4.9404Z"
                fill="#AC9AFF" />
        </g>
        <path
            d="M35.3645 43.5186C35.1362 44.9554 30.0739 56.8257 27.4554 61.4852C26.7572 62.7205 26.2335 63.4591 26.0052 63.3517C24.9712 62.828 26.0589 42.9009 24.5684 42.149C23.0779 41.397 11.1405 41.2493 10.3751 39.6782C9.60968 38.0937 8.96514 13.1446 10.8182 11.869C13.8126 9.82792 27.6568 7.89429 27.8314 10.6604C27.8448 10.8753 27.8314 11.1976 27.7911 11.6407C27.3211 16.985 23.4136 37.758 24.4341 38.7383C25.5352 39.7856 35.6599 41.6924 35.351 43.5052L35.3645 43.5186Z"
            fill="#479DFF" />
        <path
            d="M35.364 43.5187C35.1358 44.9555 30.0734 56.8258 27.455 61.4852C26.5956 60.693 28.0727 43.559 26.797 42.619C25.5214 41.6656 13.7585 40.3765 12.7111 38.5906C11.6637 36.8047 11.422 14.5949 13.0334 13.1313C14.6447 11.6676 27.4818 10.0563 27.8041 11.6542C27.3341 16.9985 23.4266 37.7715 24.4471 38.7518C25.5482 39.7991 35.6729 41.7059 35.364 43.5187Z"
            fill="#47FFFF" />
        <path
            d="M24.4746 13.6418C24.3 12.7018 20.1911 14.4609 17.5457 14.8503C14.9004 15.2397 18.2843 18.9189 18.5931 20.0469C18.902 21.1882 21.037 18.3147 21.2787 19.4426C21.5204 20.584 20.5939 25.4046 19.9225 25.0286C19.2511 24.6527 16.4849 26.0626 16.1895 28.7213C15.8941 31.3935 14.2962 37.6106 16.8341 36.6707C19.3719 35.7307 20.5939 34.8579 20.9296 36.7647C21.2653 38.6714 19.2377 38.94 21.2921 39.2085C23.3466 39.4771 28.7581 42.4178 29.6175 44.0157C30.4768 45.6137 29.9532 45.6808 29.2012 46.6208C28.4492 47.5607 25.9516 54.4358 28.4089 53.0259C30.8663 51.6294 29.7517 53.4287 29.2281 55.1609C28.7044 56.8931 27.1333 57.0945 27.563 57.9674C27.9927 58.8402 28.1001 60.3038 28.1001 60.3038C28.1001 60.3038 29.5503 53.3616 30.3694 52.4216C31.1885 51.4817 28.7178 52.2873 29.4832 49.9509C30.2486 47.6144 31.5377 45.3451 31.6988 44.4051C31.8599 43.4652 30.356 42.4044 28.4089 41.3973C26.4619 40.3902 21.6547 40.8602 22.0441 37.5838C22.4335 34.3208 23.6689 31.9709 21.0773 33.3808C18.4857 34.7773 16.8341 36.3887 16.6326 34.3879C16.4178 32.3871 17.6129 26.7743 18.4051 25.9015C19.1974 25.0286 21.2519 27.5665 21.7353 28.0365C22.2187 28.5065 23.1452 27.0965 23.8434 23.2293C24.5417 19.362 25.0385 17.1464 23.6017 17.3479C22.165 17.5493 18.6603 19.2143 19.8151 16.8779C20.9699 14.5414 23.642 15.0114 24.8505 15.7365C26.0725 16.475 24.5014 13.6015 24.5014 13.6015L24.4746 13.6418Z"
            fill="white" />
        <path
            d="M5.24609 5.08784C5.24609 5.08784 21.843 1.18031 31.1486 1.63686C40.4541 2.09341 44.4422 5.08784 44.4422 5.08784C44.4422 5.08784 39.635 1.11317 34.0759 0.132934C28.5167 -0.847305 6.5486 3.90618 6.2129 4.17474C5.87721 4.4433 5.24609 5.07441 5.24609 5.07441V5.08784Z"
            fill="#7C5CF4" />
        <g style="mix-blend-mode:multiply" opacity="0.5">
            <path
                d="M37.9689 2.5365C35.5518 2.06652 31.9531 26.4114 31.698 31.3126C31.4429 36.2138 35.8875 25.3237 39.0968 19.3214C42.3061 13.3191 43.8906 6.73944 43.5952 5.57121C43.2997 4.40298 37.9689 2.5365 37.9689 2.5365Z"
                fill="#9A2E69" />
        </g>
        <g style="mix-blend-mode:multiply" opacity="0.5">
            <path
                d="M10.3729 12.8624C9.97006 15.4674 10.8966 13.7889 15.8515 11.909C20.8064 10.0291 27.8829 11.0228 27.8158 11.6405C27.7486 12.2582 27.8561 9.45173 27.1712 9.29059C26.4998 9.12946 10.8026 9.98884 10.3729 12.8624Z"
                fill="#9ABAFF" />
        </g>
        <g style="mix-blend-mode:multiply" opacity="0.5">
            <path
                d="M23.6289 74.0004C23.7632 73.141 37.3657 56.2487 39.7693 54.3688C42.1729 52.4888 42.3743 52.086 43.368 52.7171C44.3616 53.3482 34.1967 69.4886 32.0751 71.3417C29.9535 73.1947 23.6289 74.0004 23.6289 74.0004Z"
                fill="#9A2E69" />
        </g>
        <path
            d="M30.6111 37.1807C30.3291 36.2944 37.3653 37.6507 43.0722 39.1412C48.7791 40.6317 48.8999 42.2027 48.8999 42.2027C48.8999 42.2027 46.6709 42.7936 44.9387 42.2027C43.2199 41.6119 42.6828 40.6451 30.5977 37.1807H30.6111Z"
            fill="#7C5CF4" />
        <path
            d="M44.2147 41.9076C43.4762 42.1224 45.289 43.7606 45.5441 43.7741C45.8127 43.7875 46.8198 42.6327 46.7392 42.4581C46.6586 42.2836 44.8727 41.7062 44.2147 41.9076Z"
            fill="#B5CCFF" />
        <path
            d="M33.7655 0.65674C31.8319 0.952155 35.1754 3.34233 35.9408 3.73174C36.7062 4.12115 37.391 2.69779 37.2165 1.82497C37.0419 0.938727 35.0008 0.468749 33.7655 0.65674Z"
            fill="#B5CCFF" />
        <path
            d="M10.4041 39.6785C10.4041 39.6785 10.8069 40.4439 12.9554 40.8198C18.4877 41.7867 23.456 42.74 24.208 42.8072C24.9599 42.8877 26.0879 42.4446 26.0879 42.4446C26.0879 42.4446 24.3691 41.5181 21.0927 41.4778C17.8297 41.4375 11.5857 40.5781 10.3906 39.6516L10.4041 39.6785Z"
            fill="#9ACCFF" />
        <path
            d="M9.63617 27.741C9.63617 27.741 8.65593 13.6954 9.85102 11.7483C11.0327 9.80128 22.7553 9.27759 22.7553 9.27759C22.7553 9.27759 12.4829 10.4055 10.8581 11.8692C9.23333 13.3463 9.6496 27.7276 9.6496 27.7276L9.63617 27.741Z"
            fill="#9A90FF" />
    </g>
    <defs>
        <linearGradient id="paint0_linear_1396_39680" x1="34.8828" y1="73.9195" x2="34.8828"
            y2="1.04611" gradientUnits="userSpaceOnUse">
            <stop stop-color="#3D069A" />
            <stop offset="1" stop-color="#6509BA" />
        </linearGradient>
        <linearGradient id="paint1_linear_1396_39680" x1="24.3941" y1="73.9999" x2="24.3941"
            y2="1.07278" gradientUnits="userSpaceOnUse">
            <stop stop-color="#512EFF" />
            <stop offset="1" stop-color="#7C1ACC" />
        </linearGradient>
        <clipPath id="clip0_1396_39680">
            <rect width="52" height="79" fill="white" />
        </clipPath>
    </defs>
</svg>
    