<svg width="135" height="58" viewBox="0 0 135 58" fill="none" xmlns="http://www.w3.org/2000/svg">
    <mask id="mask0_1396_35171" style="mask-type:alpha" maskUnits="userSpaceOnUse" x="0" y="0"
        width="135" height="58">
        <rect width="135" height="58" rx="14" fill="#101320" />
        <rect x="0.5" y="0.5" width="134" height="57" rx="13.5"
            stroke="url(#paint0_linear_1396_35171)" stroke-opacity="0.06" />
    </mask>
    <g mask="url(#mask0_1396_35171)">
        <rect width="135" height="58" rx="14" fill="#1F2231" />
        <rect x="0.5" y="0.5" width="134" height="57" rx="13.5"
            stroke="url(#paint1_linear_1396_35171)" stroke-opacity="0.06" />
        <g filter="url(#filter0_f_1396_35171)">
            <ellipse cx="196" cy="131" rx="127" ry="95" fill="#6F8AFF" />
        </g>
        <path
            d="M106.876 67.3731C106.876 67.3731 108.932 70.4832 109.69 71.113C110.445 71.7344 118.5 70.2827 123.8 68.235C129.099 66.1872 136.621 61.2698 136.9 60.7346C137.17 60.2027 136.414 55.6575 136.414 55.6575L106.876 67.3731Z"
            fill="url(#paint2_linear_1396_35171)" />
        <path
            d="M106.776 66.6633C107.37 63.1216 132.145 53.0814 136.12 55.324C139.968 57.4893 105.812 72.4368 106.776 66.6633Z"
            fill="#FF7A00" />
        <g style="mix-blend-mode:multiply" opacity="0.3">
            <path
                d="M115.974 70.4817C115.974 70.4817 125.537 67.0488 130.138 63.5222C134.814 59.9376 135.446 57.7021 135.926 56.6814C136.414 55.6573 127.141 56.1423 127.141 56.1423L124.156 56.6642C124.156 56.6642 133.733 56.2854 133.252 58.6859C132.191 63.9334 112.976 71.0186 112.976 71.0186L115.971 70.4732L115.974 70.4817Z"
                fill="#B10053" />
        </g>
        <g style="mix-blend-mode:multiply" opacity="0.3">
            <path
                d="M127.717 66.2061C126.863 66.2348 134.03 60.7748 135.164 58.7824C136.325 56.76 136.864 59.5629 136.222 60.6659C135.585 61.7572 127.705 66.2009 127.705 66.2009L127.717 66.2061Z"
                fill="#D42F55" />
        </g>
        <g style="mix-blend-mode:soft-light" opacity="0.5">
            <path
                d="M117.605 65.8787C116.559 66.2635 116.754 65.5372 117.337 64.7583C117.928 63.9761 130.042 59.3533 132.293 58.5418C134.547 57.7387 127.707 62.1594 117.601 65.8703L117.605 65.8787Z"
                fill="white" />
        </g>
        <path
            d="M124.138 34.9999C125.365 32.1168 124.622 21.6707 124.622 21.6707L108.936 30.1216L91.6436 34.4143C91.6436 34.4143 98.1597 42.6298 101.015 43.9354C103.823 45.2203 108.315 45.1553 110.806 47.505C113.223 49.7864 109.259 53.2027 108.951 56.9059C108.86 58.0777 109.043 59.4057 109.331 60.6543C109.933 63.219 110.977 65.4674 110.977 65.4674C110.977 65.4674 114.21 65.5391 121.597 62.6847C128.544 60.0001 131.329 57.6031 131.329 57.6031C131.329 57.6031 130.725 55.6896 129.659 53.6343C128.965 52.2901 128.072 50.8864 127.037 49.9168C124.316 47.3744 119.068 47.518 119.317 44.2162C119.564 40.8084 122.941 37.8328 124.138 34.9999ZM122.386 49.5189C125.862 51.4006 128.04 56.358 127.898 57.6755C127.759 58.9729 121.57 61.3837 121.57 61.3837C121.57 61.3837 115.365 63.7523 114.401 62.8912C113.414 62.0198 111.689 56.8775 112.996 53.1474C114.339 49.3065 114.594 47.605 113.165 45.2628C111.704 42.8647 108.953 43.5391 105.537 42.868C102.077 42.1845 96.6165 35.4941 96.9182 33.7359L109.542 30.2566L121.233 24.3399C122.636 25.4299 123.105 34.0589 120.995 36.8946C118.918 39.6886 116.428 41.0391 116.96 43.7964C117.468 46.4946 118.801 47.5821 122.378 49.5222L122.386 49.5189Z"
            fill="url(#paint3_linear_1396_35171)" />
        <path
            d="M85.4992 28.697C85.4992 28.697 88.5313 33.2758 89.6159 34.1972C90.6972 35.1101 101.791 33.2516 109.042 30.4494C116.294 27.6473 126.556 20.7479 126.922 19.985C127.296 19.2187 126.184 12.5188 126.184 12.5188L85.4992 28.697Z"
            fill="url(#paint4_linear_1396_35171)" />
        <path
            d="M85.325 27.6668C85.9596 22.4968 120.23 8.57365 125.791 12.0295C131.125 15.3498 84.298 36.0191 85.325 27.6668Z"
            fill="#FF7A00" />
        <path opacity="0.5"
            d="M122.44 29.9255C122.479 32.5913 122.072 35.4587 121.003 36.8916C119.09 39.457 116.845 40.8103 116.907 43.1566C116.907 43.3603 116.932 43.5742 116.98 43.7986C117.488 46.4968 118.821 47.5843 122.398 49.5243C125.874 51.406 128.052 56.3634 127.91 57.6809C127.77 58.9783 121.582 61.3891 121.582 61.3891C121.582 61.3891 115.377 63.7577 114.413 62.8966C113.425 62.0252 111.701 56.883 113.008 53.1528C114.22 49.7025 114.543 47.9749 113.559 45.9559C113.445 45.7375 113.325 45.5022 113.177 45.2683C111.716 42.8702 108.965 43.5445 105.549 42.8734C104.761 42.7211 103.873 42.258 102.986 41.62C102.967 41.5979 102.956 41.5927 102.956 41.5927C99.9156 39.4066 96.7004 35.0831 96.9383 33.7381L109.562 30.2587L121.253 24.342C121.947 24.8802 122.417 27.302 122.457 29.919L122.44 29.9255Z"
            fill="url(#paint5_radial_1396_35171)" />
        <path
            d="M122.433 29.9087L122.44 29.9256C122.471 32.5946 122.072 35.4588 121.003 36.8916C119.09 39.457 116.845 40.8104 116.907 43.1567C116.57 44.7243 118.217 51.2471 117.704 51.3285C117.188 51.4016 115.19 47.6376 113.556 45.9475C113.442 45.7291 113.322 45.4938 113.173 45.2599C111.712 42.8618 108.962 43.5361 105.546 42.865C104.758 42.7127 103.87 42.2496 102.982 41.6116C102.964 41.5895 102.953 41.5843 102.953 41.5843L122.439 29.8969L122.433 29.9087Z"
            fill="url(#paint6_linear_1396_35171)" />
        <path
            d="M102.286 41.0934C101.17 38.3292 121.569 29.6594 122.261 29.9166C122.953 30.1737 120.971 35.8546 112.22 39.7025C103.503 43.5374 102.286 41.0934 102.286 41.0934Z"
            fill="url(#paint7_linear_1396_35171)" />
        <path
            d="M127.899 57.6757C128.015 59.4085 116.802 63.7996 114.401 62.8914C114.142 62.7975 113.004 61.6635 113.309 60.4673L113.306 60.4589C114.088 57.4562 117.442 52.5857 118.046 52.2647C118.732 51.9025 124.731 53.2754 127.046 55.2175C127.049 55.2259 127.069 55.2278 127.076 55.2447C127.626 55.7122 127.866 57.3388 127.89 57.679L127.899 57.6757Z"
            fill="url(#paint8_linear_1396_35171)" />
        <g style="mix-blend-mode:multiply" opacity="0.3">
            <path
                d="M102.569 44.4905C103.769 44.8041 109.263 43.6134 111.536 44.3182C113.778 45.016 114.475 48.0007 113.667 49.6049C112.872 51.1941 112.677 49.531 111.315 47.5413C109.926 45.5041 102.573 44.4989 102.573 44.4989L102.569 44.4905Z"
                fill="#912790" />
        </g>
        <g style="mix-blend-mode:multiply" opacity="0.3">
            <path
                d="M124.138 35C123.509 36.2142 117.813 38.969 117.224 42.1204C116.651 45.1878 118.464 46.4594 119.369 46.6147C120.274 46.77 118.526 44.6092 119.706 41.9578C120.907 39.2595 123.186 37.262 124.138 35Z"
                fill="#912790" />
        </g>
        <path
            d="M122.708 35.9996C121.633 36.0071 122.794 32.78 122.726 31.1454C122.655 29.5023 123.479 30.9321 123.946 33.1217C124.397 35.269 122.891 35.9967 122.708 35.9996Z"
            fill="white" />
        <g style="mix-blend-mode:soft-light">
            <path
                d="M96.8456 38.0477C96.6586 39.072 100.169 43.0287 101.901 43.389C103.617 43.7558 102.641 42.0347 102.126 41.4566C101.6 40.8732 97.0991 36.6676 96.8541 38.0445L96.8456 38.0477Z"
                fill="white" />
        </g>
        <path
            d="M110.738 54.2433C110.855 55.4999 112.084 53.1015 112.361 51.4305C112.632 49.7426 110.585 52.5151 110.738 54.2433Z"
            fill="white" />
        <path
            d="M123.458 48.9005C123.136 49.0734 124.68 51.284 126 50.9781C127.319 50.6723 124.969 48.0837 123.458 48.9005Z"
            fill="white" />
        <g style="mix-blend-mode:multiply" opacity="0.5">
            <path
                d="M103.942 41.833C103.942 41.833 109.791 44.0993 113.217 43.1636C116.627 42.2345 120.348 37.9118 121.088 36.2564C121.829 34.5808 122.137 32.0335 122.137 32.0335C122.137 32.0335 119.983 35.7605 114.435 38.7493C108.93 41.7217 103.942 41.833 103.942 41.833Z"
                fill="#E09590" />
        </g>
        <g style="mix-blend-mode:multiply" opacity="0.5">
            <path
                d="M127.898 57.6757C128.014 59.4085 116.801 63.7997 114.401 62.8914C114.141 62.7975 113.004 61.6635 113.309 60.4674C113.352 60.6547 114.04 62.9629 119.26 61.3635C124.677 59.6974 125.561 56.3543 126.856 55.3297C126.922 55.2749 126.995 55.2371 127.054 55.2142C127.057 55.2227 127.077 55.2246 127.084 55.2415C127.633 55.709 127.873 57.3356 127.898 57.6757Z"
                fill="#E09590" />
        </g>
        <g style="mix-blend-mode:soft-light" opacity="0.5">
            <path
                d="M118.055 52.2614C117.136 52.4222 119.493 56.6111 120.865 57.5476C122.217 58.4822 125.374 55.9701 125.584 55.1801C125.802 54.3867 119.822 51.9574 118.055 52.2614Z"
                fill="white" />
        </g>
        <g style="mix-blend-mode:multiply" opacity="0.3">
            <path
                d="M88.3784 24.3309C88.3784 24.3309 109.683 14.1069 117.261 13.9856C124.685 13.8659 108.025 22.7614 98.1827 26.2247C88.3205 29.686 85.5002 28.6971 85.5002 28.6971C85.5002 28.6971 98.3379 26.0481 108.075 20.9548C117.909 15.8139 86.9314 25.4631 86.9314 25.4631L88.3868 24.3276L88.3784 24.3309Z"
                fill="#B10053" />
        </g>
        <g style="mix-blend-mode:multiply" opacity="0.3">
            <path
                d="M103.036 31.8479C103.036 31.8479 114.807 26.7162 119.264 22.6142C123.809 18.4392 124.438 14.8642 124.248 13.4419C124.06 11.9993 121.472 11.3867 121.472 11.3867C121.472 11.3867 125.236 11.8752 125.294 14.2618C125.347 16.6114 118.651 25.0754 114.271 27.8659C109.92 30.6349 103.041 31.8362 103.041 31.8362L103.036 31.8479Z"
                fill="#B10053" />
        </g>
        <path
            d="M115.616 26.8988C115.616 26.8988 119.111 24.6061 121.48 21.9619C123.884 19.2845 125.152 15.0255 125.152 15.0255C125.152 15.0255 124.327 18.9481 115.616 26.8988Z"
            fill="#FF6500" />
        <g style="mix-blend-mode:multiply" opacity="0.3">
            <path
                d="M96.1772 28.9033C93.2067 30.3912 93.6507 32.2692 94.5168 33.3041C95.3797 34.3306 102.518 32.116 107.821 29.2993C113.155 26.4612 120.997 20.6624 121.364 18.8209C121.732 16.9592 113.386 21.554 108.365 23.8439C103.361 26.1273 96.1772 28.9033 96.1772 28.9033Z"
                fill="#D42F55" />
        </g>
        <g style="mix-blend-mode:soft-light" opacity="0.5">
            <path
                d="M96.6675 27.7329C95.4535 27.658 107.837 23.0283 111.806 20.4063C115.807 17.7628 120.986 14.5761 122.052 14.7182C123.117 14.8603 123.212 15.1828 123.119 15.6461C123.023 16.101 107.372 25.471 96.6675 27.7329Z"
                fill="white" />
        </g>
        <path
            d="M125.586 13.4591C125.066 13.3688 124.906 14.9654 124.832 15.9556C124.755 16.9374 126.017 14.3711 126.005 13.8897C125.991 13.3999 125.586 13.4591 125.586 13.4591Z"
            fill="#FFA457" />
        <path
            d="M135.418 57.7809C135.136 57.404 135.231 56.2407 135.358 56.2691C135.477 56.3008 136.27 56.1402 136.211 56.5905C136.152 57.0407 135.418 57.7809 135.418 57.7809Z"
            fill="#FFA457" />
        <path style="mix-blend-mode:screen"
            d="M99.7649 35.7247C98.4907 37.0525 104.061 42.5933 108.919 42.6487C113.698 42.6964 109.465 36.4933 107.13 35.0255C104.744 33.5285 99.7766 35.7299 99.7766 35.7299L99.7649 35.7247Z"
            fill="url(#paint9_linear_1396_35171)" />
        <path
            d="M117.818 27.8453C116.086 29.2721 115.629 34.1211 116.7 35.0086C117.757 35.8826 122.285 31.2867 121.777 28.2385C121.257 25.1077 118.806 27.0358 117.818 27.8453Z"
            fill="white" />
        <g style="mix-blend-mode:multiply" opacity="0.5">
            <path
                d="M92.2034 35.111C92.0757 34.9563 105.371 34.4227 111.099 31.85C116.844 29.2708 124.683 22.56 124.683 22.56L124.627 21.6877C124.627 21.6877 114.62 27.9153 108.126 30.6675C101.644 33.4249 91.6494 34.4314 91.6494 34.4314L92.2067 35.1194L92.2034 35.111Z"
                fill="#9A376D" />
        </g>
        <g style="mix-blend-mode:multiply" opacity="0.5">
            <path
                d="M115.973 41.7979C113.932 41.8194 117.25 37.0595 119.856 35.2073C122.48 33.3485 120.541 37.0797 119.663 38.3515C118.798 39.6084 115.973 41.7979 115.973 41.7979Z"
                fill="#E09590" />
        </g>
        <g style="mix-blend-mode:multiply" opacity="0.5">
            <path
                d="M131.337 57.6001C131.337 57.6001 128.552 59.9971 121.605 62.6817C114.219 65.5361 110.985 65.4645 110.985 65.4645C110.985 65.4645 109.942 63.216 109.339 60.6513C109.339 60.6513 110.9 64.3899 112.256 64.983C113.596 65.5826 125.002 61.1164 128.242 59.3204C131.499 57.5179 129.672 53.6196 129.672 53.6196C130.733 55.6866 131.345 57.5968 131.345 57.5968L131.337 57.6001Z"
                fill="#9A376D" />
        </g>
        <path
            d="M119.483 50.2033C117.957 51.0553 119.863 53.6992 121.651 53.8532C123.44 54.0072 121.993 50.8167 121.547 50.416C121.112 50.0206 119.969 49.928 119.475 50.2066L119.483 50.2033Z"
            fill="white" />
        <path
            d="M12.812 25V15.2H16.788C19.686 15.2 21.968 17.37 21.968 20.128C21.968 22.844 19.686 25 16.788 25H12.812ZM15.22 22.872H16.732C18.272 22.872 19.476 21.668 19.476 20.128C19.476 18.56 18.272 17.328 16.732 17.328H15.22V22.872ZM21.7731 25L25.7911 15.2H28.5491L32.5111 25H29.9071L29.0111 22.634H25.1891L24.2791 25H21.7731ZM25.9171 20.716H28.2971L27.1211 17.58L25.9171 20.716ZM33.2241 25V15.2H35.6321V25H33.2241ZM37.2573 25V15.2H39.6653V22.872H44.8313V25H37.2573ZM47.2559 25V21.346L43.1959 15.2H45.9679L48.5299 19.218L51.1059 15.2H53.7239L49.6639 21.346V25H47.2559ZM20.4 44.574L19.756 43.762C19.126 44.014 18.44 44.154 17.698 44.154C14.758 44.154 12.462 41.928 12.462 39.1C12.462 36.272 14.758 34.046 17.698 34.046C20.638 34.046 22.934 36.272 22.934 39.1C22.934 40.472 22.388 41.704 21.492 42.614L22.444 43.818L20.4 44.574ZM17.698 41.942C17.894 41.942 18.09 41.928 18.286 41.886L17.362 40.71L19.406 39.954L19.994 40.71C20.288 40.262 20.456 39.702 20.456 39.1C20.456 37.476 19.266 36.258 17.698 36.258C16.13 36.258 14.94 37.476 14.94 39.1C14.94 40.724 16.13 41.942 17.698 41.942ZM28.5263 44.14C25.8103 44.14 24.0743 42.432 24.0743 39.73V34.2H26.4823V39.73C26.4823 41.06 27.2943 41.914 28.5403 41.914C29.7863 41.914 30.5843 41.06 30.5843 39.73V34.2H32.9923V39.73C32.9923 42.404 31.2283 44.14 28.5263 44.14ZM34.4819 44V34.2H42.2099V36.286H36.8899V38.05H40.4039V40.066H36.8899V41.914H42.2659V44H34.4819ZM47.2951 44.14C45.7131 44.14 44.0891 43.538 42.8711 42.502L44.2151 40.752C45.4051 41.718 46.3431 42.11 47.4771 42.11C48.5831 42.11 49.2411 41.76 49.2411 41.158C49.2411 40.612 48.8631 40.346 47.8831 40.178L45.7271 39.8C44.1311 39.52 43.2491 38.554 43.2491 37.112C43.2491 35.208 44.7611 34.06 47.2671 34.06C48.7231 34.06 50.3051 34.592 51.3831 35.46L50.1091 37.238C49.0731 36.44 48.1351 36.076 47.0991 36.076C46.1191 36.076 45.5171 36.398 45.5171 36.93C45.5171 37.42 45.8531 37.658 46.6791 37.798L48.7091 38.134C50.5991 38.442 51.5931 39.408 51.5931 40.92C51.5931 42.908 49.9551 44.14 47.2951 44.14ZM55.1338 44V36.328H51.9278V34.2H60.7478V36.328H57.5418V44H55.1338ZM65.5607 44.14C63.9787 44.14 62.3547 43.538 61.1367 42.502L62.4807 40.752C63.6707 41.718 64.6087 42.11 65.7427 42.11C66.8487 42.11 67.5067 41.76 67.5067 41.158C67.5067 40.612 67.1287 40.346 66.1487 40.178L63.9927 39.8C62.3967 39.52 61.5147 38.554 61.5147 37.112C61.5147 35.208 63.0267 34.06 65.5327 34.06C66.9887 34.06 68.5707 34.592 69.6487 35.46L68.3747 37.238C67.3387 36.44 66.4007 36.076 65.3647 36.076C64.3847 36.076 63.7827 36.398 63.7827 36.93C63.7827 37.42 64.1187 37.658 64.9447 37.798L66.9747 38.134C68.8647 38.442 69.8587 39.408 69.8587 40.92C69.8587 42.908 68.2207 44.14 65.5607 44.14Z"
            fill="white" />
        <path
            d="M93.629 58.0226C89.4383 62.2425 83.6009 63.0682 80.1544 60.3163C79.9694 60.1686 79.7901 60.0138 79.6293 59.8505C79.4479 59.6765 79.285 59.4939 79.1277 59.3043C76.6718 56.3474 76.6884 51.2642 79.6755 46.8812C83.0331 41.9612 88.9131 39.5794 93.3136 41.5379C93.8689 41.7833 94.3967 42.0999 94.884 42.4889C99.049 45.8146 98.4739 52.5894 94.234 57.3816C94.234 57.3816 94.234 57.3816 94.2255 57.3922C94.0394 57.6106 93.8363 57.8212 93.6325 58.0254L93.629 58.0226Z"
            fill="url(#paint10_linear_1396_35171)" />
        <path
            d="M77.9134 58.5271C77.9134 58.5271 79.9477 60.6698 81.6016 61.2099L96.2814 44.1233C96.2814 44.1233 96.0173 42.864 91.7723 40.0104L77.9134 58.5271Z"
            fill="url(#paint11_linear_1396_35171)" />
        <path
            d="M91.121 56.0199C87.505 59.9066 82.5544 61.0443 79.1273 59.3038C78.702 59.0924 78.2937 58.8305 77.9131 58.5266C75.587 56.6692 74.6293 53.4699 75.1699 50.0866C75.1791 50.024 75.1855 49.965 75.1932 49.9188C75.2123 49.8001 75.2272 49.7304 75.2272 49.7304C75.5299 48.1257 76.1639 46.471 77.171 44.8814C80.7988 39.1636 87.6738 36.7318 92.0381 40.2164C92.5218 40.6027 92.9473 41.0473 93.3131 41.5374C96.1971 45.3953 95.1793 51.6594 91.121 56.0199Z"
            fill="url(#paint12_linear_1396_35171)" />
        <path
            d="M88.1189 53.623C85.6721 56.4686 82.0738 57.2475 79.7721 55.6368C79.6917 55.5843 79.6106 55.5253 79.5323 55.4628C77.2346 53.6282 77.0099 49.7153 79.177 46.4832C81.5337 42.9773 85.7648 41.632 88.436 43.7648C88.5249 43.8358 88.6174 43.9097 88.6949 43.9949C91.0876 46.214 90.7661 50.5412 88.1161 53.6265L88.1189 53.623Z"
            fill="url(#paint13_linear_1396_35171)" />
        <path
            d="M88.1191 53.6237C85.6722 56.4693 82.074 57.2482 79.7722 55.6375C77.6884 53.7465 77.5591 49.9913 79.6751 46.8815C81.9694 43.5121 86.0114 42.1556 88.6979 43.9921C91.0905 46.2112 90.769 50.5383 88.1191 53.6237Z"
            fill="url(#paint14_linear_1396_35171)" />
        <g style="mix-blend-mode:multiply" opacity="0.5">
            <path
                d="M81.7843 43.9115C81.7843 43.9115 81.7188 44.5698 82.0556 44.4835C82.3953 44.3936 85.0359 42.6695 87.8105 44.4248C90.6093 46.1936 89.8281 50.6953 89.8281 50.6953C89.8281 50.6953 91.4279 45.8978 88.3437 43.6914C85.2729 41.49 81.7843 43.9115 81.7843 43.9115Z"
                fill="#7E527C" />
        </g>
        <g style="mix-blend-mode:soft-light">
            <path
                d="M80.7905 41.3765C79.7673 42.5923 81.2886 43.3934 81.509 43.482C81.7323 43.5671 84.5138 42.0604 87.3436 42.7472C90.243 43.449 90.716 46.7738 90.6761 48.2097C90.6362 49.6165 93.7425 49.5923 94.4763 48.9725C95.2213 48.3384 95.0828 41.582 90.2791 39.4938C85.5949 37.4603 80.7905 41.3765 80.7905 41.3765Z"
                fill="white" />
        </g>
        <g style="mix-blend-mode:multiply" opacity="0.2">
            <path
                d="M80.1783 42.035C79.5971 41.6176 77.5923 44.3619 76.9977 45.5296C76.4187 46.6632 77.8359 47.1424 78.3084 46.9664C78.7838 46.7868 81.127 44.0565 81.3294 43.8686C81.5354 43.6836 81.1001 43.4409 80.6071 42.9715C80.1105 42.4992 80.3191 42.1358 80.1783 42.035Z"
                fill="#7F6593" />
        </g>
        <g style="mix-blend-mode:multiply" opacity="0.2">
            <path
                d="M91.0088 49.3033C90.5025 49.1787 89.487 51.7052 88.8174 53.2732C88.1713 54.7901 90.8392 54.2352 91.311 54.7459C91.7856 55.253 94.4433 50.6187 94.3546 49.9712C94.2651 49.3173 92.5064 49.9808 91.0059 49.3069L91.0088 49.3033Z"
                fill="#7F6593" />
        </g>
        <g style="mix-blend-mode:soft-light">
            <path
                d="M76.0056 55.5474C76.0296 53.0737 78.3466 55.7449 80.6759 56.3583C83.0585 56.9852 84.7497 56.3552 85.5358 56.319C86.3319 56.2848 86.6185 58.727 85.9899 59.2152C85.3698 59.6927 79.1682 61.7479 76.0021 55.5445L76.0056 55.5474Z"
                fill="#B6BDC9" />
        </g>
        <g style="mix-blend-mode:multiply" opacity="0.5">
            <path
                d="M95.3724 46.6827C95.1056 46.4697 95.3296 47.2542 95.071 48.964C94.8202 50.6276 94.0988 52.2824 94.1497 52.7657C94.2035 53.2455 96.2004 54.2168 96.2004 54.2168C96.2004 54.2168 98.2396 50.9699 97.4557 48.0199C97.2945 47.4194 95.3788 46.682 95.3788 46.682L95.3724 46.6827Z"
                fill="#6E5066" />
        </g>
        <g style="mix-blend-mode:multiply" opacity="0.5">
            <path
                d="M82.3895 60.2957C81.7718 60.3617 83.3702 61.5331 83.5956 61.6082C83.8246 61.6862 86.8404 62.2129 88.5861 61.2886C90.4049 60.3237 88.7779 58.9548 88.4713 58.7041C88.1647 58.4535 86.5151 59.4836 84.4669 59.9042C82.4912 60.307 82.3895 60.2957 82.3895 60.2957Z"
                fill="#6E5066" />
        </g>
        <g style="mix-blend-mode:soft-light">
            <path
                d="M93.7512 52.8721C93.4752 52.6633 92.2305 54.9079 91.0236 56.4778C89.8649 57.9873 92.4058 59.1308 92.5834 58.9814C92.7609 58.8319 94.4028 57.0967 95.0417 56.1798C95.6912 55.2423 96.4698 54.734 95.7819 54.1731C95.094 53.6122 93.7548 52.8749 93.7548 52.8749L93.7512 52.8721Z"
                fill="white" />
        </g>
        <path
            d="M77.7188 52.0234C78.1875 50.7726 77.7468 52.2729 78.6705 54.1287C79.5735 55.9448 81.9072 56.7131 83.3855 56.4082C83.3855 56.4082 81.4233 56.8742 79.6962 55.5942C77.7329 54.1431 77.7188 52.0234 77.7188 52.0234Z"
            fill="#EBF0FF" />
        <g style="mix-blend-mode:soft-light">
            <path
                d="M91.2875 40.019C89.754 38.9926 87.1702 42.1774 88.285 43.1083C89.3997 44.0391 90.4776 45.0454 90.6779 47.9895C90.8647 50.812 94.3347 49.0047 94.7216 48.4107C95.1169 47.8062 95.6964 42.6307 91.2875 40.019Z"
                fill="white" />
        </g>
        <path
            d="M75.0592 52.8524C74.9021 49.8614 77.0855 51.0805 77.3531 51.4457C77.6208 51.8108 77.5543 53.7031 79.2227 55.3265C80.884 56.9442 77.9701 58.252 77.251 57.7594C76.529 57.2703 75.1677 54.8611 75.062 52.8489L75.0592 52.8524Z"
            fill="white" />
        <path
            d="M93.5663 42.1184C92.8721 41.6165 91.9935 44.6426 92.1768 46.1053C92.3537 47.5396 94.57 47.4629 94.8447 47.0241C95.1223 46.5817 94.5487 43.6017 93.5663 42.1184Z"
            fill="white" />
        <path
            d="M75.7576 53.3116C75.9629 52.4563 76.7333 54.5917 76.2942 54.7769C75.8615 54.9614 75.5536 54.1506 75.7576 53.3116Z"
            fill="white" />
        <g style="mix-blend-mode:soft-light">
            <path
                d="M88.3622 54.3535C87.8339 54.2929 86.7867 55.6118 83.6969 56.5928C80.7791 57.5189 81.6289 59.4089 81.9213 59.6773C82.2137 59.9458 85.2059 60.2323 88.3933 58.0129C91.0913 56.1366 90.8481 55.3251 90.7093 55.0394C90.564 54.7545 88.8015 54.4015 88.3622 54.3535Z"
                fill="white" />
        </g>
        <g style="mix-blend-mode:soft-light">
            <path
                d="M94.5438 42.8992C93.5692 42.1211 95.0144 45.1912 95.5108 46.2691C96.0058 47.3342 97.5334 47.3541 97.5334 47.3541C97.5334 47.3541 97.6961 44.9328 94.5409 42.9028L94.5438 42.8992Z"
                fill="white" />
        </g>
        <g style="mix-blend-mode:soft-light">
            <path
                d="M79.3705 46.2126C79.7424 45.6009 80.9657 44.7546 81.1746 44.6826C81.3835 44.6106 79.4892 47.6761 78.965 48.1138C78.4493 48.5408 79.1491 46.5775 79.3677 46.2162L79.3705 46.2126Z"
                fill="white" />
        </g>
        <path
            d="M94.9434 46.9224C94.9434 46.9224 94.9532 52.9062 89.077 57.7781C89.077 57.7781 95.5951 53.6633 94.9434 46.9224Z"
            fill="#EED6DD" />
        <g style="mix-blend-mode:multiply" opacity="0.8">
            <path
                d="M77.1832 57.8513C77.1832 57.8513 78.0628 58.9089 79.2386 59.6904C80.4143 60.472 83.6411 60.0489 83.6411 60.0489C83.6411 60.0489 80.2085 60.8027 77.1861 57.8478L77.1832 57.8513Z"
                fill="#7E527C" />
        </g>
        <g style="mix-blend-mode:multiply" opacity="0.8">
            <path
                d="M77.9141 58.5269C75.5879 56.6696 74.6303 53.4703 75.1709 50.0869C74.9965 51.363 74.7781 54.9046 77.9141 58.5269Z"
                fill="#7E527C" />
        </g>
        <g style="mix-blend-mode:multiply" opacity="0.5">
            <path
                d="M75.1895 49.9163C75.1796 49.9724 75.1732 50.0314 75.1662 50.084C75.1753 50.0215 75.1817 49.9625 75.1895 49.9163Z"
                fill="#BD2A4C" />
        </g>
        <g style="mix-blend-mode:multiply" opacity="0.8">
            <path
                d="M93.629 58.0225C89.4383 62.2424 83.601 63.0682 80.1544 60.3162C79.9695 60.1685 79.7902 60.0137 79.6294 59.8504C82.8286 61.8982 86.0194 61.7025 87.9455 61.3766C90.224 60.9885 93.984 57.6071 94.222 57.3893C94.0359 57.6077 93.8328 57.8183 93.629 58.0225Z"
                fill="#7E527C" />
        </g>
        <g style="mix-blend-mode:multiply" opacity="0.8">
            <path
                d="M80.4948 41.1928C80.4948 41.1928 83.0129 39.2136 86.1425 39.0216C89.4008 38.8217 93.1974 41.1426 93.1974 41.1426L94.8257 42.3494C94.8257 42.3494 92.4276 40.3706 91.6787 39.9299C90.9297 39.4891 86.5347 36.5682 80.4948 41.1928Z"
                fill="#7E527C" />
        </g>
        <path
            d="M79.6683 51.4483C79.9061 51.0557 80.171 50.7604 80.4565 50.5633C80.7758 50.6376 80.9742 50.7028 81.0453 50.7596C81.1805 50.8675 81.357 51.0842 81.5698 51.423C81.5294 51.5539 81.4485 51.7281 81.3336 51.945C81.4185 52.2982 81.5688 52.5988 81.7808 52.8438C82.3337 51.8815 82.7602 51.1504 83.0555 50.6639C82.805 50.394 82.6093 50.1504 82.4577 49.9245C82.3096 49.7014 82.1892 49.4364 82.0901 49.1301C81.9946 48.8267 81.9801 48.4947 82.0529 48.1336C82.123 47.7759 82.284 47.3919 82.5359 46.9815C83.0725 46.1053 83.7664 45.477 84.6304 45.0952C85.5257 44.7034 86.3311 44.6649 87.0266 45.0048L87.8919 43.7387C87.9892 43.6824 88.5008 44.1433 88.5008 44.1433L87.7287 45.5188C87.9713 45.7474 88.1926 46.0756 88.3892 46.5005C88.6378 46.233 88.8622 46.0686 89.0634 46.0137C89.2851 45.9985 89.5148 46.0538 89.753 46.1858C90.1328 46.3958 90.1458 46.6275 90.1695 46.8969C90.0894 47.1067 89.9903 47.5809 89.487 48.2915C89.1519 48.7695 88.8821 49.0783 88.679 49.2306C88.4758 49.3829 88.2633 49.4229 88.045 49.3534C87.8794 49.3202 87.74 49.2613 87.6148 49.1847C87.3395 49.0115 87.1702 48.8005 87.0967 48.5496C87.152 48.3783 87.2364 48.2069 87.3528 48.0319C87.2289 47.7932 87.0176 47.5546 86.7224 47.3188C86.227 48.1872 85.7125 49.0286 85.1815 49.8395C85.8894 50.4921 86.3271 51.1037 86.4805 51.663C86.6346 52.2287 86.4567 52.8672 85.9619 53.5671C85.3692 54.4043 84.6361 54.9431 83.7762 55.1884C82.9448 55.4273 82.1905 55.3143 81.5119 54.8657L80.6699 55.9349C80.5654 55.9271 80.064 55.6724 79.8556 55.5176L80.9186 54.3978C80.6432 54.0789 80.4638 53.7201 80.3824 53.3114C80.2581 53.5035 80.1417 53.6202 80.0301 53.665C79.8837 53.6588 79.7009 53.5594 79.4789 53.3706C79.2427 53.1703 79.121 52.9799 79.1066 52.7937C79.1752 52.3942 79.3646 51.9454 79.6705 51.4383L79.6683 51.4483ZM84.0314 47.5815C83.6822 48.1356 83.7025 48.6061 84.1017 49.0181C84.4367 48.5109 84.9628 47.7719 85.6833 46.7746C85.032 46.5982 84.4828 46.8703 84.0314 47.5815ZM82.6422 53.3918C82.9401 53.4491 83.2358 53.4289 83.5349 53.3241C83.8376 53.2222 84.0706 53.0471 84.2346 52.8053C84.5178 52.3849 84.4471 51.9556 84.0187 51.5146C83.5658 52.1548 83.1015 52.78 82.6422 53.3918Z"
            fill="url(#paint15_linear_1396_35171)" />
        <path
            d="M85.4568 53.2157C85.9545 52.5122 86.1252 51.868 85.9683 51.3059C85.9397 51.1957 85.8948 51.0842 85.8436 50.9733C85.632 50.5015 85.2363 50.005 84.6721 49.4788C84.6806 49.4682 84.692 49.4539 84.6941 49.444C84.7545 49.3465 84.8127 49.259 84.873 49.1616C85.3265 48.4404 85.7687 47.7043 86.1924 46.9475C86.4911 47.1861 86.6989 47.4219 86.8228 47.6606C86.7064 47.8356 86.6256 48.0098 86.5738 48.184C86.6473 48.4349 86.8202 48.6487 87.0919 48.819C87.2107 48.8964 87.3565 48.9546 87.5193 48.9914C87.7369 49.0544 87.9501 49.0208 88.1525 48.8621C88.3521 48.707 88.6219 48.3982 88.9506 47.9209C89.4532 47.2039 89.7442 46.7374 89.8172 46.5219C89.7942 46.2589 89.5921 46.016 89.2124 45.806C88.9713 45.6775 88.7444 45.6187 88.5227 45.6339C88.3251 45.6916 88.1035 45.8525 87.8521 46.1235C87.6619 45.6979 87.4341 45.3705 87.1908 45.1354L87.9558 43.7542C87.5825 43.6309 87.345 43.5927 87.2541 43.6483L86.4887 44.6214C85.7904 44.2851 84.9914 44.3228 84.0969 44.721C83.2364 45.1057 82.5525 45.7361 82.0195 46.6152C82.0081 46.6294 82.0003 46.6465 81.9953 46.66C81.764 47.0519 81.6143 47.4217 81.5464 47.7694C81.4764 48.127 81.4881 48.4625 81.5864 48.7624C81.6827 49.0722 81.8059 49.3337 81.9511 49.5603C82.1027 49.7862 82.2992 50.0362 82.5489 50.2997C82.4127 50.5287 82.2466 50.8097 82.0514 51.1489C81.8314 51.5266 81.5738 51.9732 81.2878 52.4846C81.0729 52.2431 80.9262 51.9454 80.8377 51.5893C80.9555 51.3689 81.0364 51.1946 81.0732 51.061C80.8575 50.7257 80.6874 50.5083 80.5494 50.4039C80.4747 50.3443 80.2771 50.2855 79.9607 50.2076C79.6787 50.4076 79.4138 50.7028 79.1796 51.0983C78.8737 51.6054 78.6879 52.0569 78.6257 52.4558C78.6365 52.6392 78.7647 52.8288 78.998 53.0326C79.2164 53.2187 79.402 53.3145 79.5456 53.3243C79.6572 53.2794 79.7765 53.1591 79.9007 52.9671C79.9821 53.3758 80.1588 53.7381 80.4341 54.057L79.7217 55.3578C79.9265 55.5097 80.088 55.592 80.1889 55.5969L81.0239 54.5221C81.7024 54.9707 82.4503 55.0844 83.2782 54.8427C84.1374 54.5909 84.8669 54.0493 85.4526 53.2064L85.4568 53.2157ZM83.4137 48.4216C83.193 48.0706 83.2289 47.6683 83.5142 47.2088C83.9592 46.4982 84.5077 46.2198 85.159 46.3962C84.481 47.3401 83.9784 48.0571 83.6462 48.5607L83.6235 48.5891C83.6235 48.5891 83.6051 48.6268 83.5909 48.6446C83.5211 48.5715 83.4642 48.4969 83.413 48.4152L83.4137 48.4216ZM83.0398 52.9748C82.7434 53.076 82.4449 53.0998 82.1534 53.0418C82.4942 52.5858 82.8307 52.1206 83.1693 51.6454C83.2836 51.4804 83.4015 51.3182 83.5193 51.1561C83.7022 51.3428 83.8239 51.5332 83.8681 51.7258C83.9437 51.9667 83.8935 52.212 83.7323 52.4503C83.5719 52.695 83.3389 52.8701 83.0398 52.9748Z"
            fill="url(#paint16_linear_1396_35171)" />
        <g style="mix-blend-mode:soft-light">
            <path
                d="M88.1528 48.8624C87.9532 49.0176 87.7371 49.0547 87.5195 48.9917C87.3539 48.9584 87.2081 48.9003 87.0921 48.8193C86.8204 48.649 86.6475 48.4352 86.5741 48.1843C86.6265 48.0165 86.7067 47.8359 86.8231 47.6609C86.6992 47.4222 86.4914 47.1864 86.1926 46.9478C85.7689 47.7046 85.3239 48.4442 84.8732 49.1619C84.4395 48.9903 84.0256 48.7938 83.6536 48.5667C83.9858 48.0631 84.4856 47.3496 85.1664 46.4022C84.5144 46.2194 83.9694 46.5007 83.5215 47.2148C83.2327 47.6714 83.2003 48.0766 83.421 48.4275C82.6998 47.9449 82.1604 47.3511 82.0027 46.666C82.014 46.6518 82.0218 46.6347 82.0268 46.6212C82.5598 45.7421 83.2473 45.1145 84.1042 44.727C84.9988 44.3288 85.7949 44.2947 86.4961 44.6274L87.2615 43.6542C87.3524 43.5987 87.5899 43.6369 87.9632 43.7602L87.1982 45.1414C87.4408 45.37 87.6657 45.7011 87.8595 46.1295C88.1108 45.8585 88.3289 45.6948 88.53 45.6398C88.7546 45.6212 88.9815 45.6799 89.2197 45.8119C89.5995 46.022 89.8016 46.2649 89.8246 46.5279C89.7516 46.7433 89.457 47.2071 88.958 47.9269C88.6293 48.4042 88.3566 48.7165 88.1599 48.8681L88.1528 48.8624Z"
                fill="white" />
        </g>
        <g style="mix-blend-mode:multiply" opacity="0.2">
            <path
                d="M84.8542 51.5988C84.5337 51.6866 84.1982 51.7274 83.8712 51.7284C83.8242 51.5394 83.7024 51.349 83.5224 51.1587C83.4081 51.3237 83.2903 51.4859 83.1724 51.648C82.7643 51.561 82.3796 51.3936 82.0574 51.1479C82.2497 50.8122 82.4186 50.5278 82.5549 50.2987C82.3079 50.0317 82.1087 49.7852 81.9571 49.5593C81.809 49.3363 81.6858 49.0748 81.5924 48.7614C81.494 48.4615 81.4823 48.126 81.5523 47.7684C81.6203 47.4207 81.7699 47.051 82.0013 46.6591C82.0126 46.6448 82.0204 46.6278 82.0254 46.6143C82.0254 46.6143 81.7926 47.0516 83.4161 48.4178C83.4872 48.4746 83.5583 48.5314 83.6295 48.5882C83.9887 48.875 84.3586 49.1704 84.693 49.4373C84.688 49.4508 84.6766 49.4651 84.671 49.4722C85.238 49.9948 85.6337 50.4913 85.8424 50.9667C85.773 51.2141 85.4696 51.4262 84.8535 51.5924L84.8542 51.5988Z"
                fill="#7F6593" />
        </g>
        <path
            d="M80.8409 51.5921C80.9105 51.4613 81.291 52.4874 81.291 52.4874C81.291 52.4874 80.66 51.9719 80.8409 51.5921Z"
            fill="white" />
        <path
            d="M89.034 45.7224C88.7345 45.5357 88.2663 47.3111 88.3905 47.8413C88.514 48.365 89.7466 46.8797 89.8131 46.5192C89.8796 46.1588 89.0304 45.7195 89.0304 45.7195L89.034 45.7224Z"
            fill="white" />
        <g style="mix-blend-mode:soft-light">
            <path
                d="M87.7005 43.6791C87.2534 43.6482 87.4441 44.5985 87.4441 44.5985C87.4441 44.5985 87.9772 43.8651 87.8946 43.7351C87.8121 43.6051 87.7005 43.6791 87.7005 43.6791Z"
                fill="white" />
        </g>
        <path
            d="M94.1674 51.7604C94.6903 50.646 93.3144 52.4422 92.756 53.5573C92.2111 54.6482 92.5408 54.4979 92.5408 54.4979C92.5408 54.4979 94.0169 52.7003 94.1674 51.7604Z"
            fill="white" />
        <g style="mix-blend-mode:soft-light" opacity="0.5">
            <path
                d="M79.4509 59.8539C78.3533 58.96 80.8679 60.0999 81.5446 60.186C82.2286 60.2778 83.183 61.599 83.183 61.599C83.183 61.599 81.423 61.5566 79.4509 59.8539Z"
                fill="white" />
        </g>
        <path
            d="M89.0748 57.7816C88.591 57.2787 86.5778 58.6476 86.5726 59.2667C86.5704 59.8823 88.1359 59.3733 88.5558 59.1319C88.982 58.8898 89.0748 57.7816 89.0748 57.7816Z"
            fill="#63495F" />
        <g style="mix-blend-mode:multiply" opacity="0.5">
            <path
                d="M87.8042 58.0078C86.9085 58.7137 88.2285 58.7018 88.4716 58.7038C88.7176 58.7021 88.7029 59.0049 88.7029 59.0049C88.7029 59.0049 89.2522 58.0398 89.0743 57.7812C88.8963 57.5227 87.8014 58.0113 87.8014 58.0113L87.8042 58.0078Z"
                fill="#5B3952" />
        </g>
        <path
            d="M81.384 13.8965C84.026 16.5513 84.5244 20.2304 82.7786 22.3908C82.6849 22.5067 82.5867 22.619 82.4833 22.7197C82.373 22.8333 82.2575 22.9352 82.1375 23.0336C80.2662 24.5692 77.0651 24.54 74.3159 22.6426C71.2299 20.5098 69.7517 16.7981 71.0014 14.0341C71.158 13.6852 71.3593 13.354 71.6062 13.0486C73.716 10.4379 77.9804 10.8252 80.9826 13.5131C80.9826 13.5131 80.9826 13.5131 80.9893 13.5185C81.1261 13.6365 81.258 13.7652 81.3858 13.8943L81.384 13.8965Z"
            fill="url(#paint17_linear_1396_35171)" />
        <path
            d="M81.6437 23.7952C81.6437 23.7952 83.0007 22.5221 83.3469 21.4825L72.6408 12.1744C72.6408 12.1744 71.8468 12.3361 70.034 14.9988L81.6437 23.7952Z"
            fill="url(#paint18_linear_1396_35171)" />
        <path
            d="M80.1146 15.4681C82.5489 17.7597 83.247 20.8816 82.1383 23.0334C82.0035 23.3005 81.8371 23.5566 81.6443 23.7952C80.466 25.2532 78.4476 25.8444 76.3189 25.4914C76.2796 25.4854 76.2424 25.4812 76.2134 25.4761C76.1387 25.4637 76.0948 25.4541 76.0948 25.4541C75.0854 25.2575 74.0457 24.8521 73.0483 24.2119C69.4609 21.9062 67.9549 17.5675 70.1656 14.832C70.4106 14.5288 70.6922 14.2625 71.0022 14.0339C73.4424 12.232 77.3836 12.8961 80.1146 15.4681Z"
            fill="url(#paint19_linear_1396_35171)" />
        <path
            d="M78.5933 17.3499C80.3763 18.9014 80.8535 21.1703 79.8306 22.6139C79.7972 22.6643 79.7598 22.7152 79.7201 22.7642C78.5562 24.2044 76.0912 24.3315 74.0638 22.9547C71.8646 21.4576 71.0331 18.788 72.3862 17.1137C72.4312 17.058 72.478 17 72.532 16.9515C73.9384 15.4529 76.6623 15.6714 78.5955 17.3517L78.5933 17.3499Z"
            fill="url(#paint20_linear_1396_35171)" />
        <path
            d="M78.5933 17.3498C80.3763 18.9013 80.8535 21.1702 79.8306 22.6138C78.632 23.9191 76.2666 23.9866 74.316 22.6425C72.2026 21.1851 71.3633 18.6346 72.5298 16.9496C73.9361 15.451 76.66 15.6695 78.5933 17.3498Z"
            fill="url(#paint21_linear_1396_35171)" />
        <g style="mix-blend-mode:multiply" opacity="0.5">
            <path
                d="M72.4543 21.3034C72.4543 21.3034 72.8686 21.3471 72.8155 21.1347C72.7602 20.9204 71.6842 19.2511 72.7999 17.5102C73.9242 15.7542 76.7563 16.2629 76.7563 16.2629C76.7563 16.2629 73.7409 15.2376 72.34 17.1718C70.9422 19.0974 72.4543 21.3034 72.4543 21.3034Z"
                fill="#7E527C" />
        </g>
        <g style="mix-blend-mode:soft-light">
            <path
                d="M70.8543 21.9194C71.6162 22.5683 72.1263 21.6132 72.1829 21.4747C72.2374 21.3344 71.2988 19.5771 71.7418 17.7976C72.1945 15.9742 74.2901 15.6887 75.1942 15.7191C76.08 15.7495 76.0763 13.7932 75.6887 13.3288C75.2921 12.8572 71.0367 12.9194 69.7038 15.9369C68.4058 18.8792 70.8543 21.9194 70.8543 21.9194Z"
                fill="white" />
        </g>
        <g style="mix-blend-mode:multiply" opacity="0.2">
            <path
                d="M71.2662 22.3079C71.0012 22.6723 72.722 23.9451 73.4552 24.3238C74.167 24.6926 74.474 23.802 74.3649 23.5037C74.2536 23.2037 72.5428 21.7179 72.4252 21.5897C72.3095 21.4593 72.155 21.7325 71.8576 22.0413C71.5584 22.3523 71.3303 22.2196 71.2662 22.3079Z"
                fill="#7F6593" />
        </g>
        <g style="mix-blend-mode:multiply" opacity="0.2">
            <path
                d="M75.8838 15.5136C75.8035 15.832 77.3908 16.4809 78.3758 16.9083C79.3287 17.3209 78.9891 15.6387 79.3125 15.3435C79.6336 15.0464 76.7249 13.3555 76.3168 13.409C75.9047 13.4629 76.316 14.573 75.886 15.5154L75.8838 15.5136Z"
                fill="#7F6593" />
        </g>
        <g style="mix-blend-mode:soft-light">
            <path
                d="M79.7605 24.9859C78.2027 24.9616 79.8936 23.5124 80.2885 22.0478C80.6921 20.5496 80.3016 19.4822 80.2817 18.987C80.2631 18.4855 81.8022 18.3141 82.1073 18.7118C82.4058 19.1041 83.677 23.0172 79.7587 24.9881L79.7605 24.9859Z"
                fill="#B6BDC9" />
        </g>
        <g style="mix-blend-mode:multiply" opacity="0.5">
            <path
                d="M74.2496 12.7561C74.1145 12.9233 74.6094 12.7852 75.6852 12.9544C76.732 13.1185 77.7714 13.5789 78.076 13.5486C78.3783 13.5166 78.9974 12.2626 78.9974 12.2626C78.9974 12.2626 76.9602 10.9663 75.0995 11.4491C74.7207 11.5484 74.2492 12.7521 74.2492 12.7521L74.2496 12.7561Z"
                fill="#6E5066" />
        </g>
        <g style="mix-blend-mode:multiply" opacity="0.5">
            <path
                d="M82.7746 20.9829C82.8138 21.3721 83.5574 20.3699 83.6056 20.2282C83.6556 20.0843 83.9985 18.187 83.4228 17.0842C82.8219 15.9352 81.9538 16.9548 81.7948 17.1469C81.6358 17.3391 82.2784 18.3817 82.5357 19.6732C82.782 20.9189 82.7746 20.9829 82.7746 20.9829Z"
                fill="#6E5066" />
        </g>
        <g style="mix-blend-mode:soft-light">
            <path
                d="M78.1417 13.8001C78.0092 13.9731 79.4181 14.7653 80.4023 15.5312C81.3487 16.2665 82.0782 14.6706 81.9848 14.5582C81.8913 14.4458 80.8046 13.4054 80.2295 12.9997C79.6415 12.5871 79.3243 12.0949 78.9686 12.5261C78.6128 12.9572 78.1435 13.7978 78.1435 13.7978L78.1417 13.8001Z"
                fill="white" />
        </g>
        <path
            d="M77.5475 23.8937C76.7615 23.5939 77.7047 23.877 78.8768 23.3022C80.0239 22.7402 80.5164 21.2734 80.3298 20.3413C80.3298 20.3413 80.6161 21.5787 79.8036 22.6617C78.8824 23.8927 77.5475 23.8937 77.5475 23.8937Z"
            fill="#EBF0FF" />
        <g style="mix-blend-mode:soft-light">
            <path
                d="M70.0382 15.3043C69.3861 16.2663 71.3822 17.9052 71.9726 17.2067C72.5629 16.5081 73.2006 15.833 75.0554 15.7177C76.8337 15.6106 75.7083 13.4186 75.3357 13.1728C74.9565 12.9215 71.6993 12.5374 70.0382 15.3043Z"
                fill="white" />
        </g>
        <path
            d="M78.0592 25.5717C76.175 25.6596 76.9509 24.2891 77.1818 24.1219C77.4127 23.9547 78.6042 24.0036 79.6327 22.9589C80.6577 21.9186 81.4705 23.7585 81.1576 24.2096C80.8469 24.6624 79.3247 25.5109 78.057 25.5699L78.0592 25.5717Z"
            fill="white" />
        <path
            d="M71.3681 13.8767C71.0495 14.3121 72.952 14.8766 73.8738 14.7665C74.7778 14.6604 74.7377 13.2644 74.4623 13.0898C74.1847 12.9134 72.3059 13.2636 71.3681 13.8767Z"
            fill="white" />
        <path
            d="M78.3517 25.1331C77.8139 25.0007 79.1615 24.5234 79.2765 24.8006C79.3911 25.0738 78.8793 25.2647 78.3517 25.1331Z"
            fill="white" />
        <g style="mix-blend-mode:soft-light">
            <path
                d="M79.0546 17.1991C79.0145 17.5315 79.8412 18.1959 80.4475 20.1454C81.02 21.9863 82.2134 21.4582 82.3835 21.275C82.5536 21.0919 82.7451 19.2086 81.3593 17.193C80.1877 15.487 79.6757 15.6371 79.4953 15.7235C79.3153 15.8139 79.0865 16.9226 79.0546 17.1991Z"
                fill="white" />
        </g>
        <g style="mix-blend-mode:soft-light">
            <path
                d="M71.864 13.2636C71.3703 13.8745 73.3091 12.9758 73.9898 12.6671C74.6624 12.3593 74.6806 11.3973 74.6806 11.3973C74.6806 11.3973 73.1563 11.2859 71.8662 13.2654L71.864 13.2636Z"
                fill="white" />
        </g>
        <g style="mix-blend-mode:soft-light">
            <path
                d="M73.8945 22.8317C73.5107 22.5953 72.9822 21.8218 72.9376 21.6899C72.8931 21.5581 74.8166 22.7624 75.0902 23.0942C75.3572 23.4205 74.1234 22.9726 73.8967 22.8335L73.8945 22.8317Z"
                fill="white" />
        </g>
        <path
            d="M74.3994 13.0273C74.3994 13.0273 78.1678 13.0433 81.2142 16.7619C81.2142 16.7619 78.647 12.6419 74.3994 13.0273Z"
            fill="#EED6DD" />
        <g style="mix-blend-mode:multiply" opacity="0.8">
            <path
                d="M81.2156 24.2527C81.2156 24.2527 81.8849 23.7027 82.3814 22.9651C82.8779 22.2276 82.6234 20.1939 82.6234 20.1939C82.6234 20.1939 83.0855 22.3584 81.2133 24.2509L81.2156 24.2527Z"
                fill="#7E527C" />
        </g>
        <g style="mix-blend-mode:multiply" opacity="0.8">
            <path
                d="M81.6437 23.7952C80.4654 25.2532 78.4471 25.8445 76.3184 25.4915C77.1214 25.606 79.3509 25.7567 81.6437 23.7952Z"
                fill="#7E527C" />
        </g>
        <g style="mix-blend-mode:multiply" opacity="0.5">
            <path
                d="M76.2109 25.4785C76.2463 25.485 76.2834 25.4892 76.3165 25.4938C76.2771 25.4878 76.24 25.4836 76.2109 25.4785Z"
                fill="#BD2A4C" />
        </g>
        <g style="mix-blend-mode:multiply" opacity="0.8">
            <path
                d="M81.3847 13.8963C84.0267 16.5511 84.5251 20.2303 82.7793 22.3906C82.6856 22.5066 82.5874 22.6189 82.484 22.7195C83.7854 20.7124 83.674 18.7022 83.4759 17.4881C83.2399 16.0517 81.1244 13.6712 80.9881 13.5206C81.125 13.6385 81.2569 13.7672 81.3847 13.8963Z"
                fill="#7E527C" />
        </g>
        <g style="mix-blend-mode:multiply" opacity="0.8">
            <path
                d="M70.7371 22.105C70.7371 22.105 69.5 20.5119 69.3906 18.5403C69.2768 16.4876 70.7525 14.1052 70.7525 14.1052L71.5185 13.0843C71.5185 13.0843 70.2635 14.5872 69.9831 15.0572C69.7028 15.5272 67.847 18.2842 70.7371 22.105Z"
                fill="#7E527C" />
        </g>
        <path
            d="M77.1929 22.6632C76.9466 22.512 76.7616 22.3441 76.6385 22.1635C76.6865 21.9628 76.7283 21.8381 76.7643 21.7935C76.8328 21.7088 76.9699 21.5984 77.1841 21.4656C77.2663 21.4915 77.3757 21.5431 77.5119 21.6163C77.7347 21.5641 77.9245 21.4706 78.0796 21.338C77.4756 20.9863 77.0168 20.7149 76.7115 20.5272C76.5406 20.6839 76.3865 20.8063 76.2436 20.9009C76.1026 20.9934 75.9352 21.0682 75.742 21.1295C75.5506 21.1885 75.3415 21.1964 75.1143 21.1492C74.8893 21.1037 74.6481 21.0009 74.3906 20.8407C73.8407 20.4996 73.4476 20.0603 73.2104 19.5147C72.9669 18.9494 72.9457 18.4421 73.1623 18.0054L72.3682 17.4557C72.3331 17.3942 72.6252 17.0738 72.6252 17.0738L73.4886 17.5651C73.6335 17.4132 73.841 17.275 74.1093 17.1528C73.9418 16.9953 73.8391 16.8533 73.8052 16.7264C73.7965 16.5867 73.8321 16.4423 73.9162 16.2927C74.0498 16.0543 74.1958 16.047 74.3656 16.0331C74.4974 16.0843 74.7956 16.1485 75.2413 16.4681C75.5411 16.6809 75.7345 16.8519 75.8297 16.9804C75.9248 17.1089 75.9492 17.2429 75.9047 17.3801C75.8831 17.4843 75.8456 17.5719 75.7968 17.6504C75.6867 17.8231 75.5532 17.929 75.395 17.9743C75.2873 17.9389 75.1797 17.8851 75.0699 17.8111C74.9191 17.8883 74.768 18.0205 74.6185 18.2055C75.1635 18.5207 75.6915 18.8479 76.2002 19.1852C76.6138 18.7419 77.0006 18.4685 77.3534 18.374C77.7102 18.279 78.1116 18.3934 78.5506 18.7076C79.0756 19.084 79.4122 19.5476 79.5635 20.0901C79.7109 20.6146 79.6369 21.0892 79.3519 21.5148L80.0221 22.0491C80.0169 22.1149 79.8546 22.4297 79.7563 22.5604L79.055 21.8867C78.8532 22.059 78.6266 22.1707 78.3689 22.2204C78.4894 22.2994 78.5624 22.3732 78.5903 22.4436C78.5858 22.5358 78.5226 22.6505 78.4028 22.7896C78.2758 22.9376 78.1555 23.0135 78.0381 23.0219C77.7868 22.9773 77.5049 22.8563 77.1867 22.6618L77.1929 22.6632ZM74.7739 19.9012C75.1216 20.1232 75.418 20.1121 75.6789 19.8622C75.3607 19.6494 74.8973 19.3153 74.2719 18.8579C74.1584 19.2674 74.3277 19.6143 74.7739 19.9012ZM78.4279 20.7976C78.4651 20.6102 78.4534 20.4239 78.3886 20.2351C78.3255 20.0441 78.2161 19.8967 78.0644 19.7926C77.8007 19.6126 77.5301 19.6556 77.2508 19.9237C77.6523 20.2113 78.0443 20.506 78.4279 20.7976Z"
            fill="url(#paint22_linear_1396_35171)" />
        <path
            d="M78.3272 19.025C77.886 18.709 77.481 18.5992 77.1264 18.6959C77.0569 18.7134 76.9865 18.7413 76.9165 18.7732C76.6186 18.9047 76.3044 19.152 75.971 19.5054C75.9643 19.5 75.9554 19.4928 75.9491 19.4914C75.888 19.453 75.8331 19.4161 75.7719 19.3777C75.3194 19.0894 74.8575 18.8082 74.3825 18.5386C74.5338 18.3513 74.6831 18.2214 74.8339 18.1442C74.9437 18.2182 75.0531 18.2697 75.1626 18.303C75.3209 18.2576 75.4561 18.1495 75.5644 17.979C75.6136 17.9045 75.6507 17.8129 75.6745 17.7105C75.7151 17.5738 75.6947 17.4394 75.5955 17.3113C75.4985 17.185 75.3051 17.0139 75.0057 16.8052C74.556 16.486 74.2633 16.301 74.1279 16.2542C73.9622 16.2677 73.8084 16.3941 73.6748 16.6325C73.593 16.7839 73.5551 16.9265 73.5638 17.0662C73.5995 17.1908 73.6999 17.331 73.8697 17.4903C73.601 17.6085 73.3939 17.7507 73.245 17.9031L72.378 17.4162C72.2989 17.6509 72.274 17.8003 72.3087 17.8577L72.9187 18.3433C72.7043 18.7819 72.7251 19.2852 72.9726 19.85C73.2116 20.3933 73.6061 20.8264 74.1577 21.1653C74.1667 21.1725 74.1774 21.1775 74.1859 21.1807C74.4318 21.3278 74.6641 21.4234 74.8828 21.4675C75.1078 21.5129 75.3191 21.5068 75.5083 21.446C75.7038 21.3865 75.8689 21.3099 76.0122 21.2193C76.155 21.1246 76.3132 21.0018 76.4801 20.8455C76.6238 20.9322 76.8001 21.0378 77.013 21.162C77.25 21.3019 77.5304 21.4658 77.8513 21.6478C77.6985 21.7823 77.5104 21.8736 77.2859 21.928C77.1475 21.853 77.038 21.8014 76.954 21.7777C76.742 21.9123 76.6045 22.0186 76.5383 22.1051C76.5005 22.1519 76.4627 22.2762 76.4125 22.4752C76.5374 22.6535 76.7223 22.8214 76.9705 22.9704C77.2887 23.1649 77.5724 23.2836 77.8233 23.3242C77.9389 23.3181 78.0588 23.2381 78.188 23.0919C78.306 22.955 78.367 22.8385 78.3737 22.7481C78.3458 22.6777 78.2705 22.6021 78.1501 22.5232C78.4077 22.4734 78.6366 22.3635 78.8384 22.1913L79.655 22.6448C79.7514 22.5163 79.8039 22.4149 79.8073 22.3514L79.1335 21.8216C79.4185 21.3959 79.4929 20.9253 79.3437 20.4031C79.1884 19.8611 78.85 19.3996 78.3214 19.0277L78.3272 19.025ZM75.3005 20.294C75.0787 20.4317 74.8254 20.4076 74.5371 20.2262C74.0913 19.9433 73.9179 19.5968 74.0314 19.1873C74.6234 19.6178 75.073 19.937 75.3889 20.148L75.4068 20.1625C75.4068 20.1625 75.4305 20.1742 75.4416 20.1832C75.3953 20.2269 75.3481 20.2624 75.2965 20.2944L75.3005 20.294ZM78.1666 20.5463C78.2292 20.7333 78.243 20.9214 78.2054 21.1048C77.9195 20.8885 77.6278 20.6748 77.3298 20.4598C77.2263 20.3872 77.1246 20.3124 77.0229 20.2376C77.1413 20.1231 77.2616 20.0472 77.3831 20.02C77.535 19.9733 77.6893 20.0059 77.8388 20.1082C77.9923 20.2102 78.1017 20.3575 78.1666 20.5463Z"
            fill="url(#paint23_linear_1396_35171)" />
        <g style="mix-blend-mode:soft-light">
            <path
                d="M75.5955 17.3114C75.6925 17.4377 75.7151 17.5739 75.6746 17.7107C75.653 17.8149 75.6159 17.9064 75.5645 17.9792C75.4562 18.1496 75.3209 18.2577 75.1627 18.3031C75.0572 18.2694 74.9437 18.2183 74.834 18.1443C74.6832 18.2215 74.5339 18.3514 74.3826 18.5387C74.8575 18.8083 75.3217 19.0913 75.772 19.3778C75.6623 19.6503 75.537 19.9103 75.3926 20.1437C75.0767 19.9326 74.6293 19.6152 74.0351 19.183C73.9176 19.5929 74.0927 19.9371 74.5408 20.2218C74.8273 20.4055 75.0823 20.4273 75.3042 20.2896C74.9975 20.7421 74.6216 21.0795 74.1895 21.1763C74.1806 21.1691 74.1699 21.1641 74.1614 21.161C73.6098 20.822 73.2171 20.3868 72.9762 19.8457C72.7288 19.2808 72.7102 18.7794 72.9224 18.339L72.3123 17.8534C72.2777 17.7959 72.3026 17.6465 72.3817 17.4119L73.2486 17.8988C73.3935 17.7468 73.6029 17.6064 73.8734 17.486C73.7036 17.3267 73.6013 17.1887 73.5675 17.0619C73.5566 16.9203 73.5944 16.7777 73.6784 16.6282C73.8121 16.3898 73.9658 16.2634 74.1315 16.2499C74.267 16.2967 74.5579 16.4839 75.0094 16.8008C75.3087 17.0096 75.5044 17.1825 75.5992 17.3069L75.5955 17.3114Z"
                fill="white" />
        </g>
        <g style="mix-blend-mode:multiply" opacity="0.2">
            <path
                d="M77.3068 19.3981C77.3609 19.6003 77.3853 19.8117 77.3848 20.0176C77.2655 20.0466 77.1452 20.1225 77.0247 20.2352C77.1282 20.3078 77.2299 20.3826 77.3316 20.4574C77.2752 20.7141 77.1684 20.9558 77.0125 21.1578C76.8018 21.0354 76.6233 20.928 76.4795 20.8413C76.3104 20.9958 76.1545 21.1204 76.0117 21.2151C75.8706 21.3075 75.7055 21.3841 75.5078 21.4418C75.3186 21.5026 75.1073 21.5087 74.8823 21.4633C74.6636 21.4193 74.4313 21.3236 74.1854 21.1765C74.1764 21.1693 74.1657 21.1643 74.1572 21.1611C74.1572 21.1611 74.4318 21.3093 75.2982 20.292C75.3342 20.2474 75.3702 20.2029 75.4063 20.1583C75.5882 19.9331 75.7756 19.7012 75.945 19.4917C75.9535 19.4948 75.9624 19.502 75.9668 19.5056C76.2981 19.1505 76.6122 18.9031 76.9124 18.7735C77.0679 18.8181 77.2004 19.0099 77.3028 19.3985L77.3068 19.3981Z"
                fill="#7F6593" />
        </g>
        <path
            d="M77.2884 21.9255C77.2062 21.8812 77.8538 21.6453 77.8538 21.6453C77.8538 21.6453 77.5268 22.0408 77.2884 21.9255Z"
            fill="white" />
        <path
            d="M73.622 16.7441C73.5033 16.932 74.6196 17.2334 74.954 17.1572C75.2843 17.0813 74.3534 16.2996 74.1267 16.2564C73.8999 16.2132 73.6202 16.7463 73.6202 16.7463L73.622 16.7441Z"
            fill="white" />
        <g style="mix-blend-mode:soft-light">
            <path
                d="M72.3294 17.5762C72.3083 17.8577 72.9074 17.7411 72.9074 17.7411C72.9074 17.7411 72.4476 17.4027 72.3654 17.4542C72.2832 17.5057 72.3294 17.5762 72.3294 17.5762Z"
                fill="white" />
        </g>
        <path
            d="M77.4431 13.5341C76.7432 13.2007 77.8693 14.0739 78.5695 14.4297C79.2545 14.7769 79.1611 14.5687 79.1611 14.5687C79.1611 14.5687 78.0344 13.6324 77.4431 13.5341Z"
            fill="white" />
        <g style="mix-blend-mode:soft-light" opacity="0.5">
            <path
                d="M82.4855 22.8314C81.9185 23.5193 82.6457 21.94 82.7024 21.514C82.7628 21.0837 83.5984 20.4875 83.5984 20.4875C83.5984 20.4875 83.5652 21.5958 82.4855 22.8314Z"
                fill="white" />
        </g>
        <path
            d="M81.2162 16.7637C80.8978 17.0665 81.7523 18.3394 82.1422 18.3449C82.5299 18.3486 82.2151 17.3609 82.0647 17.0956C81.9138 16.8262 81.2162 16.7637 81.2162 16.7637Z"
            fill="#63495F" />
        <path
            d="M82.6251 20.1953C82.3872 20.4122 82.4053 19.4686 82.4735 19.3431C82.5418 19.2177 82.7479 19.4506 82.8479 19.6825C82.9475 19.9104 82.7146 20.1165 82.6251 20.1953Z"
            fill="#63495F" />
        <path
            d="M82.4529 20.0447C82.5304 20.2179 82.7147 20.1494 82.8283 19.9131C82.8617 19.8443 82.8579 19.7123 82.8579 19.7123C82.8579 19.7123 82.9022 20.0724 82.7589 20.2772C82.6155 20.482 82.4759 20.2807 82.4529 20.0447Z"
            fill="#A89AA6" />
        <path
            d="M81.6336 17.9752C81.6336 17.9752 81.7269 18.0285 81.9542 17.8658C82.2575 17.6501 82.0778 17.1291 82.0778 17.1291C82.0778 17.1291 82.5002 17.9016 82.3656 18.3235C82.2328 18.7432 81.7879 18.181 81.6336 17.9752Z"
            fill="#A89AA6" />
        <g style="mix-blend-mode:multiply" opacity="0.5">
            <path
                d="M81.3535 17.5642C81.7948 18.1309 81.7922 17.2995 81.7943 17.1464C81.7942 16.9916 81.9848 17.0019 81.9848 17.0019C81.9848 17.0019 81.3791 16.6524 81.2156 16.7635C81.0521 16.8746 81.3557 17.566 81.3557 17.566L81.3535 17.5642Z"
                fill="#5B3952" />
        </g>
        <g style="mix-blend-mode:multiply" opacity="0.5">
            <path
                d="M82.4281 19.7376C82.564 19.9617 82.7764 19.8311 82.801 19.6593C82.8255 19.4875 82.4903 19.2867 82.4699 19.3439C82.4535 19.4006 82.4241 19.738 82.4241 19.738L82.4281 19.7376Z"
                fill="#5B3952" />
        </g>
        <path
            d="M82.3907 18.1924C82.3035 18.3505 82.3203 18.0287 82.3039 17.8164C82.2893 17.6019 82.43 18.0252 82.3907 18.1924Z"
            fill="white" />
        <path
            d="M82.7684 20.2557C82.737 20.2671 82.8079 19.9559 82.855 19.9387C82.9093 20.0083 82.7684 20.2557 82.7684 20.2557Z"
            fill="white" />
    </g>
    <defs>
        <filter id="filter0_f_1396_35171" x="-31" y="-64" width="454" height="390"
            filterUnits="userSpaceOnUse" color-interpolation-filters="sRGB">
            <feFlood flood-opacity="0" result="BackgroundImageFix" />
            <feBlend mode="normal" in="SourceGraphic" in2="BackgroundImageFix" result="shape" />
            <feGaussianBlur stdDeviation="50" result="effect1_foregroundBlur_1396_35171" />
        </filter>
        <linearGradient id="paint0_linear_1396_35171" x1="2.36843" y1="-1.94703e-05" x2="81.3723"
            y2="23.9301" gradientUnits="userSpaceOnUse">
            <stop stop-color="white" stop-opacity="0.5" />
            <stop offset="1" stop-color="white" stop-opacity="0" />
        </linearGradient>
        <linearGradient id="paint1_linear_1396_35171" x1="2.36843" y1="-1.94703e-05" x2="81.3723"
            y2="23.9301" gradientUnits="userSpaceOnUse">
            <stop stop-color="white" stop-opacity="0.5" />
            <stop offset="1" stop-color="white" stop-opacity="0" />
        </linearGradient>
        <linearGradient id="paint2_linear_1396_35171" x1="108.068" y1="70.4579" x2="137.707"
            y2="59.0043" gradientUnits="userSpaceOnUse">
            <stop stop-color="#A71100" />
            <stop offset="0.39" stop-color="#D83303" />
            <stop offset="1" stop-color="#EC5C11" />
        </linearGradient>
        <linearGradient id="paint3_linear_1396_35171" x1="121.529" y1="62.7108" x2="108.133"
            y2="28.0425" gradientUnits="userSpaceOnUse">
            <stop stop-color="#E8E5ED" />
            <stop offset="0.05" stop-color="#E5DDE9" />
            <stop offset="0.28" stop-color="#DABBDC" />
            <stop offset="0.46" stop-color="#D3A6D4" />
            <stop offset="0.59" stop-color="#D19FD1" />
            <stop offset="0.64" stop-color="#BE91C3" />
            <stop offset="0.72" stop-color="#A47FB0" />
            <stop offset="0.81" stop-color="#9272A2" />
            <stop offset="0.9" stop-color="#876A9A" />
            <stop offset="1" stop-color="#846898" />
        </linearGradient>
        <linearGradient id="paint4_linear_1396_35171" x1="87.2497" y1="33.2271" x2="128.088"
            y2="17.4461" gradientUnits="userSpaceOnUse">
            <stop stop-color="#A71100" />
            <stop offset="0.39" stop-color="#D83303" />
            <stop offset="1" stop-color="#EC5C11" />
        </linearGradient>
        <radialGradient id="paint5_radial_1396_35171" cx="0" cy="0" r="1"
            gradientUnits="userSpaceOnUse"
            gradientTransform="translate(116.261 47.6188) rotate(-21.128) scale(14.6873 23.2059)">
            <stop stop-color="#E8E5ED" />
            <stop offset="0.14" stop-color="#E2DCE3" />
            <stop offset="0.42" stop-color="#DAD1D4" />
            <stop offset="0.66" stop-color="#D8CDD0" />
            <stop offset="0.68" stop-color="#D4C5CE" />
            <stop offset="0.75" stop-color="#C7ABC8" />
            <stop offset="0.83" stop-color="#BE99C5" />
            <stop offset="0.91" stop-color="#B88EC2" />
            <stop offset="1" stop-color="#B78BC2" />
        </radialGradient>
        <linearGradient id="paint6_linear_1396_35171" x1="118.586" y1="50.9973" x2="111.996"
            y2="33.9421" gradientUnits="userSpaceOnUse">
            <stop stop-color="#FFA900" />
            <stop offset="1" stop-color="#FF9600" />
        </linearGradient>
        <linearGradient id="paint7_linear_1396_35171" x1="102.1" y1="40.6117" x2="123.288"
            y2="32.424" gradientUnits="userSpaceOnUse">
            <stop stop-color="#FFB100" />
            <stop offset="1" stop-color="#FFC500" />
        </linearGradient>
        <linearGradient id="paint8_linear_1396_35171" x1="121.51" y1="61.5043" x2="117.953"
            y2="52.3006" gradientUnits="userSpaceOnUse">
            <stop stop-color="#FF9600" />
            <stop offset="1" stop-color="#FFA900" />
        </linearGradient>
        <linearGradient id="paint9_linear_1396_35171" x1="101.145" y1="40.5533" x2="109.833"
            y2="37.1959" gradientUnits="userSpaceOnUse">
            <stop offset="0.02" stop-color="#008DFE" />
            <stop offset="1" />
        </linearGradient>
        <linearGradient id="paint10_linear_1396_35171" x1="80.3073" y1="60.4384" x2="94.7346"
            y2="42.3697" gradientUnits="userSpaceOnUse">
            <stop stop-color="#728EE3" />
            <stop offset="0.3" stop-color="#836888" />
            <stop offset="0.57" stop-color="#E1D9E0" />
            <stop offset="0.85" stop-color="#937D9A" />
            <stop offset="1" stop-color="#6D636A" />
        </linearGradient>
        <linearGradient id="paint11_linear_1396_35171" x1="79.6451" y1="60.0787" x2="94.2257"
            y2="41.8179" gradientUnits="userSpaceOnUse">
            <stop stop-color="#728EE3" />
            <stop offset="0.3" stop-color="#836888" />
            <stop offset="0.57" stop-color="#E1D9E0" />
            <stop offset="0.85" stop-color="#937D9A" />
            <stop offset="1" stop-color="#6D636A" />
        </linearGradient>
        <linearGradient id="paint12_linear_1396_35171" x1="81.3608" y1="60.132" x2="88.6146"
            y2="38.5954" gradientUnits="userSpaceOnUse">
            <stop stop-color="#DECDD1" />
            <stop offset="0.15" stop-color="#DBC9CD" />
            <stop offset="0.28" stop-color="#D2BEC4" />
            <stop offset="0.4" stop-color="#C5ACB4" />
            <stop offset="0.53" stop-color="#B1929E" />
            <stop offset="0.63" stop-color="#9B7584" />
            <stop offset="0.7" stop-color="#AE959A" />
            <stop offset="1" stop-color="#DDD4EA" />
        </linearGradient>
        <linearGradient id="paint13_linear_1396_35171" x1="81.6821" y1="56.4688" x2="86.2983"
            y2="42.751" gradientUnits="userSpaceOnUse">
            <stop stop-color="#FFF1DE" />
            <stop offset="0.21" stop-color="#A690A5" />
            <stop offset="1" stop-color="#5C475E" />
        </linearGradient>
        <linearGradient id="paint14_linear_1396_35171" x1="79.6584" y1="55.5466" x2="88.8117"
            y2="44.0829" gradientUnits="userSpaceOnUse">
            <stop stop-color="#957A84" />
            <stop offset="0.99" stop-color="#655167" />
        </linearGradient>
        <linearGradient id="paint15_linear_1396_35171" x1="80.3465" y1="55.8717" x2="88.5241"
            y2="44.1172" gradientUnits="userSpaceOnUse">
            <stop stop-color="#774854" />
            <stop offset="1" stop-color="#40314B" />
        </linearGradient>
        <linearGradient id="paint16_linear_1396_35171" x1="79.8691" y1="55.467" x2="87.9947"
            y2="43.7872" gradientUnits="userSpaceOnUse">
            <stop stop-color="#DECDD1" />
            <stop offset="0.63" stop-color="#9B7584" />
            <stop offset="0.7" stop-color="#AE959A" />
            <stop offset="1" stop-color="#DDD4EA" />
        </linearGradient>
        <linearGradient id="paint17_linear_1396_35171" x1="82.8561" y1="22.2949" x2="71.5305"
            y2="13.1422" gradientUnits="userSpaceOnUse">
            <stop stop-color="#728EE3" />
            <stop offset="0.3" stop-color="#836888" />
            <stop offset="0.57" stop-color="#E1D9E0" />
            <stop offset="0.85" stop-color="#937D9A" />
            <stop offset="1" stop-color="#6D636A" />
        </linearGradient>
        <linearGradient id="paint18_linear_1396_35171" x1="82.6273" y1="22.7105" x2="71.1813"
            y2="13.4605" gradientUnits="userSpaceOnUse">
            <stop stop-color="#728EE3" />
            <stop offset="0.3" stop-color="#836888" />
            <stop offset="0.57" stop-color="#E1D9E0" />
            <stop offset="0.85" stop-color="#937D9A" />
            <stop offset="1" stop-color="#6D636A" />
        </linearGradient>
        <linearGradient id="paint19_linear_1396_35171" x1="82.6681" y1="21.6299" x2="69.132"
            y2="16.9819" gradientUnits="userSpaceOnUse">
            <stop stop-color="#DECDD1" />
            <stop offset="0.15" stop-color="#DBC9CD" />
            <stop offset="0.28" stop-color="#D2BEC4" />
            <stop offset="0.4" stop-color="#C5ACB4" />
            <stop offset="0.53" stop-color="#B1929E" />
            <stop offset="0.63" stop-color="#9B7584" />
            <stop offset="0.7" stop-color="#AE959A" />
            <stop offset="1" stop-color="#DDD4EA" />
        </linearGradient>
        <linearGradient id="paint20_linear_1396_35171" x1="80.3616" y1="21.4141" x2="71.7398"
            y2="18.4562" gradientUnits="userSpaceOnUse">
            <stop stop-color="#FFF1DE" />
            <stop offset="0.21" stop-color="#A690A5" />
            <stop offset="1" stop-color="#5C475E" />
        </linearGradient>
        <linearGradient id="paint21_linear_1396_35171" x1="79.7729" y1="22.6851" x2="72.5874"
            y2="16.8782" gradientUnits="userSpaceOnUse">
            <stop stop-color="#957A84" />
            <stop offset="0.99" stop-color="#655167" />
        </linearGradient>
        <linearGradient id="paint22_linear_1396_35171" x1="79.9811" y1="22.2525" x2="72.6089"
            y2="17.059" gradientUnits="userSpaceOnUse">
            <stop stop-color="#774854" />
            <stop offset="1" stop-color="#40314B" />
        </linearGradient>
        <linearGradient id="paint23_linear_1396_35171" x1="79.7243" y1="22.5523" x2="72.3989"
            y2="17.3919" gradientUnits="userSpaceOnUse">
            <stop stop-color="#DECDD1" />
            <stop offset="0.63" stop-color="#9B7584" />
            <stop offset="0.7" stop-color="#AE959A" />
            <stop offset="1" stop-color="#DDD4EA" />
        </linearGradient>
    </defs>
</svg>
    