<svg width="22" height="22" viewBox="0 0 22 22" fill="none" xmlns="http://www.w3.org/2000/svg">
    <g clip-path="url(#clip0_1396_36760)">
        <path
            d="M22.0003 15.6312C21.9487 12.7609 21.6097 9.85835 21.0537 6.92874C20.6008 4.89331 18.9714 3.08046 16.368 2.94769C14.446 2.86863 14.0743 3.96347 11.8966 3.94242C11.3002 3.93855 10.7042 3.93855 10.1078 3.94242C7.92975 3.96347 7.55721 2.86863 5.63607 2.94769C3.03217 3.08046 1.35209 4.88859 0.948613 6.92874C0.392168 9.85835 0.0531447 12.7605 0.00201186 15.6308C-0.0104491 17.6293 1.96268 18.9587 3.26463 19.0498C5.77959 19.2397 7.77764 14.8049 9.30002 14.8045C10.4348 14.8109 11.5692 14.8114 12.704 14.8045C14.2268 14.8045 16.2231 19.2402 18.7398 19.0502C20.0413 18.9591 22.0656 17.6207 22.0007 15.6312H22.0003ZM8.20475 10.0307H7.0317V11.2037C7.0317 11.6987 6.63037 12.1 6.13537 12.1C5.64037 12.1 5.23904 11.6987 5.23904 11.2037V10.0307H4.066C3.571 10.0307 3.16967 9.62933 3.16967 9.13433C3.16967 8.63933 3.571 8.238 4.066 8.238H5.23904V7.06495C5.23904 6.56995 5.64037 6.16863 6.13537 6.16863C6.63037 6.16863 7.0317 6.56995 7.0317 7.06495V8.238H8.20475C8.69975 8.238 9.10107 8.63933 9.10107 9.13433C9.10107 9.62933 8.69975 10.0307 8.20475 10.0307ZM15.448 12.0996C14.7463 12.1185 14.1628 11.5642 14.1439 10.863C14.1254 10.1591 14.6801 9.57476 15.3814 9.55671C16.0835 9.5391 16.6679 10.093 16.6859 10.7951C16.7035 11.4972 16.1497 12.0816 15.448 12.0996ZM17.5642 8.71152C16.8625 8.73128 16.2777 8.17656 16.2584 7.47488C16.2408 6.77191 16.7946 6.18839 17.4967 6.16906C18.1997 6.15058 18.7832 6.70531 18.8021 7.40742C18.8206 8.1091 18.2654 8.6939 17.5642 8.71152Z"
            fill="#4E556F" />
    </g>
    <defs>
        <clipPath id="clip0_1396_36760">
            <rect width="22" height="22" fill="white" />
        </clipPath>
    </defs>
</svg>
    