<svg width="32" height="36" viewBox="0 0 32 36" fill="none" xmlns="http://www.w3.org/2000/svg">
    <path
        d="M30.3257 24.5211C29.6651 27.9156 28.9679 30.7719 28.5703 31.1266C27.5734 32.0196 17.2431 35.1328 15.6957 35.1144C14.1483 35.1022 5.02902 32.3438 3.97703 31.1266C3.84859 30.9799 3.56113 29.8606 3.21862 28.2153V28.2092C2.06877 22.7352 0.227793 11.4508 1.2125 10.833C2.49691 10.0318 13.4694 7.55476 17.0902 7.50583C20.7171 7.45078 31.3532 11.3285 31.9281 12.3315C32.2706 12.937 31.341 19.3407 30.3318 24.515L30.3257 24.5211Z"
        fill="url(#paint0_linear_1396_52979)" />
    <g style="mix-blend-mode:soft-light" opacity="0.5">
        <path
            d="M1.21911 10.8331C-0.49343 11.7444 12.4362 15.9768 15.0356 15.9768C17.635 15.9768 31.5372 12.6129 31.9286 12.3377C32.32 12.0625 20.6442 7.48141 16.846 7.51199C13.054 7.54257 1.73287 10.5579 1.21911 10.8331Z"
            fill="white" />
    </g>
    <g style="mix-blend-mode:multiply" opacity="0.3">
        <path
            d="M15.7014 35.1145C14.1845 34.9249 14.5943 17.4203 15.0347 16.6864C15.4751 15.9524 30.7595 12.8393 31.3772 12.98C31.995 13.1206 29.1142 30.2399 28.576 31.1206C28.0378 32.0014 16.3986 35.194 15.7014 35.1084V35.1145Z"
            fill="#912790" />
    </g>
    <g style="mix-blend-mode:multiply" opacity="0.74">
        <path
            d="M30.3258 24.5211C29.6653 27.9095 28.968 30.7719 28.5705 31.1266C27.5735 32.0196 17.2432 35.1327 15.6958 35.1144C14.1484 35.1022 5.02915 32.3438 3.97716 31.1266C3.84872 30.9798 3.56126 29.8606 3.21875 28.2153C3.32273 28.3743 3.81202 30.6985 5.30438 31.4814C5.94046 31.8178 13.0475 34.3805 15.5123 34.3315C17.9833 34.2887 26.864 32.6496 28.1484 30.6251C29.4084 28.6496 30.2891 24.674 30.3197 24.5211H30.3258Z"
            fill="#CA2790" />
    </g>
    <g style="mix-blend-mode:multiply" opacity="0.5">
        <path
            d="M15.7015 35.1145C15.1388 33.9585 20.3376 25.3041 21.622 24.5273C22.9064 23.7444 25.6098 22.8209 26.4661 23.3897C27.3223 23.9585 28.57 31.1328 28.57 31.1328C28.57 31.1328 27.3407 24.1298 26.7474 23.3224L31.9278 12.4906C31.9278 12.4906 26.8697 22.4661 26.6557 22.8209C26.4416 23.1756 24.2214 23.0716 21.1205 24.246L15.2306 16.5518C15.2306 16.5518 15.0899 16.5028 15.0287 16.6924C14.9737 16.882 20.3132 23.1022 20.3315 24.5273C20.3498 25.9524 15.4385 33.2246 15.2245 33.8668C15.0104 34.509 15.6893 35.1206 15.6893 35.1206L15.7015 35.1145Z"
            fill="#CA2790" />
    </g>
    <path
        d="M21.1142 24.9983C20.9307 25.6466 26.0316 23.7751 26.4659 23.3897C26.9001 22.9983 22.8084 23.1879 21.1142 24.9983Z"
        fill="#6D8EFF" />
    <g style="mix-blend-mode:multiply" opacity="0.2">
        <path
            d="M16.778 33.7199C16.778 33.7199 20.1786 26.0257 21.6954 25.3591C23.2122 24.6924 26.2092 23.83 26.778 24.0502C27.3468 24.2704 28.4905 30.515 28.3009 31.0594C28.1113 31.6037 20.674 34.2398 18.3987 34.5273C16.1174 34.8147 16.7841 33.7199 16.7841 33.7199H16.778Z"
            fill="#912790" />
    </g>
    <path
        d="M6.03809 13.5792C6.03809 13.5792 13.1818 16.4415 14.4662 16.5822C15.7506 16.7229 29.9769 13.2 30.8516 12.8085C31.7262 12.4171 31.8424 12.3743 31.8424 12.3743C31.8424 12.3743 17.7751 15.8116 15.2124 15.5853C10.8148 15.2 6.03809 13.5792 6.03809 13.5792Z"
        fill="#92BDFF" />
    <path
        d="M13.1514 16.1113C14.1422 16.2887 14.5275 29.1144 14.6315 29.5364C14.7355 29.9646 14.2645 18.9187 15.0352 16.6863L13.1514 16.1052V16.1113Z"
        fill="#92BDFF" />
    <path
        d="M13.3955 16.3132C11.8359 15.3836 18.2518 15.5304 18.4414 15.6955C18.631 15.8606 14.5025 17.2918 13.3955 16.3132Z"
        fill="#D6E6FF" />
    <g style="mix-blend-mode:multiply" opacity="0.2">
        <path
            d="M1.39627 12.9798C1.60422 11.7321 10.9681 16.0562 12.5767 19.1327C14.1853 22.2092 14.3749 32.148 14.0935 33.2856C13.8122 34.4232 5.56141 32.2275 4.33206 29.9339C3.1027 27.6403 1.01095 15.3162 1.39627 12.9798Z"
            fill="#C68EC5" />
    </g>
    <path
        d="M11.5065 34.1419C11.5065 34.1419 10.7542 34.4661 10.2955 34.3988C9.83679 34.3315 7.34137 33.8789 7.09061 33.6037C6.83984 33.3285 3.19458 13.8911 3.73893 12.6924C4.28327 11.4936 14.4362 10.0318 15.0417 10.2092C15.6472 10.3865 16.7848 11.0287 16.7848 11.0287C16.7848 11.0287 9.41477 13.3774 8.5952 14.093C7.77563 14.8086 10.4484 33.6893 10.4851 33.83C10.5218 33.9707 11.5187 34.148 11.5187 34.148L11.5065 34.1419Z"
        fill="url(#paint1_linear_1396_52979)" />
    <path
        d="M19.6589 34.2704C19.6589 34.2704 20.8087 34.5396 21.1084 34.5762C21.4081 34.6129 24.7904 33.5793 25.2185 33.2918C25.6466 33.0044 27.3531 14.8025 27.2124 13.6955C27.0717 12.5885 17.0533 10.2093 16.6803 10.1909C16.3072 10.1726 15.2735 10.3866 14.7781 10.7781C14.2827 11.1695 21.5488 13.8056 22.0442 14.8392C22.5457 15.8729 21.2797 33.7077 21.1023 33.8362C20.9249 33.9585 19.6527 34.2766 19.6527 34.2766L19.6589 34.2704Z"
        fill="url(#paint2_linear_1396_52979)" />
    <path
        d="M15.4019 11.304C14.2826 10.986 7.51198 9.10217 7.51198 9.10217L5.50586 9.52419C5.50586 9.52419 5.79944 8.63734 6.03185 8.52725C6.26427 8.42327 11.1817 7.31012 12.0747 7.51196C12.9676 7.70768 17.6343 10.882 17.6343 10.882L15.4019 11.304Z"
        fill="url(#paint3_linear_1396_52979)" />
    <path
        d="M27.2238 10.0869C27.2238 10.0869 27.2177 9.65872 27.0709 9.40184C26.9241 9.14496 22.6183 7.92783 22.1901 7.89114C21.762 7.85444 15.0342 10.4232 15.0342 10.4232C15.0342 10.4232 16.1412 10.9125 16.9057 11.0226C17.6703 11.1327 26.0067 9.67095 26.184 9.67095C26.3614 9.67095 27.2238 10.0869 27.2238 10.0869Z"
        fill="url(#paint4_linear_1396_52979)" />
    <g style="mix-blend-mode:multiply" opacity="0.74">
        <path
            d="M22.2891 34.2521C22.2891 34.2521 22.76 15.7261 23.3472 15.145C23.9343 14.5579 26.4236 14.4294 26.7722 14.4784C27.1209 14.5273 25.3655 32.7414 25.1148 33.0961C24.864 33.4508 22.2891 34.2521 22.2891 34.2521Z"
            fill="#CA2790" />
    </g>
    <g style="mix-blend-mode:multiply" opacity="0.74">
        <path
            d="M11.5066 34.1419C11.5066 34.1419 10.3629 34.411 10.0326 34.356C9.70235 34.3009 7.34761 15.1083 7.53721 14.0502C7.72682 12.992 15.5923 11.4141 15.5923 11.4141C15.5923 11.4141 21.4761 13.8667 21.9959 14.2948C22.5158 14.7229 22.155 16.9798 22.155 16.9798C22.155 16.9798 21.9348 15.1205 21.5005 14.6924C21.0663 14.2642 17.629 12.4661 15.9654 12.5394C14.9501 12.5823 13.9898 14.2642 12.5525 14.778C11.6351 15.1083 9.37208 14.0746 9.04792 14.6067C8.21611 15.9829 10.6137 33.7994 10.8033 33.9401C10.9929 34.0807 11.4944 34.148 11.4944 34.148L11.5066 34.1419Z"
            fill="#CA2790" />
    </g>
    <g style="mix-blend-mode:soft-light">
        <path
            d="M4.02695 12.4845C3.78842 13.0533 6.61411 13.6037 7.23184 13.5548C7.84958 13.5059 14.5958 11.5731 14.7609 11.304C14.926 11.0349 12.0086 10.6068 11.1156 10.6313C10.2227 10.6557 4.83429 11.9218 4.02695 12.4845Z"
            fill="white" />
    </g>
    <g style="mix-blend-mode:multiply" opacity="0.74">
        <path
            d="M16.8517 12.0134C16.8517 12.0134 22.4236 12.5578 25.916 12.0929C29.4083 11.622 27.5307 10.1908 27.5307 10.1908L15.9404 11.5914L16.8579 12.0195L16.8517 12.0134Z"
            fill="#CA2790" />
    </g>
    <path opacity="0.5"
        d="M3.73912 12.6863C3.43331 12.723 5.79416 13.5854 6.39967 13.726C7.00517 13.8667 7.07857 14.0441 7.48835 13.7933C7.89814 13.5426 4.04493 12.6435 3.73912 12.6802V12.6863Z"
        fill="white" />
    <path opacity="0.5"
        d="M23.0473 14.6925C21.9403 14.5151 25.7874 13.8056 26.503 13.7506C27.2186 13.6956 25.5978 15.1023 23.0473 14.6925Z"
        fill="white" />
    <g style="mix-blend-mode:multiply" opacity="0.4">
        <path
            d="M4.01461 13.8056C4.10636 13.1634 7.09719 14.4845 7.34183 14.8759C7.58648 15.2613 8.62624 26.9555 8.47945 27.5915C8.33878 28.2337 5.93511 28.0441 5.85559 27.5915C5.76997 27.1389 3.92899 14.4111 4.01461 13.8056Z"
            fill="#C68EC5" />
    </g>
    <g style="mix-blend-mode:multiply" opacity="0.74">
        <path
            d="M19.6582 34.2704C19.6582 34.2704 20.5084 33.7689 20.7224 33.4325C20.9365 33.1022 22.1658 16.9738 22.1658 16.9738C22.1658 16.9738 21.5175 33.0777 21.2423 33.8117C20.9671 34.5517 19.6582 34.2704 19.6582 34.2704Z"
            fill="#CA2790" />
    </g>
    <path
        d="M17.3836 11.31C17.3836 11.31 17.3774 11.31 17.3713 11.31C17.3713 11.31 17.2857 11.31 17.1817 11.3467C17.1389 11.3589 17.0778 11.3834 17.0166 11.4079C15.7383 11.9216 11.4692 14.1296 10.7291 14.2641C10.5518 14.3008 10.1664 14.2397 9.65879 14.1235C7.7016 13.6892 3.9646 12.4109 3.68937 12.099C3.34074 11.7015 0.37438 4.12958 4.01353 3.23661C6.28264 2.68004 9.40803 5.38341 11.8117 7.4568C13.2612 8.71063 14.4539 9.73815 15.0411 9.68922C15.0411 9.68922 15.9279 10.2825 16.6129 10.7473C16.723 10.8207 16.8331 10.9002 16.931 10.9675C17.0716 11.0593 17.194 11.151 17.2735 11.206C17.3469 11.2611 17.3897 11.2978 17.3897 11.31H17.3836Z"
        fill="url(#paint5_linear_1396_52979)" />
    <g style="mix-blend-mode:multiply" opacity="0.5">
        <path
            d="M10.6743 13.8056C9.41435 14.2949 8.58255 7.7505 8.82108 6.69851C9.05961 5.64653 13.2186 10.9921 15.7997 11.0288C18.3807 11.0655 10.9495 13.7016 10.6743 13.8056Z"
            fill="#912790" />
    </g>
    <g style="mix-blend-mode:multiply" opacity="0.74">
        <path
            d="M17.3838 11.0288L17.2675 11.2122L17.2431 11.2489L17.1819 11.3468L17.0168 11.408C15.7385 11.9217 11.4694 14.1297 10.7293 14.2642C10.5519 14.3009 10.1666 14.2398 9.65898 14.1236C8.74155 12.2581 6.66815 4.32539 9.5183 6.12356C10.2156 6.56393 11.0045 7.01653 11.8119 7.45689C13.2614 8.71072 14.4541 9.73824 15.0412 9.68931C15.0412 9.68931 15.9281 10.2826 16.6131 10.7474C16.2156 10.3254 15.9954 9.86668 15.9526 9.77494C16.5275 10.1297 16.974 10.4538 17.2064 10.7168C17.3165 10.8392 17.3776 10.9431 17.396 11.0349L17.3838 11.0288Z"
            fill="#CA2790" />
    </g>
    <path
        d="M26.9251 10.5456C26.1667 11.3345 18.3074 11.7137 17.3472 11.4141C17.2738 11.3896 17.2004 11.359 17.1331 11.3223C17.1331 11.3223 17.127 11.3223 17.1209 11.3223C17.0842 11.304 17.0536 11.2856 17.0169 11.2673C16.919 11.2061 16.8273 11.1327 16.7355 11.0654C16.6438 10.9798 16.5643 10.8942 16.4909 10.8085C16.1606 10.4232 15.9771 9.98898 15.9465 9.90947C15.9465 9.89723 15.9404 9.89723 15.9404 9.89723C16.6438 9.885 19.3961 2.12964 20.3258 1.31619C21.2065 0.551662 27.1637 0.826891 29.5674 1.97674C29.8303 2.09906 30.0383 2.2275 30.1912 2.37429C31.7998 3.86665 27.7141 9.74433 26.9251 10.5578V10.5456Z"
        fill="url(#paint6_linear_1396_52979)" />
    <g style="mix-blend-mode:multiply" opacity="0.5">
        <path
            d="M17.3594 10.9248C17.3594 10.9248 20.1423 10.1847 22.4786 8.9982C25.971 7.2245 27.653 3.56701 29.1147 3.40187C30.6316 3.23061 28.3441 9.5242 25.5612 10.3805C23.023 11.1633 17.3594 10.9248 17.3594 10.9248Z"
            fill="#912790" />
    </g>
    <g style="mix-blend-mode:multiply" opacity="0.74">
        <path
            d="M26.925 10.5456C26.1666 11.3346 18.3072 11.7138 17.347 11.4141C17.2736 11.3897 17.2002 11.3591 17.1329 11.3224C17.1329 11.3224 17.1268 11.3224 17.1207 11.3224C17.1207 11.3224 17.0473 11.3224 16.9617 11.3591L16.8516 11.5426L16.821 11.4203L16.7354 11.0655C16.7354 11.0655 16.7415 11.0288 16.7537 11.0105C16.7843 10.9249 16.8638 10.8453 16.9861 10.7658C17.9158 10.1359 21.4265 9.40191 23.6895 7.23066C26.6375 4.39274 27.61 2.24595 29.5672 1.9646C29.8302 2.08692 30.0381 2.21536 30.191 2.36215C31.7996 3.85451 27.714 9.73219 26.925 10.5456Z"
            fill="#CA2790" />
    </g>
    <path
        d="M14.6309 9.59771C14.6309 9.59771 16.8021 9.04113 18.0804 9.59771C19.3587 10.1543 19.0773 11.1145 18.9367 11.5365C18.796 11.9586 16.2333 11.7445 16.2333 11.7445C16.2333 11.7445 16.3862 11.2552 16.1721 10.558C15.9581 9.86682 14.6309 9.59771 14.6309 9.59771Z"
        fill="url(#paint7_linear_1396_52979)" />
    <path opacity="0.3"
        d="M15.0342 9.51193C15.0342 9.51193 16.4226 10.2031 16.6366 10.3682C16.8507 10.5272 18.5816 10.1541 18.6305 10.0685C18.6794 9.98287 17.7008 9.40795 16.7773 9.40183C15.8538 9.39572 15.0342 9.51804 15.0342 9.51804V9.51193Z"
        fill="white" />
    <g style="mix-blend-mode:multiply" opacity="0.74">
        <path
            d="M16.7539 9.47526C16.7539 9.47526 18.1912 6.39268 19.3716 4.07464C20.6499 1.56088 25.2616 2.69238 25.1698 4.68015C25.0781 6.60064 19.5857 9.51195 18.7478 9.64039C17.9343 9.76272 16.7539 9.47526 16.7539 9.47526Z"
            fill="#CA2790" />
    </g>
    <g style="mix-blend-mode:multiply" opacity="0.74">
        <path
            d="M8.49116 13.6281C9.43917 13.6281 7.15782 6.40483 5.2618 5.16936C3.35965 3.93388 2.69299 5.01645 2.46057 5.85437C2.22815 6.6923 3.56149 11.8177 4.00797 12.2825C4.46057 12.7535 8.49116 13.622 8.49116 13.622V13.6281Z"
            fill="#CA2790" />
    </g>
    <g style="mix-blend-mode:multiply" opacity="0.74">
        <path
            d="M17.6285 9.63419C17.6285 9.63419 19.0353 9.32838 19.7692 8.42929C20.5276 7.49351 20.1178 4.5455 19.5674 4.65559C19.023 4.76568 16.7539 9.47517 16.7539 9.47517L17.6346 9.62807L17.6285 9.63419Z"
            fill="#CA2790" />
    </g>
    <path opacity="0.3"
        d="M2.79116 4.03176C2.50369 4.55775 6.00217 4.59445 6.82174 5.73207C7.64131 6.86968 8.12449 5.85439 8.78504 5.73207C9.4456 5.60974 6.38137 3.56081 4.72388 3.52411C3.06639 3.48742 2.79727 4.03176 2.79727 4.03176H2.79116Z"
        fill="white" />
    <path opacity="0.3"
        d="M19.7993 2.38655C19.524 2.83915 22.6494 1.9156 24.203 2.68624C25.8054 3.47523 27.2611 2.80245 27.8666 2.19694C28.4904 1.57309 21.1387 0.203059 19.7993 2.38655Z"
        fill="white" />
    <g style="mix-blend-mode:multiply" opacity="0.74">
        <path
            d="M25.0961 7.10834C23.6649 8.564 25.934 10.1848 26.3377 10.0747C26.7475 9.95849 29.6955 6.42332 29.3652 4.41721C29.0288 2.36827 27.72 4.44167 25.0961 7.10834Z"
            fill="#CA2790" />
    </g>
    <g style="mix-blend-mode:multiply" opacity="0.74">
        <path
            d="M9.10868 10.4049C9.23101 10.9614 14.6867 11.1021 15.0353 11.0287C15.3778 10.9492 12.65 9.76267 11.0842 8.12353C9.51847 6.48438 8.96189 6.45992 8.82734 6.69845C8.68667 6.93698 9.01694 9.98285 9.1148 10.4049H9.10868Z"
            fill="#CA2790" />
    </g>
    <path
        d="M1.62205 19.1511C1.62205 19.1511 0.906448 13.6526 1.35293 12.2826C1.79942 10.9126 2.30094 10.4049 2.30094 10.4049C2.30094 10.4049 1.35905 10.5578 1.06547 10.8575C0.771892 11.1572 0.771892 12.9554 1.62816 19.1511H1.62205Z"
        fill="#92BDFF" />
    <path
        d="M1.05957 11.0776C1.08404 11.518 1.49994 11.6036 1.59168 11.5119C1.68342 11.4201 2.0137 10.625 2.0137 10.625C2.0137 10.625 1.04122 10.6739 1.06569 11.0776H1.05957Z"
        fill="#D6E6FF" />
    <defs>
        <linearGradient id="paint0_linear_1396_52979" x1="16.4663" y1="35.1144" x2="16.4663"
            y2="7.50583" gradientUnits="userSpaceOnUse">
            <stop stop-color="#517EFF" />
            <stop offset="1" stop-color="#6BA2FF" />
        </linearGradient>
        <linearGradient id="paint1_linear_1396_52979" x1="10.2282" y1="34.4049" x2="10.2282"
            y2="10.1908" gradientUnits="userSpaceOnUse">
            <stop stop-color="#A90086" />
            <stop offset="1" stop-color="#FF003B" />
        </linearGradient>
        <linearGradient id="paint2_linear_1396_52979" x1="20.9922" y1="34.5762" x2="20.9922"
            y2="10.1909" gradientUnits="userSpaceOnUse">
            <stop stop-color="#A90086" />
            <stop offset="1" stop-color="#FF003B" />
        </linearGradient>
        <linearGradient id="paint3_linear_1396_52979" x1="11.5731" y1="11.304" x2="11.5731"
            y2="7.48749" gradientUnits="userSpaceOnUse">
            <stop stop-color="#E82E86" />
            <stop offset="1" stop-color="#FF003B" />
        </linearGradient>
        <linearGradient id="paint4_linear_1396_52979" x1="21.132" y1="11.0288" x2="21.132"
            y2="7.89114" gradientUnits="userSpaceOnUse">
            <stop stop-color="#E82E86" />
            <stop offset="1" stop-color="#FF003B" />
        </linearGradient>
        <linearGradient id="paint5_linear_1396_52979" x1="9.79946" y1="14.2703" x2="9.79946"
            y2="3.1571" gradientUnits="userSpaceOnUse">
            <stop stop-color="#A90086" />
            <stop offset="1" stop-color="#FF003B" />
        </linearGradient>
        <linearGradient id="paint6_linear_1396_52979" x1="23.2493" y1="11.518" x2="23.2493"
            y2="0.875821" gradientUnits="userSpaceOnUse">
            <stop stop-color="#A90086" />
            <stop offset="1" stop-color="#FF003B" />
        </linearGradient>
        <linearGradient id="paint7_linear_1396_52979" x1="16.851" y1="11.7995" x2="16.851"
            y2="9.34694" gradientUnits="userSpaceOnUse">
            <stop stop-color="#A90086" />
            <stop offset="1" stop-color="#FF003B" />
        </linearGradient>
    </defs>
</svg>
    