<svg width="20" height="20" viewBox="0 0 20 20" fill="none" xmlns="http://www.w3.org/2000/svg">
<g id="Frame" clip-path="url(#clip0_1396_37601)">
<g id="Group">
<g id="layer1">
<g id="Group_2">
<path id="Vector" d="M19.1 11.157C18.5508 16.2174 15.0876 19.887 11.3127 19.887C11.1102 19.887 10.9076 19.8793 10.7128 19.8559C10.4986 19.8364 10.2921 19.8013 10.0856 19.7585C6.86397 19.0923 4.16043 15.6837 3.81761 11.157C3.43584 6.07326 6.09654 1.34011 10.0856 0.299983C10.5882 0.167533 11.1102 0.0974121 11.6439 0.0974121C16.2056 0.0974121 19.439 4.93574 19.1624 10.4052C19.1624 10.4052 19.1624 10.4052 19.1624 10.4169C19.1546 10.6623 19.1312 10.9116 19.1039 11.157H19.1Z" fill="url(#paint0_linear_1396_37601)"/>
<path id="Vector_2" d="M8.85963 19.887C8.85963 19.887 11.3645 20.2337 12.7591 19.7117L13.4525 0.444078C13.4525 0.444078 12.6033 -0.25713 8.24023 0.101265L8.85963 19.887Z" fill="url(#paint1_linear_1396_37601)"/>
<path id="Vector_3" d="M16.355 11.157C16.0122 15.6876 13.3086 19.0923 10.0869 19.7585C9.6896 19.8442 9.27666 19.887 8.85983 19.887C6.31211 19.887 3.96307 18.2587 2.5178 15.7071C2.49053 15.6603 2.46326 15.6175 2.44378 15.5824C2.39314 15.4928 2.36587 15.4383 2.36587 15.4383C1.71141 14.2034 1.25173 12.7581 1.07643 11.157C0.449236 5.39542 3.74881 0.0974121 8.52871 0.0974121C9.05851 0.0974121 9.58052 0.167533 10.0869 0.299983C14.076 1.34011 16.7406 6.07326 16.355 11.157Z" fill="url(#paint2_linear_1396_37601)"/>
<path id="Vector_4" d="M13.0673 11.157C12.9504 14.367 10.9598 16.8096 8.56011 16.9615C8.4783 16.9693 8.3926 16.9732 8.3069 16.9732C5.79034 16.9732 3.55037 14.4761 3.27378 11.157C2.97772 7.55362 5.08913 4.39429 8.01473 4.39429C8.11212 4.39429 8.2134 4.39429 8.31079 4.40987C11.0961 4.61634 13.192 7.68217 13.0673 11.1609V11.157Z" fill="url(#paint3_linear_1396_37601)"/>
<path id="Vector_5" d="M13.0668 11.1571C12.95 14.367 10.9593 16.8096 8.55963 16.9615C6.15604 16.8096 4.06411 14.367 3.81868 11.1571C3.55378 7.67831 5.53275 4.61247 8.31031 4.40601C11.0957 4.61247 13.1915 7.67831 13.0668 11.1571Z" fill="url(#paint4_linear_1396_37601)"/>
<g id="Vector_6" style="mix-blend-mode:multiply" opacity="0.5">
<path d="M3.64453 8.04437C3.64453 8.04437 3.95228 8.51963 4.13148 8.282C4.31068 8.04047 5.15602 5.47717 7.94917 5.16941C10.7657 4.85777 12.6473 8.28589 12.6473 8.28589C12.6473 8.28589 11.1552 4.22278 7.91411 4.39419C4.68466 4.5617 3.64453 8.04437 3.64453 8.04437Z" fill="#D42F55"/>
</g>
<g id="Vector_7" style="mix-blend-mode:soft-light">
<path d="M1.62563 6.87962C1.59057 8.23918 3.03583 7.96259 3.23061 7.90416C3.42539 7.84183 4.4811 5.34865 6.74055 4.29684C9.05453 3.21776 11.1465 5.18893 11.8866 6.17062C12.6112 7.12894 14.6759 5.45772 14.8356 4.65134C14.9953 3.82936 11.2945 -0.615513 6.96649 0.553167C2.74756 1.69458 1.62563 6.87962 1.62563 6.87962Z" fill="white"/>
</g>
<g id="Vector_8" style="mix-blend-mode:multiply" opacity="0.2">
<path d="M1.5678 7.6471C0.956196 7.67826 1.08085 10.5844 1.3068 11.6829C1.52495 12.7503 2.72869 12.314 2.95074 11.9439C3.17279 11.57 3.28187 8.49244 3.31693 8.25871C3.35588 8.02497 2.93516 8.09509 2.35472 8.04445C1.77038 7.99381 1.71584 7.63931 1.5678 7.6471Z" fill="#DA0553"/>
</g>
<g id="Vector_9" style="mix-blend-mode:multiply" opacity="0.2">
<path d="M12.6941 6.7238C12.2889 6.91079 12.959 9.14296 13.3485 10.5493C13.7264 11.9088 15.2145 10.113 15.8028 10.2026C16.391 10.2883 15.6937 5.76938 15.2885 5.38371C14.8795 4.99415 14.0575 6.37709 12.6941 6.72769V6.7238Z" fill="#DA0553"/>
</g>
<g id="Vector_10" style="mix-blend-mode:soft-light">
<path d="M5.99265 18.913C4.68762 17.2457 7.66386 17.795 9.54933 16.9613C11.4777 16.1082 12.2724 14.7837 12.7788 14.3396C13.293 13.8916 14.7889 15.3719 14.6292 16.0342C14.4695 16.6847 11.4192 21.3712 5.98875 18.913H5.99265Z" fill="#FF973B"/>
</g>
<g id="Vector_11" style="mix-blend-mode:multiply" opacity="0.3">
<path d="M11.8524 0.553122C11.5602 0.553122 14.4936 3.0463 15.2299 4.32796C15.9506 5.57455 16.3518 7.06656 16.644 7.36263C16.9362 7.6548 18.7905 7.23797 18.7905 7.23797C18.7905 7.23797 18.4087 4.44872 16.6518 2.5165C14.8131 0.498584 11.8524 0.553122 11.8524 0.553122Z" fill="#B30053"/>
</g>
<g id="Vector_12" style="mix-blend-mode:multiply" opacity="0.3">
<path d="M12.797 18.6794C12.4191 19.0534 14.1137 18.9832 14.3045 18.9131C14.4993 18.843 16.7977 17.5847 17.4717 16.0343C18.1729 14.4176 16.3536 14.3708 16.0147 14.367C15.6758 14.3631 15.1226 15.933 13.9773 17.3081C12.871 18.6326 12.797 18.6794 12.797 18.6794Z" fill="#B30053"/>
</g>
<g id="Vector_13" style="mix-blend-mode:soft-light">
<path d="M16.4332 7.64708C16.1371 7.65487 16.5033 9.82082 16.5345 11.5154C16.5657 13.1438 18.8757 12.5516 18.9147 12.3569C18.9537 12.1621 19.1251 10.1247 19.0627 9.17025C18.9965 8.19636 19.2458 7.44061 18.4862 7.43282C17.7265 7.42503 16.4371 7.64708 16.4371 7.64708H16.4332Z" fill="white"/>
</g>
<path id="Vector_14" d="M5.25589 15.6407C4.90139 14.5538 5.40782 15.7926 7.0167 16.5406C8.59053 17.273 10.5617 16.5406 11.3876 15.5472C11.3876 15.5472 10.3241 16.9068 8.48534 16.973C6.3973 17.0509 5.25589 15.6407 5.25589 15.6407Z" fill="#FFE016"/>
<g id="Vector_15" style="mix-blend-mode:soft-light">
<path d="M7.92004 0.366082C6.34622 0.498532 6.31895 4.00847 7.56165 4.03573C8.80434 4.063 10.0626 4.16039 11.7689 6.02249C13.4011 7.81057 14.7568 4.74863 14.6984 4.14481C14.6399 3.52931 12.2636 -0.241631 7.92004 0.366082Z" fill="white"/>
</g>
<g id="Vector_16" style="mix-blend-mode:soft-light">
<path d="M3.92048 17.616C2.2181 15.6994 4.32952 15.3488 4.70349 15.45C5.07747 15.5513 6.04358 16.8525 8.02644 17.0472C10.0015 17.242 8.75102 19.6729 8.00696 19.7274C7.2629 19.7858 5.06579 18.9015 3.92048 17.6121V17.616Z" fill="white"/>
</g>
<path id="Vector_17" d="M10.5655 0.553223C9.83315 0.588283 10.8616 3.08147 11.7654 3.96187C12.6497 4.82669 14.091 3.59179 14.0404 3.15159C13.9898 2.70749 12.0147 1.02069 10.5655 0.553223Z" fill="white"/>
<path id="Vector_18" d="M4.63285 17.5498C4.31341 16.868 5.96904 17.8848 5.77426 18.2432C5.58338 18.5977 4.9445 18.2198 4.63285 17.5498Z" fill="white"/>
<g id="Vector_19" style="mix-blend-mode:soft-light">
<path d="M13.6198 11.5153C13.2341 11.7568 13.238 13.1982 11.6954 15.5044C10.2384 17.682 11.8161 18.4923 12.155 18.5157C12.494 18.5391 14.7222 16.4355 15.5949 13.9462C16.5259 11.2894 15.8013 10.8375 15.5559 10.7206C15.3066 10.6076 13.9392 11.3166 13.6198 11.5153Z" fill="white"/>
</g>
<g id="Vector_20" style="mix-blend-mode:soft-light">
<path d="M11.6372 0.553182C10.5698 0.553182 13.176 1.83483 14.0837 2.29062C14.9835 2.73861 16.0159 1.93612 16.0159 1.93612C16.0159 1.93612 14.8316 0.229847 11.6372 0.557077V0.553182Z" fill="white"/>
</g>
<g id="Vector_21" style="mix-blend-mode:soft-light">
<path d="M3.25884 10.8727C3.18092 10.265 3.54711 9.04563 3.6484 8.88591C3.74968 8.72619 4.11976 11.7881 4.00289 12.3608C3.88603 12.9218 3.30558 11.235 3.25884 10.8766V10.8727Z" fill="white"/>
</g>
<path id="Vector_22" d="M14.0527 3.03076C14.0527 3.03076 17.2549 7.02764 15.9265 13.4242C15.9265 13.4242 18.0886 7.19126 14.0527 3.03076Z" fill="#FFE016"/>
<g id="Vector_23" style="mix-blend-mode:multiply" opacity="0.5">
<path d="M8.00977 19.8247C8.00977 19.8247 9.16286 20.0623 10.3666 19.9571C11.5703 19.8519 13.5026 17.8457 13.5026 17.8457C13.5026 17.8457 11.6093 20.1831 8.00977 19.8208V19.8247Z" fill="#D42F55"/>
</g>
<g id="Vector_24" style="mix-blend-mode:multiply" opacity="0.8">
<path d="M8.85961 19.887C6.31189 19.887 3.96284 18.2586 2.51758 15.707C3.08244 16.6537 4.82767 19.1391 8.85961 19.887Z" fill="#D42F55"/>
</g>
<g id="Vector_25" style="mix-blend-mode:multiply" opacity="0.5">
<path d="M2.43945 15.5823C2.46283 15.6251 2.4901 15.668 2.51347 15.7069C2.4862 15.6602 2.45893 15.6173 2.43945 15.5823Z" fill="#D42F55"/>
</g>
<g id="Vector_26" style="mix-blend-mode:multiply" opacity="0.5">
<path d="M19.1021 11.1569C18.5528 16.2173 15.0896 19.8869 11.3148 19.8869C11.1122 19.8869 10.9096 19.8792 10.7148 19.8558C13.9482 19.5169 15.9778 17.682 17.0919 16.4354C18.4087 14.959 19.1176 10.6894 19.1605 10.4167C19.1527 10.6622 19.1293 10.9115 19.1021 11.1569Z" fill="#D42F55"/>
</g>
<g id="Vector_27" style="mix-blend-mode:multiply" opacity="0.8">
<path d="M1.33008 6.91463C1.33008 6.91463 1.95727 4.24615 3.94792 2.44638C6.02038 0.572598 9.79911 0.0973349 9.79911 0.0973349L11.5326 0.0350053C11.5326 0.0350053 8.87196 -0.00784625 8.13569 0.0973349C7.39942 0.202516 2.9 0.595972 1.33008 6.91463Z" fill="#D42F55"/>
</g>
<g id="Group_3">
<path id="Vector_28" d="M6.25298 14.2151C6.20233 13.8256 6.22181 13.4866 6.30751 13.2023C6.56073 13.0815 6.72824 13.0192 6.80615 13.0192C6.95418 13.0192 7.18792 13.0698 7.51125 13.1828C7.55411 13.2919 7.59306 13.4516 7.63202 13.658C7.87744 13.8489 8.13845 13.9697 8.41114 14.0203C8.267 13.0815 8.16182 12.3647 8.09949 11.8817C7.78784 11.8349 7.52684 11.7765 7.30479 11.7064C7.08663 11.6362 6.86459 11.5233 6.63474 11.3713C6.4088 11.2194 6.22181 11.0051 6.07767 10.7247C5.93354 10.4481 5.83615 10.1053 5.7855 9.69623C5.67643 8.82361 5.80498 8.03281 6.17896 7.31602C6.56852 6.57585 7.08663 6.12007 7.7333 5.97593L7.63591 4.66701C7.67097 4.57741 8.25921 4.61247 8.25921 4.61247L8.47736 5.94477C8.76174 5.96814 9.08508 6.06942 9.44347 6.24862C9.46684 5.93697 9.52917 5.70713 9.63436 5.563C9.7746 5.43444 9.95769 5.34874 10.1875 5.30978C10.5537 5.24745 10.6862 5.39549 10.8459 5.563C10.9043 5.74609 11.0913 6.11617 11.1342 6.86023C11.1653 7.35887 11.1497 7.70947 11.0952 7.91983C11.0407 8.1302 10.9199 8.27044 10.7368 8.34056C10.6083 8.40678 10.4836 8.44184 10.3589 8.45743C10.0862 8.48859 9.8564 8.43795 9.67331 8.30939C9.61877 8.16526 9.58371 8.00554 9.56813 7.82634C9.35777 7.73284 9.08897 7.6861 8.76564 7.6861C8.89809 8.53144 9.00327 9.369 9.08118 10.1949C9.90315 10.2533 10.5226 10.4286 10.9238 10.7208C11.3289 11.0168 11.551 11.5388 11.5938 12.2712C11.6445 13.1477 11.4419 13.8996 10.9978 14.5229C10.5693 15.1267 10.0044 15.4539 9.31102 15.5163L9.31881 16.681C9.2448 16.7317 8.77343 16.8291 8.55138 16.8369L8.66435 15.5201C8.30985 15.4539 7.9982 15.3098 7.72551 15.0799C7.74499 15.2747 7.72941 15.415 7.67876 15.5046C7.57748 15.5786 7.40218 15.6097 7.15286 15.602C6.88796 15.5942 6.70487 15.5318 6.59579 15.415C6.42828 15.1111 6.31531 14.7099 6.24908 14.2073L6.25298 14.2151ZM7.10611 9.29888C7.16455 9.85595 7.43334 10.1598 7.92029 10.2221C7.87744 9.70402 7.83069 8.92879 7.78005 7.87698C7.25025 8.10682 7.0282 8.58209 7.10611 9.29888ZM9.27986 13.9268C9.5097 13.8061 9.69669 13.6347 9.84082 13.4048C9.98886 13.175 10.0512 12.9335 10.0317 12.6842C9.99665 12.2517 9.72006 12.0024 9.19805 11.9362C9.237 12.6062 9.26038 13.2724 9.27986 13.9268Z" fill="url(#paint5_linear_1396_37601)"/>
<path id="Vector_29" d="M11.0678 12.3062C11.0249 11.5699 10.7951 11.0479 10.39 10.7557C10.312 10.6973 10.2224 10.6467 10.129 10.5999C9.7355 10.3974 9.20569 10.2766 8.54734 10.2259C8.54734 10.2143 8.54734 10.1987 8.54344 10.1909C8.53176 10.0935 8.52396 10.0039 8.51228 9.90651C8.43047 9.18193 8.33308 8.45345 8.21232 7.72108C8.53955 7.72108 8.80445 7.76782 9.01481 7.86132C9.03039 8.04052 9.06935 8.20024 9.12778 8.34437C9.31088 8.47293 9.54072 8.52357 9.81341 8.4924C9.93417 8.48072 10.0627 8.44176 10.1913 8.37943C10.3705 8.30542 10.4951 8.16907 10.5458 7.95481C10.5964 7.74445 10.612 7.39385 10.5769 6.89911C10.5302 6.15115 10.4757 5.68368 10.4094 5.50059C10.2536 5.33697 9.98871 5.28243 9.62252 5.34476C9.39268 5.38761 9.20959 5.46942 9.06935 5.59798C8.96806 5.74211 8.90573 5.96806 8.88236 6.2836C8.52786 6.10051 8.20063 6.00312 7.91625 5.97585L7.69031 4.64355C7.37476 4.76042 7.19557 4.86171 7.1644 4.94741L7.17219 6.00701C6.52552 6.15505 6.0113 6.60694 5.62564 7.351C5.25556 8.06779 5.13479 8.8547 5.24777 9.72731C5.24777 9.74289 5.25556 9.75847 5.25556 9.77016C5.3101 10.1558 5.40749 10.4831 5.54773 10.7519C5.69186 11.0284 5.87885 11.2466 6.1048 11.3946C6.33464 11.5504 6.55669 11.6595 6.77484 11.7335C6.99689 11.8037 7.26179 11.866 7.56954 11.9088C7.60071 12.1348 7.63966 12.4114 7.69031 12.7425C7.74484 13.1126 7.81107 13.5489 7.89288 14.0436C7.62019 13.9969 7.36308 13.8761 7.11376 13.6852C7.0748 13.4749 7.03585 13.3152 6.9891 13.2061C6.66576 13.097 6.43592 13.0425 6.28789 13.0464C6.20608 13.0464 6.04247 13.1126 5.78925 13.2295C5.70745 13.5138 5.68797 13.8527 5.74251 14.2423C5.80873 14.7448 5.9256 15.1461 6.09701 15.446C6.20219 15.5629 6.38918 15.6213 6.65408 15.633C6.8995 15.6408 7.0748 15.6058 7.17609 15.5356C7.22673 15.446 7.24231 15.3019 7.22283 15.1071C7.49553 15.337 7.80717 15.485 8.16167 15.5512L8.37983 16.8017C8.59798 16.7939 8.74991 16.7628 8.82003 16.7121L8.80445 15.5473C9.49786 15.485 10.0588 15.1617 10.4835 14.5579C10.9237 13.9307 11.1223 13.1788 11.0639 12.3023L11.0678 12.3062ZM7.14103 10.1948C6.80601 10.0779 6.61512 9.78964 6.56058 9.32996C6.47878 8.61706 6.69693 8.13791 7.22673 7.90807C7.27737 8.90144 7.32412 9.6494 7.37087 10.1636V10.1948C7.37087 10.1948 7.37866 10.2298 7.37866 10.2493C7.29296 10.2376 7.21504 10.2182 7.13713 10.1909L7.14103 10.1948ZM9.32256 13.4398C9.17843 13.6658 8.99144 13.8411 8.76549 13.9579C8.74991 13.471 8.72654 12.9801 8.69927 12.4815C8.68758 12.3101 8.67979 12.1387 8.672 11.9673C8.89405 11.9945 9.07714 12.0569 9.20959 12.1582C9.38879 12.2789 9.48618 12.4698 9.50566 12.7152C9.52903 12.9646 9.4667 13.2061 9.32256 13.4359V13.4398Z" fill="url(#paint6_linear_1396_37601)"/>
<g id="Vector_30" style="mix-blend-mode:soft-light">
<path d="M10.5453 7.95481C10.4946 8.16518 10.37 8.30542 10.1908 8.37943C10.0622 8.44566 9.93367 8.48461 9.81291 8.49241C9.54022 8.52357 9.31038 8.47293 9.12729 8.34437C9.07275 8.20413 9.0299 8.04052 9.01431 7.86132C8.80395 7.76782 8.53905 7.72108 8.21182 7.72108C8.33258 8.45345 8.42997 9.18582 8.51178 9.90651C8.13001 10.0234 7.74824 10.113 7.37816 10.1597C7.33142 9.6455 7.28467 8.90144 7.23403 7.90417C6.70033 8.13012 6.48607 8.60927 6.56788 9.32606C6.61852 9.78574 6.8133 10.074 7.14832 10.1909C6.40816 10.2532 5.73032 10.1441 5.25896 9.77016C5.25896 9.75458 5.25117 9.739 5.25117 9.72731C5.13819 8.8547 5.26285 8.06779 5.62904 7.351C6.0147 6.60694 6.52892 6.15894 7.17559 6.00701L7.1678 4.94741C7.19897 4.86171 7.37816 4.76042 7.69371 4.64355L7.91965 5.97585C8.20403 5.99922 8.53126 6.10051 8.88576 6.2836C8.90913 5.96806 8.96757 5.74211 9.07275 5.59798C9.21299 5.46553 9.39608 5.38372 9.62592 5.34476C9.99211 5.28243 10.257 5.33697 10.4128 5.50059C10.4791 5.68368 10.5297 6.15115 10.5803 6.89911C10.6154 7.39385 10.5998 7.74835 10.5492 7.95481H10.5453Z" fill="white"/>
</g>
<g id="Vector_31" style="mix-blend-mode:multiply" opacity="0.2">
<path d="M9.802 11.5465C9.63449 11.7764 9.43192 11.9828 9.21377 12.1581C9.08132 12.0569 8.89822 11.9945 8.67617 11.9673C8.68786 12.1387 8.69565 12.3101 8.70344 12.4815C8.384 12.6412 8.0373 12.7347 7.69059 12.7425C7.63994 12.4153 7.60099 12.1348 7.56982 11.9088C7.26207 11.8621 6.99717 11.8036 6.77512 11.7335C6.55697 11.6634 6.33492 11.5543 6.10508 11.3946C5.87913 11.2427 5.69215 11.0284 5.54801 10.7518C5.40777 10.483 5.31038 10.1558 5.25584 9.77015C5.25584 9.75456 5.24805 9.73898 5.24805 9.72729C5.24805 9.72729 5.32596 10.1441 7.14131 10.1909C7.21922 10.1909 7.29713 10.1909 7.37504 10.1909C7.7685 10.1909 8.17364 10.1909 8.53983 10.1909C8.54372 10.2026 8.54372 10.2181 8.54372 10.2259C9.20208 10.2727 9.73188 10.3934 10.1253 10.5999C10.211 10.8025 10.1214 11.1063 9.79811 11.5465H9.802Z" fill="#DA0553"/>
</g>
<path id="Vector_32" d="M7.11378 13.6854C7.09041 13.5607 7.8929 14.0437 7.8929 14.0437C7.8929 14.0437 7.19559 14.036 7.11378 13.6854Z" fill="white"/>
<path id="Vector_33" d="M9.45899 5.38377C9.15903 5.41883 9.79401 6.8563 10.1602 7.14458C10.5225 7.42896 10.5537 5.77722 10.4056 5.50064C10.2576 5.22405 9.45509 5.38377 9.45509 5.38377H9.45899Z" fill="white"/>
<g id="Vector_34" style="mix-blend-mode:soft-light">
<path d="M7.47467 4.72928C7.15912 4.94743 7.79411 5.48113 7.79411 5.48113C7.79411 5.48113 7.75905 4.7059 7.63439 4.66305C7.50973 4.6202 7.47467 4.72928 7.47467 4.72928Z" fill="white"/>
</g>
</g>
<path id="Vector_35" d="M16.1173 6.6809C15.8719 5.65636 15.9109 7.59247 16.1329 8.63649C16.3511 9.65714 16.4913 9.38055 16.4913 9.38055C16.4913 9.38055 16.5186 7.3899 16.1173 6.6809Z" fill="white"/>
<g id="Vector_36" style="mix-blend-mode:soft-light">
<path d="M10.5972 19.9532C9.38569 19.9415 11.6763 19.3611 12.1749 19.0572C12.6814 18.7534 14.0253 19.1273 14.0253 19.1273C14.0253 19.1273 12.8255 20.0389 10.5972 19.9532Z" fill="white"/>
</g>
<path id="Vector_37" d="M15.9265 13.428C15.3344 13.3501 14.7189 15.3407 15.0461 15.7576C15.3734 16.1705 16.1486 14.994 16.3005 14.6084C16.4563 14.2188 15.9265 13.428 15.9265 13.428Z" fill="#ED4800"/>
<path id="Vector_38" d="M13.5048 17.8495C13.0724 17.7833 14.0853 16.9964 14.2762 16.9613C14.467 16.9262 14.3969 17.3431 14.2372 17.6469C14.0814 17.9469 13.6646 17.8768 13.5048 17.8495Z" fill="#ED4800"/>
<path id="Vector_39" d="M13.5151 17.5378C13.3982 17.7677 13.628 17.904 13.9748 17.8222C14.076 17.7988 14.2124 17.682 14.2124 17.682C14.2124 17.682 13.8696 18.0365 13.5307 18.0599C13.1917 18.0832 13.2852 17.7638 13.5151 17.5378Z" fill="#FFBA00"/>
<path id="Vector_40" d="M15.0034 14.9046C15.0034 14.9046 15.0151 15.15 15.3929 15.15C15.876 15.15 16.2772 14.6514 16.2772 14.6514C16.2772 14.6514 15.8215 15.7577 15.2605 15.9759C14.7034 16.194 14.9177 15.2435 15.0034 14.9046Z" fill="#FFBA00"/>
<g id="Vector_41" style="mix-blend-mode:multiply" opacity="0.5">
<path d="M15.1979 14.2578C14.9759 15.2084 15.8524 14.4955 16.016 14.3669C16.1796 14.2345 16.3315 14.4448 16.3315 14.4448C16.3315 14.4448 16.1835 13.506 15.9264 13.4281C15.6693 13.3502 15.1979 14.2617 15.1979 14.2617V14.2578Z" fill="#D42F55"/>
</g>
<g id="Vector_42" style="mix-blend-mode:multiply" opacity="0.5">
<path d="M13.8195 17.2497C13.6987 17.5848 14.0182 17.6977 14.2207 17.577C14.4233 17.4562 14.3493 16.9303 14.2714 16.9576C14.1935 16.9848 13.8156 17.2458 13.8156 17.2458L13.8195 17.2497Z" fill="#D42F55"/>
</g>
<path id="Vector_43" d="M15.421 15.8901C15.1795 15.9329 15.534 15.6758 15.7443 15.4771C15.9586 15.2785 15.6314 15.7888 15.421 15.8901Z" fill="white"/>
<path id="Vector_44" d="M13.5613 18.0521C13.5224 18.0288 13.9119 17.8379 13.9704 17.8729C13.9431 17.9898 13.5613 18.0521 13.5613 18.0521Z" fill="white"/>
</g>
</g>
</g>
</g>
<defs>
<linearGradient id="paint0_linear_1396_37601" x1="11.4803" y1="19.887" x2="11.4803" y2="0.0974121" gradientUnits="userSpaceOnUse">
<stop stop-color="#FF5900"/>
<stop offset="0.23" stop-color="#FE6800"/>
<stop offset="0.66" stop-color="#FA9300"/>
<stop offset="0.85" stop-color="#F66A00"/>
<stop offset="1" stop-color="#F63F00"/>
</linearGradient>
<linearGradient id="paint1_linear_1396_37601" x1="10.8464" y1="20" x2="10.8464" y2="-1.95504e-05" gradientUnits="userSpaceOnUse">
<stop stop-color="#FF5900"/>
<stop offset="0.23" stop-color="#FE6800"/>
<stop offset="0.66" stop-color="#FA9300"/>
<stop offset="0.85" stop-color="#F66A00"/>
<stop offset="1" stop-color="#F63F00"/>
</linearGradient>
<linearGradient id="paint2_linear_1396_37601" x1="12.0231" y1="19.1196" x2="5.37327" y2="0.841471" gradientUnits="userSpaceOnUse">
<stop stop-color="#FFEA34"/>
<stop offset="0.63" stop-color="#FF8100"/>
<stop offset="0.7" stop-color="#FFA400"/>
<stop offset="1" stop-color="#FFBA00"/>
</linearGradient>
<linearGradient id="paint3_linear_1396_37601" x1="10.282" y1="16.4979" x2="6.04355" y2="4.85786" gradientUnits="userSpaceOnUse">
<stop stop-color="#FFBA00"/>
<stop offset="0.21" stop-color="#FE6800"/>
<stop offset="1" stop-color="#D41B00"/>
</linearGradient>
<linearGradient id="paint4_linear_1396_37601" x1="8.43497" y1="16.9615" x2="8.43497" y2="4.40601" gradientUnits="userSpaceOnUse">
<stop offset="0.04" stop-color="#EF6300"/>
<stop offset="1" stop-color="#E13E00"/>
</linearGradient>
<linearGradient id="paint5_linear_1396_37601" x1="9.07156" y1="16.8108" x2="8.26361" y2="4.58187" gradientUnits="userSpaceOnUse">
<stop stop-color="#C82400"/>
<stop offset="0.51" stop-color="#D84400"/>
<stop offset="1" stop-color="#D42F00"/>
</linearGradient>
<linearGradient id="paint6_linear_1396_37601" x1="8.53555" y1="16.7953" x2="7.73273" y2="4.64419" gradientUnits="userSpaceOnUse">
<stop stop-color="#FFAB00"/>
<stop offset="0.49" stop-color="#FFBA00"/>
<stop offset="1" stop-color="#EF6C00"/>
</linearGradient>
<clipPath id="clip0_1396_37601">
<rect width="20" height="20" fill="white"/>
</clipPath>
</defs>
</svg>
