<svg width="22" height="22" viewBox="0 0 22 22" fill="none" xmlns="http://www.w3.org/2000/svg">
    <g clip-path="url(#clip0_1396_36754)">
        <path d="M11.0006 5.78027L3.15439 12.2486C3.15439 12.2578 3.1521 12.2712 3.14751 12.2895C3.14301 12.3077 3.14062 12.3208 3.14062 12.3302V18.8801C3.14062 19.1166 3.22709 19.3215 3.39996 19.4941C3.57279 19.6668 3.77745 19.7537 4.01399 19.7537H9.25376V14.5136H12.7474V19.7539H17.9872C18.2237 19.7539 18.4286 19.6672 18.6012 19.4941C18.7741 19.3217 18.8608 19.1166 18.8608 18.8801V12.3302C18.8608 12.2939 18.8559 12.2665 18.8471 12.2486L11.0006 5.78027Z" fill="#4E556F" />
        <path d="M21.8482 10.7748L18.86 8.29132V2.72381C18.86 2.59653 18.8191 2.49186 18.737 2.40994C18.6555 2.32811 18.5508 2.2872 18.4233 2.2872H15.8033C15.6759 2.2872 15.5713 2.32811 15.4893 2.40994C15.4075 2.49186 15.3667 2.59658 15.3667 2.72381V5.3847L12.0372 2.60088C11.7464 2.36434 11.4006 2.24609 11.0003 2.24609C10.6 2.24609 10.2543 2.36434 9.96326 2.60088L0.151633 10.7748C0.0606787 10.8475 0.0108283 10.9453 0.00155609 11.0681C-0.00766837 11.1909 0.0241154 11.2981 0.097003 11.389L0.943024 12.3988C1.01591 12.4806 1.11131 12.5306 1.2296 12.549C1.33882 12.5581 1.44803 12.5262 1.55724 12.4535L11 4.5796L20.4429 12.4534C20.5158 12.5169 20.6112 12.5486 20.7295 12.5486H20.7705C20.8886 12.5306 20.9838 12.4802 21.0571 12.3986L21.9032 11.3889C21.9759 11.2978 22.0078 11.1908 21.9984 11.0679C21.989 10.9454 21.939 10.8476 21.8482 10.7748Z" fill="#4E556F" />
    </g>
    <defs>
        <clipPath id="clip0_1396_36754">
            <rect width="22" height="22" fill="white" />
        </clipPath>
    </defs>
</svg>