<svg width="182" height="182" viewBox="0 0 182 182" fill="none" xmlns="http://www.w3.org/2000/svg">
<path style="mix-blend-mode:screen" d="M155.353 155.349C190.889 119.814 190.889 62.1997 155.353 26.6645C119.818 -8.87063 62.2044 -8.87062 26.6692 26.6645C-8.86592 62.1997 -8.86592 119.814 26.6692 155.349C62.2044 190.884 119.818 190.884 155.353 155.349Z" fill="url(#paint0_radial_1396_37204)"/>
<path d="M158.92 82.2632C158.999 82.8146 159.052 83.3529 159.117 83.9043C159.275 85.3615 159.393 86.8188 159.446 88.2498C159.459 88.473 159.472 88.7093 159.485 88.9325C159.682 94.5777 159.196 100.105 158.08 105.435C157.883 106.393 157.66 107.352 157.424 108.297C150.689 134.882 128.357 155.993 99.5141 159.813C98.9102 159.892 98.3063 159.957 97.7024 160.023C97.3742 160.063 97.0329 160.089 96.7046 160.115C96.6653 160.128 96.639 160.128 96.5996 160.128C85.4798 161.139 74.6882 159.432 64.9206 155.52C64.2642 155.271 63.6209 155.008 62.9776 154.732C56.9779 152.133 51.3851 148.68 46.3963 144.545C46.2519 144.427 46.0944 144.295 45.95 144.164C45.3329 143.652 44.7421 143.127 44.1514 142.602C43.7706 142.26 43.3899 141.893 43.0092 141.538C42.379 140.934 41.762 140.317 41.1581 139.687C38.2304 136.707 35.5522 133.49 33.2022 129.998C32.8346 129.46 32.4933 128.935 32.1388 128.384C32.0863 128.305 32.0338 128.226 31.9813 128.134C31.4955 127.346 31.0098 126.572 30.5503 125.771C30.2221 125.206 29.907 124.642 29.605 124.064C29.4475 123.775 29.2899 123.46 29.1455 123.172C29.0142 122.909 28.8698 122.673 28.7517 122.41C27.0187 118.984 25.5746 115.399 24.4324 111.645C24.1436 110.66 23.8547 109.662 23.5922 108.651C23.2771 107.457 23.0014 106.249 22.752 105.028C22.4369 103.505 22.1874 101.969 21.9774 100.42C20.2969 87.7509 22.1743 75.4364 26.8087 64.4741C27.5438 62.7543 28.3316 61.087 29.1849 59.4328C29.2374 59.3409 29.2768 59.249 29.3162 59.1571C30.9835 56.0194 32.8609 53.0392 34.9746 50.2166C35.4209 49.5996 35.8936 48.9825 36.3793 48.3786C36.5368 48.1817 36.6813 47.9979 36.8388 47.801C38.2698 46.0155 39.7927 44.335 41.4075 42.7071C51.7921 32.2175 65.6033 24.9574 81.3837 22.87C83.2348 22.6206 85.0859 22.4499 86.9108 22.358C87.1077 22.358 87.3046 22.3317 87.5147 22.3449C91.9521 22.1348 96.337 22.3711 100.617 23.0013C101.391 23.1063 102.166 23.2507 102.928 23.382C107.234 24.1697 111.422 25.3644 115.426 26.9398C115.636 27.0186 115.82 27.0974 116.017 27.1761C116.187 27.2418 116.345 27.3205 116.502 27.3862C117.185 27.675 117.855 27.9376 118.524 28.2395C119.049 28.4759 119.588 28.7253 120.126 28.9747C121.005 29.3948 121.885 29.8281 122.752 30.3007C127.583 32.8476 132.099 35.9853 136.195 39.6088C136.72 40.0683 137.232 40.5409 137.744 41.0267C140.409 43.5342 142.877 46.2387 145.136 49.1401C145.136 49.1532 145.175 49.1926 145.188 49.2057C146.422 50.8205 147.577 52.501 148.667 54.2208C148.641 54.1683 148.601 54.1026 148.562 54.037C148.864 54.5096 149.179 54.9954 149.468 55.4811C149.77 55.9537 150.072 56.4526 150.348 56.9515C150.65 57.4898 150.965 58.028 151.24 58.5794C153.774 63.2663 155.796 68.3076 157.188 73.6378C157.936 76.4473 158.513 79.3355 158.907 82.2895L158.92 82.2632Z" fill="url(#paint1_linear_1396_37204)"/>
<g style="mix-blend-mode:color-dodge" opacity="0.65">
<path d="M158.92 82.2631C158.999 82.8145 159.052 83.3527 159.117 83.9041C159.275 85.3614 159.393 86.8187 159.446 88.2497C159.459 88.4728 159.472 88.7092 159.485 88.9323C159.682 94.5776 159.196 100.105 158.08 105.435C157.883 106.393 157.66 107.352 157.424 108.297C150.689 134.882 128.357 155.993 99.5141 159.813C98.9102 159.892 98.3063 159.957 97.7024 160.023C97.3742 160.062 97.0329 160.089 96.7046 160.115C96.6653 160.128 96.639 160.128 96.5996 160.128C123.631 155.389 144.834 136.155 153.17 111.566C153.564 110.411 153.919 109.255 154.26 108.074C154.444 107.404 154.627 106.735 154.798 106.078C155.061 105.08 155.284 104.069 155.494 103.045C156.058 100.341 156.465 97.5971 156.715 94.8008C156.741 94.6038 156.754 94.42 156.767 94.2231C156.859 93.1072 156.925 91.9913 156.951 90.8754C157.03 89.1161 157.017 87.37 156.951 85.5977C156.886 83.8254 156.767 82.0399 156.57 80.2675C156.505 79.6899 156.439 79.1122 156.36 78.5346C156.177 77.1561 155.953 75.8039 155.704 74.4648C154.667 68.9508 153.013 63.6994 150.833 58.75C150.584 58.1723 150.321 57.5947 150.059 57.017C149.612 56.0718 149.153 55.1528 148.667 54.2338C148.628 54.1682 148.601 54.1025 148.562 54.0369C148.864 54.5095 149.179 54.9952 149.468 55.481C149.77 55.9536 150.072 56.4525 150.348 56.9514C150.65 57.4897 150.965 58.0279 151.24 58.5793C153.774 63.2662 155.796 68.3075 157.188 73.6377C157.936 76.4472 158.513 79.3354 158.907 82.2893L158.92 82.2631Z" fill="white"/>
</g>
<path d="M102.941 23.3819C103.479 30.8914 102.731 42.09 93.0156 46.9475C78.955 53.9975 48.9433 65.8131 34.9746 50.1902C35.421 49.5732 35.8936 48.9562 36.3794 48.3522C36.5369 48.1553 36.6813 47.9715 36.8389 47.7746C37.469 48.4179 38.3486 48.8643 39.5302 49.0349C48.9302 50.4528 75.8042 51.5556 83.0773 43.6129C90.3505 35.6701 95.3393 33.0051 89.4709 26.7953C88.2631 25.5218 87.6854 23.9858 87.5279 22.3185C91.9653 22.1084 96.3502 22.3447 100.63 22.9749C101.405 23.0799 102.179 23.2244 102.941 23.3556V23.3819Z" fill="#87000D"/>
<path d="M122.765 30.2875C122.922 31.6266 123.106 33.5302 123.172 35.7883C123.474 47.407 120.428 68.7277 93.5144 74.688C63.7128 81.2916 63.0957 81.7774 58.9209 84.8757C54.746 87.974 43.9413 85.3352 38.4142 87.8427C34.5676 89.6019 26.6117 97.4659 23.5922 108.612C23.2771 107.417 23.0014 106.209 22.752 104.988C22.4369 103.466 22.1874 101.93 21.9774 100.38C20.2969 87.7114 22.1743 75.3969 26.8087 64.4346C27.1369 63.7651 27.4651 63.1087 27.8064 62.4654C26.5855 70.198 26.7167 80.2544 35.0665 81.9086C39.6483 82.8276 43.298 83.2609 46.2782 83.3265C47.3941 83.3659 48.4181 83.3265 49.3634 83.2609C53.4988 82.8933 56.0064 81.5804 57.9756 79.6505C61.586 76.119 75.384 76.329 84.482 73.8478C93.5801 71.3665 113.207 61.7302 115.452 55.5598C117.211 50.7548 120.533 40.4489 118.892 30.0643C118.8 29.4604 118.695 28.8434 118.55 28.2263C119.076 28.4626 119.614 28.7121 120.152 28.9615C121.032 29.3816 121.911 29.8149 122.778 30.2875H122.765Z" fill="#87000D"/>
<path d="M151.266 58.6056C147.853 59.5903 143.205 63.5419 138.019 75.1081C127.123 99.3039 133.372 96.1662 123.158 104.161C112.944 112.157 95.7457 123.631 84.3108 124.379C74.6614 125.009 45.4768 124.589 33.2017 129.985C32.8341 129.447 32.4928 128.922 32.1383 128.37C31.2324 126.966 30.3791 125.521 29.6045 124.051C32.2827 122.673 36.1162 121.662 41.6433 121.596C58.2771 121.439 76.8801 122.554 86.884 118.682C96.8748 114.796 123.421 102.35 126.913 91.9126C130.352 81.6199 141.315 67.5593 137.376 41.1448C140.146 43.5998 142.746 46.2911 145.109 49.1531C145.109 49.1663 145.148 49.2057 145.161 49.2188C147.052 51.6738 148.798 54.2732 150.36 56.9777C150.662 57.516 150.977 58.0542 151.253 58.6056H151.266Z" fill="#87000D"/>
<path d="M159.484 88.9456C159.694 94.5777 159.195 100.105 158.093 105.435C157.896 106.393 157.673 107.352 157.436 108.297C153.498 110.975 149.822 114.244 148.194 117.933C143.875 127.688 133.542 142.05 111.382 146.002C91.7151 149.507 75.764 144.505 64.9461 155.52C64.2897 155.271 63.6464 155.008 63.0031 154.732C57.0034 152.133 51.4107 148.68 46.4219 144.545C52.9861 145.726 61.0601 146.737 68.3464 146.356C84.0481 145.556 96.9665 143.074 107.535 138.112C118.09 133.149 125.757 131.364 127.858 122.161C129.958 112.958 135.643 105.842 146.618 102.087C153.905 99.6059 157.843 94.7483 159.511 88.9456H159.484Z" fill="#87000D"/>
<path d="M159.117 83.9043C162.058 89.6283 163.869 97.5448 158.08 105.435C153.511 108.297 148.969 111.999 147.091 116.213C142.772 125.968 132.44 140.33 110.279 144.282C90.0873 147.879 73.7949 142.51 62.977 154.719C52.2642 155.651 43.1268 146.291 44.1508 142.589C50.8988 143.862 59.5242 145.004 67.2438 144.623C82.9454 143.823 95.8638 141.341 106.432 136.379C116.988 131.416 124.655 129.631 126.755 120.428C128.856 111.225 134.54 104.109 145.516 100.354C154.154 97.4004 158.093 91.125 159.117 83.9043Z" fill="url(#paint2_linear_1396_37204)"/>
<path d="M45.109 143.993C51.857 145.267 60.4824 146.409 68.202 146.028C83.9036 145.227 96.822 142.746 107.39 137.784C117.959 132.821 125.613 131.036 127.713 121.832C129.814 112.629 135.499 105.514 146.474 101.759C154.929 98.8708 158.867 92.7923 159.996 85.7685C159.721 85.1252 159.432 84.4951 159.13 83.9043C158.093 91.125 154.167 97.4135 145.529 100.354C134.553 104.096 128.869 111.225 126.768 120.428C124.668 129.631 117.001 131.403 106.445 136.379C95.8899 141.341 82.9584 143.823 67.2567 144.623C59.5241 145.017 50.9118 143.862 44.1637 142.589C43.8487 143.731 44.5051 145.411 45.8704 147.157C45.1746 145.936 44.8858 144.82 45.1221 143.993H45.109Z" fill="#FCFE02"/>
<path d="M111.015 103.505C110.66 103.951 110.279 104.372 109.872 104.765C110.293 104.372 110.673 103.951 111.015 103.505ZM141.368 42.5759C140.094 41.6569 138.781 40.9217 137.324 40.1602C136.956 39.9764 136.589 39.7926 136.208 39.5957C137.967 51.3982 136.746 60.7063 134.567 68.3339C133.241 72.942 131.561 76.9331 129.972 80.4778C129.867 80.7009 129.762 80.9241 129.644 81.1473C127.36 85.4797 122.515 87.8691 117.631 86.9895C112.958 86.1493 107.391 85.1909 102.77 84.5082C99.3696 84.0093 96.4945 83.6548 94.8535 83.6155C91.9389 83.5367 89.0638 85.3222 86.2281 87.3046C82.7621 89.7465 79.3356 92.5034 75.9878 92.5691C69.8831 92.7004 64.1328 105.698 62.1242 111.067C60.9032 114.349 56.9253 117.093 54.037 118.747C52.7636 119.469 51.3326 119.824 49.8753 119.811C46.9083 119.798 43.9412 119.784 41.0267 119.811C36.6024 119.85 33.2678 120.506 30.7471 121.491C29.9725 121.793 29.3949 122.41 29.1323 123.172C28.9748 123.631 28.9223 124.143 29.0273 124.655C29.3686 126.257 29.9594 127.163 31.0228 127.832C31.1279 127.898 31.246 127.95 31.3642 127.99C31.5611 128.068 31.7711 128.134 31.9681 128.147C32.3357 128.187 32.7033 128.121 33.0446 127.99C45.4773 122.804 73.9398 123.237 83.4317 122.607C94.8009 121.872 111.894 110.424 122.056 102.455C131.088 95.3654 127.176 97.0459 133.806 80.5434C134.068 79.8738 134.37 79.178 134.672 78.4297C135.302 76.9199 136.011 75.2789 136.825 73.4803C142.011 61.901 146.645 57.9887 150.046 57.0303C150.137 57.0041 150.216 56.9778 150.308 56.9515C147.38 48.6412 144.689 45.0178 141.341 42.589L141.368 42.5759ZM65.1569 108.284C65.1569 108.126 65.1962 107.995 65.2094 107.864C65.4063 106.603 65.9971 105.343 66.7717 104.135C66.9161 103.912 67.0605 103.689 67.218 103.466C67.4018 103.203 67.5856 102.954 67.7694 102.704C67.9007 102.52 68.032 102.35 68.1633 102.179C68.2289 102.1 68.2814 102.035 68.3339 101.956C69.975 99.8948 71.7605 98.0699 72.4563 96.7702C73.8216 94.2101 78.3772 95.2998 82.1714 93.1073C85.5454 91.1381 90.1797 88.473 93.5406 85.9129C93.9476 85.5979 94.3283 85.2828 94.6959 84.9808C94.8666 84.8364 95.1029 84.7183 95.3917 84.6526C96.4683 84.3507 98.3194 84.4426 100.617 84.7839C101.746 84.9546 102.993 85.1909 104.293 85.4666C104.372 85.4928 104.437 85.506 104.516 85.5191C106.275 85.9129 107.772 86.6613 109.019 87.659C109.163 87.7641 109.295 87.8691 109.413 87.9741C109.741 88.2629 110.056 88.578 110.345 88.9062C110.437 89.0113 110.529 89.1032 110.608 89.2213C110.726 89.3526 110.844 89.5101 110.949 89.6414C111.067 89.7858 111.172 89.9434 111.264 90.0878C111.382 90.2322 111.474 90.3898 111.553 90.5473C111.658 90.6917 111.75 90.8624 111.829 91.0068C111.934 91.1643 112.012 91.335 112.078 91.4925C112.222 91.7814 112.354 92.0571 112.472 92.359C112.524 92.5034 112.577 92.6479 112.629 92.7923C112.682 92.9235 112.721 93.0417 112.748 93.1861C112.853 93.4749 112.918 93.7506 112.971 94.0395C113.023 94.2101 113.063 94.3939 113.089 94.5777C113.351 95.9825 113.338 97.4266 113.063 98.8314C113.01 99.1727 112.918 99.5272 112.826 99.8685C112.682 100.381 112.485 100.879 112.275 101.365C111.934 102.1 111.513 102.822 111.001 103.492C110.647 103.938 110.266 104.358 109.859 104.752C109.229 105.356 108.494 105.908 107.68 106.38C99.5797 111.093 90.8493 115.006 86.0049 116.883C82.8672 118.104 78.8761 118.826 74.373 119.246C74.1761 119.259 73.9661 119.286 73.7691 119.272C73.5066 119.286 73.3096 119.272 73.1127 119.272C72.9026 119.259 72.7057 119.246 72.4957 119.22C71.8786 119.154 71.301 119.01 70.7496 118.8C70.382 118.682 70.0406 118.537 69.6993 118.353C66.4041 116.66 64.3691 112.853 65.065 108.809C65.1043 108.625 65.1306 108.441 65.1306 108.271L65.1569 108.284Z" fill="url(#paint3_linear_1396_37204)"/>
<path d="M75.8818 120.257C80.3848 119.837 84.3759 119.115 87.5136 117.894C92.358 116.016 101.102 112.104 109.189 107.378C117.079 102.783 116.304 91.6894 109.057 87.6721C114.886 92.2933 115.018 102.127 107.705 106.38C99.6049 111.093 90.8745 115.006 86.0301 116.896C82.8924 118.117 78.9144 118.839 74.3982 119.259C72.6784 119.417 71.0767 119.062 69.6982 118.34C71.3524 119.706 73.5055 120.467 75.8949 120.244L75.8818 120.257Z" fill="#FCFE02"/>
<path d="M137.757 41.0136C137.796 41.1974 137.809 41.3812 137.835 41.565C139.673 54.9955 137.652 65.17 134.803 73.2703C133.844 76.0141 132.781 78.5348 131.744 80.8585C131.652 81.0686 131.56 81.2655 131.468 81.4756C131.284 81.8826 131.087 82.2633 130.864 82.6309C128.475 86.6482 123.801 88.8275 119.114 87.9873C114.532 87.1733 109.084 86.2281 104.529 85.5454C104.45 85.5454 104.384 85.5192 104.305 85.4929C103.006 85.2172 101.758 84.9809 100.629 84.8102C98.3188 84.4689 96.4676 84.377 95.3911 84.6789C93.7763 84.8496 92.1746 85.5323 90.5992 86.4513C86.1224 89.0376 81.7506 93.475 77.4707 93.5669C74.1361 93.6457 70.9065 97.558 68.3202 101.969C68.2546 102.048 68.202 102.114 68.1495 102.192C68.0051 102.363 67.8738 102.534 67.7557 102.717C67.5588 102.967 67.3881 103.216 67.2043 103.479C67.0467 103.702 66.9023 103.925 66.7579 104.148C65.9833 105.356 65.4057 106.617 65.1956 107.877C65.1694 108.008 65.1562 108.153 65.1431 108.297C64.5129 109.754 63.9878 111.054 63.6071 112.065C62.373 115.36 58.3951 118.104 55.5068 119.745C54.2465 120.467 52.8023 120.822 51.3451 120.822C48.3781 120.808 45.411 120.795 42.4965 120.822C38.0722 120.861 34.7376 121.517 32.2169 122.489C31.718 122.686 31.2979 123.014 30.996 123.434C30.5365 124.051 30.3395 124.852 30.5102 125.653C30.5102 125.705 30.5365 125.758 30.5365 125.797C30.7728 126.821 31.1141 127.53 31.6261 128.095C31.4161 128.042 31.206 127.963 31.0222 127.845C29.9588 127.176 29.368 126.257 29.0267 124.668C28.9217 124.156 28.961 123.644 29.1317 123.185C29.3943 122.423 29.9719 121.793 30.7465 121.504C33.2672 120.533 36.6018 119.876 41.0261 119.824C43.9406 119.798 46.9077 119.811 49.8747 119.824C51.332 119.824 52.763 119.482 54.0364 118.76C56.9247 117.119 60.9026 114.362 62.1236 111.08C64.1322 105.711 69.8825 92.7135 75.9872 92.5823C79.3481 92.5166 82.7615 89.7596 86.2274 87.3178C89.0632 85.3354 91.9383 83.5499 94.8528 83.6286C96.4939 83.668 99.369 84.0225 102.769 84.5214C107.391 85.2041 112.944 86.1624 117.631 87.0027C122.515 87.8823 127.359 85.4929 129.643 81.1605C129.761 80.9373 129.866 80.7273 129.971 80.4909C131.56 76.9594 133.24 72.9683 134.566 68.3471C136.746 60.7326 137.967 51.4114 136.208 39.6089C136.588 39.8058 136.956 39.9896 137.323 40.1734C138.781 40.9349 140.094 41.6569 141.314 42.5497C140.199 41.867 138.991 41.2499 137.691 40.6067C137.704 40.7511 137.744 40.8823 137.744 41.0268L137.757 41.0136Z" fill="#FCFE02"/>
<path d="M95.9563 20.4412C94.1314 20.1787 93.2387 20.008 90.9281 19.8111C89.2608 19.6666 88.5781 20.6907 87.6854 21.6359C87.1734 22.1742 86.7795 22.8306 86.5826 23.5658C85.9524 25.9814 86.0181 28.4496 87.8692 30.1826C92.8186 34.8825 88.5125 36.9831 82.1977 43.1666C75.8829 49.3501 52.8687 48.8381 44.834 47.8535C42.274 47.5384 41.4075 45.8842 41.4075 43.7705C41.5125 43.2585 41.5651 42.8384 41.4863 42.6152C41.1056 41.5781 37.2589 44.0068 36.7994 45.8579C36.4187 47.4071 36.8913 48.9957 37.9547 50.0984C49.7703 62.3473 78.4167 51.2406 90.6787 45.5954C101.536 40.6066 101.234 27.977 100.774 23.6183C100.985 23.3689 101.116 23.1063 101.129 22.8044C101.195 20.3756 97.7943 20.6907 95.9694 20.4281L95.9563 20.4412Z" fill="url(#paint4_linear_1396_37204)"/>
<path d="M37.1533 45.0703C37.534 46.7113 38.6106 47.906 40.8556 48.1686C49.9273 49.2714 75.8954 49.8622 83.0373 42.8778C90.1661 35.8935 95.0367 33.5172 89.444 28.2133C87.5535 26.4278 87.3172 23.9466 87.8424 21.4521C87.7898 21.5047 87.7373 21.5703 87.6848 21.6228C87.1728 22.1611 86.7789 22.8175 86.582 23.5396C85.9518 25.9552 86.0175 28.4234 87.8686 30.1563C92.818 34.8563 88.5119 36.9569 82.1971 43.1404C75.8823 49.3239 52.8681 48.8119 44.8335 47.8272C42.2734 47.5122 41.4069 45.858 41.4069 43.7443C41.512 43.2323 41.5645 42.8122 41.4857 42.589C41.1575 41.6962 38.2561 43.3767 37.1664 45.044L37.1533 45.0703Z" fill="#FCFE02"/>
<path d="M120.086 31.5479C119.981 30.3532 120.02 29.513 120.139 28.9616C118.432 27.058 117.434 27.3337 116.226 27.1499C116.148 27.1499 116.082 27.1499 116.029 27.1762C115.793 27.2418 115.649 27.5044 115.727 27.7538C119.666 39.4381 116.331 47.6828 114.296 53.2493C114.034 53.9714 113.574 54.7197 112.944 55.4943C111.907 56.7677 110.318 57.4504 108.677 57.3585C104.043 57.1091 96.573 56.6102 93.7635 55.9669C89.5624 54.9954 76.1845 56.0063 74.0314 62.9119C71.8783 69.8174 58.5004 68.7934 53.8398 70.1719C52.5663 70.5395 52.1462 71.3666 52.225 72.3381C52.5138 76.5786 49.2974 80.1889 45.07 79.8345C42.6544 79.6375 39.8711 79.2174 36.6021 78.5741C28.9351 77.0643 28.1999 68.4915 29.0664 61.1001C29.132 60.7719 29.2239 60.2862 29.2239 59.8661C29.2633 59.6166 29.2896 59.3672 29.329 59.1309C29.2764 59.2228 29.2371 59.3147 29.1977 59.4066C29.1452 59.1702 29.027 59.0258 28.8038 59.0915C27.9373 59.3278 23.1586 66.5091 21.767 70.5132C20.3885 74.5174 16.7125 96.4945 22.7516 105.002C25.0753 92.3328 35.7619 86.3987 39.9368 84.5082C41.6566 83.7205 43.9016 83.4448 46.2909 83.3266C47.3018 83.2741 48.3259 83.261 49.3761 83.261C53.7479 83.2085 58.1197 83.261 60.4434 81.5412C64.6183 78.4428 65.4454 78.8367 95.0369 71.3535C124.629 63.8702 121.517 40.3178 120.375 33.5829C120.244 32.8083 120.152 32.1387 120.099 31.5479H120.086ZM55.8222 72.8501C56.0454 71.8786 57.6208 71.4847 58.4085 71.2353C61.5987 70.2769 65.0121 70.1325 68.2811 69.5417C73.2568 68.6227 79.1384 66.8241 80.4643 63.3451C81.7903 59.8529 88.4202 57.9624 91.4529 57.8049C91.4791 57.8049 91.5054 57.8049 91.5185 57.8049C97.2031 57.608 98.923 65.485 93.711 67.73C90.8884 68.9378 88.2101 69.9093 85.9914 70.5001C81.344 71.7736 76.5127 72.0361 71.747 72.6794C68.2549 73.1521 64.8283 74.0317 61.52 75.2264C60.1152 75.7384 58.8549 76.6968 57.4108 75.8303C56.4392 75.2526 55.5596 74.0317 55.8222 72.837V72.8501Z" fill="url(#paint5_linear_1396_37204)"/>
<path d="M57.7649 77.5238C59.2353 78.4034 60.5219 77.4319 61.966 76.9068C65.34 75.6727 68.8453 74.7668 72.4163 74.2942C77.2738 73.6378 82.2233 73.3621 86.9758 72.0623C89.2339 71.4453 91.9777 70.4475 94.8528 69.2003C99.0014 67.4149 98.8439 62.1241 95.8637 59.9316C97.5704 62.3867 97.1372 66.2596 93.7107 67.7299C90.888 68.9378 88.2098 69.9093 85.9911 70.5132C81.3436 71.7735 76.5124 72.0492 71.7467 72.6925C68.2546 73.1651 64.828 74.0447 61.5197 75.2394C60.1018 75.7514 58.8414 76.6967 57.4104 75.8433C56.8984 75.5414 56.4258 75.0688 56.1239 74.5042C55.9007 75.6989 56.7803 76.933 57.7649 77.5238Z" fill="#FCFE02"/>
<path d="M28.4752 60.1811C28.7115 60.1154 28.8297 60.2599 28.8822 60.5093C28.9347 60.4174 28.9741 60.3124 29.0266 60.2205C28.9872 60.4699 28.961 60.7325 28.9216 60.9819C28.9216 61.4152 28.8297 61.914 28.7641 62.2554C27.8844 69.8699 28.659 78.7316 36.4836 80.307C39.8182 80.9766 42.6802 81.4098 45.1353 81.6199C49.4545 82.0006 52.7366 78.2721 52.4347 73.9003C52.369 72.8763 52.7892 72.0361 54.0889 71.6554C55.5067 71.2353 57.7123 71.0252 60.1805 70.7758C62.3729 70.3031 64.631 70.0931 66.8497 69.7649C70.552 68.8984 73.7553 67.3492 74.7268 64.1984C76.9062 57.0565 90.586 56.0456 94.879 57.0565C97.7542 57.7261 105.395 58.2512 110.134 58.5138C111.815 58.6057 113.443 57.8967 114.493 56.5839C115.136 55.783 115.609 55.0085 115.871 54.2733C117.946 48.523 121.346 40.0158 117.316 27.9376C117.224 27.6487 117.407 27.373 117.67 27.3205C117.184 27.2155 116.725 27.2155 116.239 27.1367C115.898 27.0842 115.635 27.4256 115.74 27.7538C119.679 39.425 116.331 47.6828 114.296 53.2493C114.033 53.9713 113.574 54.7196 112.944 55.4942C111.907 56.7677 110.305 57.4504 108.677 57.3585C104.043 57.109 96.5726 56.6101 93.7631 55.9669C89.562 54.9953 76.1841 56.0062 74.031 62.9118C71.878 69.8174 58.5 68.7934 53.8394 70.1719C52.566 70.5526 52.1459 71.3665 52.2115 72.3512C52.5003 76.5917 49.2839 80.202 45.0565 79.8344C42.6408 79.6244 39.8576 79.2174 36.5886 78.5741C28.9216 77.0512 28.1864 68.4914 29.0529 61.1132C29.1185 60.785 29.2104 60.2992 29.2104 59.8791C29.2498 59.6297 29.2761 59.3803 29.3154 59.1439C29.2629 59.2358 29.2235 59.3277 29.171 59.4196C29.1185 59.1833 29.0004 59.0258 28.7641 59.0914C27.8976 59.3277 23.1188 66.509 21.7403 70.5132C21.6484 70.802 21.5303 71.1827 21.4121 71.6291C22.9613 67.4411 27.5956 60.4305 28.449 60.1811H28.4752Z" fill="#FCFE02"/>
<path style="mix-blend-mode:color-burn" opacity="0.35" d="M158.92 82.2632C158.999 82.8146 159.052 83.3529 159.117 83.9043C159.275 85.3616 159.393 86.8188 159.446 88.2498C159.459 88.473 159.472 88.7093 159.485 88.9325C159.682 94.5777 159.196 100.105 158.08 105.435C157.883 106.393 157.66 107.352 157.424 108.297C150.689 134.882 128.357 155.993 99.5142 159.813C98.9103 159.892 98.3063 159.958 97.7024 160.023C97.3742 160.063 97.0329 160.089 96.7047 160.115C96.6653 160.128 96.639 160.128 96.5996 160.128C85.4798 161.139 74.6882 159.432 64.9206 155.52C64.2642 155.271 63.6209 155.008 62.9776 154.732C56.9779 152.133 51.3852 148.68 46.3964 144.545C46.252 144.427 46.0944 144.295 45.95 144.164C45.333 143.652 44.7422 143.127 44.1514 142.602C43.7707 142.26 43.3899 141.893 43.0092 141.538C41.8802 140.462 40.7905 139.346 39.7402 138.204C39.8978 138.269 40.0553 138.335 40.2129 138.401C50.8338 142.641 62.6494 144.295 74.8064 142.694C103.65 138.873 125.981 117.776 132.716 91.1775C132.952 90.2322 133.176 89.287 133.372 88.3155C133.635 87.0551 133.858 85.7948 134.042 84.5213C134.265 83.1691 134.41 81.8037 134.541 80.4253C134.607 79.7688 134.646 79.0993 134.698 78.4297C134.803 76.723 134.843 75.0032 134.803 73.2834C134.803 73.1652 134.803 73.0339 134.803 72.9026C134.803 72.5613 134.803 72.1937 134.79 71.8392C134.751 70.6708 134.672 69.5155 134.58 68.3471C134.528 67.8351 134.488 67.3099 134.423 66.7979C134.357 66.2596 134.305 65.7082 134.226 65.1568C133.097 56.5971 130.445 48.615 126.559 41.4468C126.27 40.8954 125.968 40.3572 125.666 39.8189C124.878 38.4535 124.051 37.1144 123.172 35.8016C122.318 34.5281 121.426 33.294 120.493 32.0731C120.493 32.06 120.454 32.0206 120.441 32.0075C120.323 31.863 120.205 31.7055 120.086 31.5611C119.693 31.0622 119.286 30.5633 118.879 30.0776C118.117 29.1586 117.329 28.2658 116.516 27.3862C117.198 27.6751 117.868 27.9376 118.55 28.2396C119.076 28.4759 119.614 28.7253 120.152 28.9748C121.032 29.3949 121.911 29.8281 122.778 30.3008C127.609 32.8477 132.125 35.9854 136.221 39.6088C136.747 40.0683 137.259 40.541 137.771 41.0267C140.436 43.5343 142.904 46.2387 145.162 49.1401C145.162 49.1532 145.201 49.1926 145.214 49.2057C146.448 50.8206 147.604 52.501 148.693 54.2208C148.667 54.1683 148.628 54.1027 148.588 54.037C148.89 54.5097 149.205 54.9954 149.494 55.4812C149.796 55.9538 150.098 56.4527 150.374 56.9515C150.676 57.4898 150.991 58.0281 151.267 58.5795C153.8 63.2663 155.822 68.3077 157.214 73.6378C157.962 76.4473 158.54 79.3356 158.934 82.2895L158.92 82.2632Z" fill="url(#paint6_linear_1396_37204)"/>
<g style="mix-blend-mode:overlay" opacity="0.5">
<path d="M157.213 73.6115C156.741 73.9134 156.242 74.1891 155.73 74.4517C150.505 77.2087 143.652 78.9154 135.788 80.2151C135.394 80.2939 134.974 80.3464 134.567 80.412C134.33 80.4514 134.094 80.4908 133.845 80.5302C133.162 80.6352 132.466 80.7402 131.77 80.8453H131.679C131.022 80.9503 130.353 81.0422 129.67 81.1341C121.346 82.2894 112.183 83.1953 102.796 84.495C102.087 84.5869 101.378 84.6919 100.669 84.7838C98.2928 85.1251 95.9428 85.5059 93.5666 85.9129C92.5951 86.0835 91.6104 86.2542 90.6389 86.438C89.1817 86.7137 87.7113 87.0025 86.254 87.3045C81.0683 88.3941 75.9219 89.707 70.9331 91.3743C42.208 100.906 43.3108 116.791 24.432 111.632C24.1432 110.647 23.8544 109.649 23.5918 108.638C23.2767 107.444 23.001 106.236 22.7516 105.015C16.7125 96.5207 20.3885 74.5305 21.767 70.5263C23.1586 66.5221 27.9373 59.3408 28.8038 59.1045C29.027 59.0389 29.1452 59.1833 29.1977 59.4196C29.2502 59.3277 29.2896 59.2358 29.329 59.1439C30.9963 56.0062 32.8736 53.026 34.9873 50.2034C35.4337 49.5864 35.9063 48.9693 36.3921 48.3654C36.5496 48.1685 36.694 47.9847 36.8516 47.7878C38.2826 46.0023 39.8055 44.3219 41.4203 42.6939C51.8049 32.2043 65.616 24.9442 81.3965 22.8568C83.2476 22.6074 85.0987 22.4367 86.9236 22.3448C87.1205 22.3448 87.3174 22.3185 87.5275 22.3317C91.9649 22.1216 96.3498 22.3579 100.63 22.9881C101.404 23.0931 102.179 23.2375 102.94 23.3688C107.246 24.1565 111.434 25.3512 115.439 26.9266C115.649 27.0054 115.832 27.0842 116.029 27.1629C116.082 27.1367 116.161 27.1236 116.226 27.1367C117.434 27.3205 118.432 27.0448 120.139 28.9484C121.018 29.3685 121.898 29.8018 122.764 30.2744C127.596 32.8213 132.112 35.959 136.208 39.5825C136.589 39.7794 136.956 39.9632 137.324 40.147C138.781 40.9085 140.094 41.6305 141.315 42.5233C144.715 44.9914 147.406 48.6149 150.347 56.9121C150.649 57.4503 150.964 57.9886 151.24 58.54C153.774 63.2269 155.796 68.2682 157.187 73.5984L157.213 73.6115Z" fill="#FFF7F5"/>
</g>
<defs>
<radialGradient id="paint0_radial_1396_37204" cx="0" cy="0" r="1" gradientUnits="userSpaceOnUse" gradientTransform="translate(91.0097 90.9957) rotate(-7.54) scale(90.9803)">
<stop stop-color="#FF0003"/>
<stop offset="0.08" stop-color="#F80002"/>
<stop offset="0.2" stop-color="#E60002"/>
<stop offset="0.34" stop-color="#C80002"/>
<stop offset="0.5" stop-color="#9E0001"/>
<stop offset="0.66" stop-color="#690001"/>
<stop offset="0.84" stop-color="#290000"/>
<stop offset="0.94"/>
</radialGradient>
<linearGradient id="paint1_linear_1396_37204" x1="18.3352" y1="78.7496" x2="154.461" y2="102.473" gradientUnits="userSpaceOnUse">
<stop stop-color="#FF5F06"/>
<stop offset="0.02" stop-color="#FC5C09"/>
<stop offset="0.34" stop-color="#DE343C"/>
<stop offset="0.62" stop-color="#C81761"/>
<stop offset="0.85" stop-color="#BA0677"/>
<stop offset="0.99" stop-color="#B60080"/>
</linearGradient>
<linearGradient id="paint2_linear_1396_37204" x1="42.0999" y1="128.43" x2="164.414" y2="112.24" gradientUnits="userSpaceOnUse">
<stop stop-color="#FFBB2F"/>
<stop offset="0.1" stop-color="#FFC625"/>
<stop offset="0.33" stop-color="#FFDC12"/>
<stop offset="0.48" stop-color="#FFE50C"/>
<stop offset="0.55" stop-color="#FFBF0C"/>
<stop offset="0.64" stop-color="#FF9B0C"/>
<stop offset="0.73" stop-color="#FF7F0C"/>
<stop offset="0.81" stop-color="#FF6B0C"/>
<stop offset="0.9" stop-color="#FF5F0C"/>
<stop offset="0.98" stop-color="#FF5C0C"/>
</linearGradient>
<linearGradient id="paint3_linear_1396_37204" x1="24.7603" y1="92.3738" x2="152.788" y2="75.4276" gradientUnits="userSpaceOnUse">
<stop stop-color="#FFBB2F"/>
<stop offset="0.1" stop-color="#FFC625"/>
<stop offset="0.33" stop-color="#FFDC12"/>
<stop offset="0.48" stop-color="#FFE50C"/>
<stop offset="0.55" stop-color="#FFBF0C"/>
<stop offset="0.64" stop-color="#FF9B0C"/>
<stop offset="0.73" stop-color="#FF7F0C"/>
<stop offset="0.81" stop-color="#FF6B0C"/>
<stop offset="0.9" stop-color="#FF5F0C"/>
<stop offset="0.98" stop-color="#FF5C0C"/>
</linearGradient>
<linearGradient id="paint4_linear_1396_37204" x1="36.0487" y1="42.6884" x2="102.607" y2="33.8785" gradientUnits="userSpaceOnUse">
<stop stop-color="#FFBB2F"/>
<stop offset="0.1" stop-color="#FFC625"/>
<stop offset="0.33" stop-color="#FFDC12"/>
<stop offset="0.48" stop-color="#FFE50C"/>
<stop offset="0.52" stop-color="#FFDE11"/>
<stop offset="0.68" stop-color="#FFCA21"/>
<stop offset="0.84" stop-color="#FFBE2B"/>
<stop offset="1" stop-color="#FFBB2F"/>
</linearGradient>
<linearGradient id="paint5_linear_1396_37204" x1="16.7319" y1="73.0422" x2="124.092" y2="58.8317" gradientUnits="userSpaceOnUse">
<stop stop-color="#FFBB2F"/>
<stop offset="0.1" stop-color="#FFC625"/>
<stop offset="0.33" stop-color="#FFDC12"/>
<stop offset="0.48" stop-color="#FFE50C"/>
<stop offset="0.55" stop-color="#FFBF0C"/>
<stop offset="0.64" stop-color="#FF9B0C"/>
<stop offset="0.73" stop-color="#FF7F0C"/>
<stop offset="0.81" stop-color="#FF6B0C"/>
<stop offset="0.9" stop-color="#FF5F0C"/>
<stop offset="0.98" stop-color="#FF5C0C"/>
</linearGradient>
<linearGradient id="paint6_linear_1396_37204" x1="99.6349" y1="160.398" x2="99.6403" y2="27.3717" gradientUnits="userSpaceOnUse">
<stop stop-color="#1C0067"/>
<stop offset="0.1" stop-color="#1C007F"/>
<stop offset="0.29" stop-color="#1C00A4"/>
<stop offset="0.47" stop-color="#1C00C2"/>
<stop offset="0.65" stop-color="#1C00D7"/>
<stop offset="0.83" stop-color="#1C00E3"/>
<stop offset="1" stop-color="#1C00E8"/>
</linearGradient>
</defs>
</svg>
