<svg width="233" height="50" viewBox="0 0 233 50" fill="none" xmlns="http://www.w3.org/2000/svg">
    <path d="M48.0254 33.382L51.8994 15.182H56.2674L53.2254 29.43H62.6374L61.8054 33.382H48.0254Z" fill="#07CF06" />
    <path d="M64.3008 33.382L68.1748 15.182H72.5428L68.6688 33.382H64.3008Z" fill="#07CF06" />
    <path d="M71.6387 33.382L75.5127 15.182H79.8807L78.2427 22.826L86.9007 15.182H92.5687L82.2727 23.918L88.8247 33.382H83.3127L77.8267 24.88L76.0067 33.382H71.6387Z" fill="#07CF06" />
    <path d="M90.1992 33.382L94.0732 15.182H108.139L107.307 19.056H97.6092L96.9072 22.332H103.303L102.523 26.076H96.1272L95.3992 29.508H105.201L104.369 33.382H90.1992Z" fill="#07CF06" />
    <path d="M105.598 33.382L116.7 15.182H121.718L125.15 33.382H120.626L119.898 28.988H112.93L110.382 33.382H105.598ZM114.984 25.426H119.326L118.364 19.602L114.984 25.426Z" fill="#07CF06" />
    <path d="M179.395 25.036C179.395 29.898 183.269 33.694 188.235 33.694C190.939 33.694 193.851 32.446 195.775 30.47L193.357 27.48C192.005 28.858 190.445 29.586 188.781 29.586C185.973 29.586 183.893 27.532 183.893 24.802C183.893 21.656 186.311 19.082 189.301 19.082C191.251 19.082 192.785 19.992 193.747 21.682L197.153 18.822C195.619 16.352 192.941 15 189.535 15C183.945 15 179.395 19.498 179.395 25.036Z" fill="white" />
    <path d="M130.349 22.464L128.025 33.382H132.393L133.927 26.206H140.453L141.233 22.464H130.349Z" fill="white" />
    <path d="M131.074 19.0577H135.435L135.435 19.056H145.237L146.069 15.182H131.899L131.074 19.0577Z" fill="white" />
    <path fill-rule="evenodd" clip-rule="evenodd" d="M150.997 15.182L139.895 33.382H144.679L147.227 28.988H154.195L154.923 33.382H159.447L156.015 15.182H150.997ZM153.623 25.426H149.281L152.661 19.602L153.623 25.426Z" fill="white" />
    <path d="M168.117 33.616C162.761 33.616 159.927 29.976 161.071 24.594L163.073 15.182H167.467L165.361 25.062C164.789 27.766 166.011 29.508 168.429 29.508C170.509 29.508 172.225 28.026 172.667 25.842L174.929 15.182H179.297L176.931 26.284C175.943 30.86 172.641 33.616 168.117 33.616Z" fill="white" />
    <path d="M198.059 26.0747L198.856 22.3312L209.608 22.332L208.828 26.0747H198.059Z" fill="#07CF06" />
    <path d="M197.329 29.507L196.504 33.382H210.674L211.506 29.508H201.704L201.704 29.507H197.329Z" fill="white" />
    <path d="M203.914 19.0577H199.553L200.378 15.182H214.444L213.612 19.056H203.914L203.914 19.0577Z" fill="white" />
    <path d="M221.164 19.134L218.122 33.382H222.517L225.559 19.134H231.356L232.215 15.182H216.173L215.314 19.134H221.164Z" fill="white" />
    <path d="M39.5255 38.6364C39.5255 38.6364 39.3486 38.0189 39.0316 37.0578C38.1909 34.5221 36.367 29.5905 34.2285 27.3505L35.1933 26.8909C35.1933 26.8909 38.4665 30.138 39.089 33.3451C39.089 33.3451 40.2628 28.8152 38.88 24.9067L40.1939 23.8636C40.1939 23.8636 40.5178 24.3612 40.7659 25.5741C41.1816 27.6003 41.3861 31.6167 39.5255 38.6344V38.6364Z" fill="#8EFFC1" />
    <path d="M34.2261 32.959C34.2127 33.0726 33.9331 34.9919 33.4812 37.0604C33.0495 39.0309 32.4589 41.1373 31.7811 41.9522C30.987 42.9074 29.703 43.8982 28.73 44.5818C28.0007 45.0939 27.4504 45.4323 27.4102 45.4546C29.9357 41.5982 32.2039 37.4278 34.2283 32.9546L34.2261 32.959Z" fill="#8EFFC1" />
    <path d="M31.9033 29.7795C31.8453 29.9503 26.3346 37.5655 25.8317 37.7572C25.3481 37.9375 20.4989 39.6951 16.8334 41.3673C16.6729 41.4395 16.5162 41.5116 16.3634 41.5837C12.6573 43.3167 10.3478 46.5909 10.3478 46.5909C10.3478 46.5909 9.90291 45.2755 9.61277 44.8579C9.3265 44.446 7.02665 41.8001 6.95508 41.7185C7.03245 41.7735 9.55861 43.5615 9.84488 43.4875C10.135 43.4116 11.7269 42.1171 13.1409 41.7356C14.5587 41.354 16.2647 41.1642 16.6922 40.7277C16.9456 40.4695 16.9321 39.7217 16.8798 39.1561C16.845 38.7669 16.7889 38.4614 16.7889 38.4614C16.7889 38.4614 17.4504 38.4614 17.6419 39.0517C17.6419 39.0517 19.5046 38.6512 19.8934 38.784L20.0308 37.6243C20.0308 37.6243 21.2126 36.5196 21.3499 35.6256C21.4873 34.7297 25.6363 28.9424 28.3946 28.4091L27.5609 29.994L25.0386 34.7866L25.0425 34.7828C25.2224 34.6139 31.06 29.1531 31.5571 29.2271C32.0619 29.3031 31.9652 29.6087 31.9072 29.7776L31.9033 29.7795Z" fill="#8EFFC1" />
    <path d="M20.5906 32.7565C20.5515 33.1137 18.6121 35.7867 18.1639 35.8933C17.7158 35.9999 15.4975 35.5201 15.4975 35.5201C15.4975 35.5201 14.8634 37.6599 15.7578 38.6924C15.7578 38.6924 15.2186 39.2594 13.7756 39.5722C13.1824 39.7019 12.4349 39.7854 11.5071 39.7712C11.1631 39.7659 10.7967 39.7463 10.4025 39.709C10.4025 39.709 10.105 36.8761 11.1482 34.6812C12.1932 32.4881 12.6785 32.0065 13.0523 31.8839C13.2085 31.8306 13.4279 31.8092 13.6231 31.8217C13.889 31.8359 14.1047 31.9105 14.0415 32.0438C13.9299 32.2749 12.4926 34.0237 12.2137 36.0906C11.9347 38.1593 12.6804 38.6391 12.6804 38.6391V38.6356C12.7752 38.4685 15.7968 33.1155 19.3391 32.186C19.3391 32.186 20.6259 32.3993 20.5887 32.7565H20.5906Z" fill="#07CF06" />
    <path d="M42.1813 12.4216C39.6636 13.4171 29.3478 14.1788 29.3478 14.1788C29.3478 14.1788 32.621 12.3437 34.7015 9.68647C35.4768 8.69489 36.0167 7.72862 36.3885 6.90457C37.0135 5.52141 37.1618 4.54541 37.1618 4.54541C30.1468 8.40072 23.4107 11.4612 17.1057 13.2866C17.1987 12.3086 18.3477 9.88713 18.3359 9.84817C15.7174 10.6936 13.801 14.6171 13.801 14.6171C13.801 14.6171 12.7824 14.1223 12.4917 12.6106C12.199 11.1008 12.5431 9.8618 12.5431 9.8618C12.5431 9.8618 10.6386 11.5041 10.2608 12.1878C9.88507 12.8716 10.0828 14.4554 9.9444 15.2152C9.80596 15.9769 8.4967 16.6607 7.80252 16.6997C7.10834 16.7386 5.99884 17.0328 5.48265 17.5588C5.28686 17.7614 5.17808 18.0088 5.12469 18.2601C5.03767 18.6653 5.08909 19.0783 5.12469 19.3179C5.14446 19.4562 5.03569 19.692 4.87154 19.9433C4.57488 20.405 4.10022 20.9212 3.9341 20.9992C3.67501 21.116 3.43769 21.605 3.59591 22.2109C3.75412 22.8167 4.27229 22.9141 4.27229 22.9141C4.27229 22.9141 3.81543 23.0116 3.69677 23.7733C3.57811 24.535 4.41073 26.1363 4.41073 26.1363C4.41073 26.1363 4.72716 23.3427 5.2829 23.2648C5.83864 23.1869 6.89079 24.7707 6.89079 24.7707C6.89079 24.7707 6.95012 23.0096 7.68386 22.9531C8.41759 22.8947 9.28977 25.1019 9.28977 25.1019C9.28977 25.1019 9.36888 23.4012 10.0235 23.3232C10.6781 23.2453 11.9083 24.7707 11.9083 24.7707C11.9083 24.7707 11.8094 23.0895 13.9908 22.7174C16.1742 22.3472 22.7007 25.8227 24.4648 25.8051C26.2309 25.7857 29.5852 22.9531 30.5958 22.8538C31.6064 22.7563 35.3166 21.6635 36.171 21.5836C36.9265 21.5154 39.5034 19.9102 40.0809 19.5459C40.1561 19.4991 40.1976 19.4718 40.1976 19.4718C36.3688 19.3335 31.4897 17.0309 31.4897 17.0309C36.6437 16.2984 42.0112 12.5405 42.1773 12.4216C42.1773 12.4216 42.1813 12.4216 42.1813 12.4177V12.4216ZM10.9669 21.7336C9.26011 21.4686 9.10189 20.7751 7.55531 21.1569C7.50784 21.1686 9.30164 18.7627 11.3248 19.1348C13.3481 19.5069 12.6737 21.9966 10.9669 21.7336ZM28.4124 12.6612C27.9793 14.8646 26.6206 19.6764 22.8411 21.1355C22.8411 21.1355 26.1321 21.4102 28.3748 18.8114C28.3748 18.8114 27.5817 24.009 22.9993 23.5005C18.417 22.9921 15.5394 18.9673 15.5394 18.9673C15.5394 18.9673 15.2625 18.9127 14.8847 18.7257C14.3053 18.4374 13.4865 17.8393 13.0791 16.6412C13.0791 16.6412 14.863 18.2621 20.0407 17.0114C25.2184 15.7607 28.5904 11.5391 28.5904 11.5391C28.5904 11.5391 28.5469 11.9716 28.4104 12.6593L28.4124 12.6612Z" fill="#8EFFC1" />
    <path d="M24.0005 18.1818C24.0005 18.1818 23.5385 19.5943 22.5874 20.1847C22.4045 20.2986 22.2024 20.3822 21.9829 20.4201C20.6198 20.648 19.4551 19.6683 19.4551 19.6683C19.4551 19.6683 19.7265 19.5943 20.1385 19.4785C20.3137 19.4291 20.5178 19.3683 20.7373 19.3057C20.8932 19.6797 21.2648 19.9436 21.7018 19.9436C22.2775 19.9436 22.7453 19.4842 22.7453 18.9146C22.7453 18.8368 22.7337 18.7627 22.7183 18.6906C23.2689 18.5026 23.7464 18.3223 23.9986 18.1818H24.0005Z" fill="#8EFFC1" />
    <path d="M6.11561 31.6962C6.11561 31.6962 5.44554 28.8168 5.8322 27.8648C5.8322 27.8648 6.78567 29.2454 7.92336 29.5381C7.92336 29.5381 7.88287 28.1188 8.08531 27.3801C8.08531 27.3801 9.18251 29.0534 10.4214 29.2473C10.4214 29.2473 10.2797 27.3607 10.6036 26.874L12.0652 28.2545C9.83436 31.3084 8.07924 34.465 7.08932 37.7845C7.08932 37.7845 5.567 36.6755 5.20059 35.6071C5.20059 35.6071 3.86047 38.6028 5.11962 41.6373C6.37877 44.6717 8.49018 48.9704 11.6583 49.9031C11.6583 49.9031 11.9012 44.8656 23.1101 41.17C23.1101 41.17 25.507 46.0135 21.5878 50C28.2176 48.0339 33.9222 44.8288 37.1632 38.3313C37.1632 38.3313 38.0357 39.167 37.894 41.073C37.7523 42.979 39.2139 44.0299 39.2139 44.0299C39.2139 44.0299 42.6857 37.4956 43.0521 31.0777C43.4185 24.6597 42.5237 21.8191 42.5237 21.8191C42.5237 21.8191 44.5542 20.807 45.3052 19.1356L39.558 17.6193C39.558 17.6193 46.5016 13.3982 47.864 9.84023C47.864 9.84023 39.4568 11.3565 37.224 11.436C37.224 11.436 41.631 3.88956 41.9549 0C41.9549 0 25.0596 8.81064 20.9582 9.9779C20.9582 9.9779 22.0757 8.18824 23.679 7.21682C23.679 7.21682 17.8508 7.56777 14.9276 10.2513C14.9276 10.2513 14.8669 7.89739 15.8406 6.38112C15.8406 6.38112 13.5673 6.30356 11.6785 8.36468C9.78982 10.4258 6.94762 12.2348 6.68243 12.8185C6.41724 13.4021 6.68243 15.2499 6.68243 15.2499C5.7492 16.202 4.26534 15.1666 3.31794 15.8588C2.37054 16.5529 2.1681 18.1021 2.46568 18.7769C2.46568 18.7769 0.570882 19.9577 0.192327 22.1352C-0.186228 24.3126 1.49197 24.9234 1.49197 24.9234C1.49197 24.9234 1.97174 29.5265 6.11561 31.704V31.6962ZM10.7858 34.4185C11.9235 32.0258 12.4519 31.5004 12.8567 31.3646C13.2636 31.2289 14.0551 31.2871 13.9337 31.5392C13.8122 31.7912 12.2474 33.6972 11.9437 35.9542C11.6401 38.2111 12.4519 38.7346 12.4519 38.7346C12.4519 38.7346 15.7819 32.7258 19.7011 31.6943C19.7011 31.6943 21.1019 31.9269 21.0615 32.3167C21.021 32.7064 18.9096 35.6226 18.4217 35.7389C17.9338 35.8553 15.5188 35.3298 15.5188 35.3298C15.5188 35.3298 14.8285 37.6643 15.8022 38.7909C15.8022 38.7909 14.3608 40.3071 9.97404 39.9C9.97404 39.9 9.65014 36.8073 10.7858 34.4146V34.4185ZM27.0718 37.199C26.5434 37.3929 21.0412 39.3377 17.1625 41.1079C13.2839 42.8782 10.8668 46.2229 10.8668 46.2229C10.8668 46.2229 10.3992 44.8811 10.0955 44.4526C9.79184 44.0241 7.31403 41.2437 7.31403 41.2437C7.31403 41.2437 10.0348 43.1303 10.3404 43.0527C10.6461 42.9751 12.3101 41.6528 13.792 41.263C15.2738 40.8733 17.0613 40.6794 17.5087 40.2315C17.9561 39.7836 17.6099 37.9164 17.6099 37.9164C17.6099 37.9164 18.3002 37.9164 18.5027 38.5194C18.5027 38.5194 20.4521 38.1103 20.859 38.248L21.0007 37.0613C21.0007 37.0613 22.2396 35.9328 22.3813 35.0196C22.523 34.1063 26.8693 28.1925 29.752 27.6477L26.2398 34.1626C26.2398 34.1626 32.5355 28.4058 33.0619 28.4833C33.5882 28.5609 33.489 28.8731 33.4283 29.0476C33.3675 29.2221 27.6001 37.0031 27.0718 37.197V37.199ZM31.9242 41.8273C30.6448 43.3048 27.9645 44.8811 27.9645 44.8811C30.2521 41.5229 32.3048 37.8873 34.1368 33.99C34.1368 33.99 33.2036 40.3498 31.9242 41.8273ZM39.8637 37.6062C39.8637 37.6062 37.7928 29.6506 35.1935 26.6568L36.0458 26.2089C36.0458 26.2089 38.9285 29.3598 39.4771 32.4718C39.4771 32.4718 40.5135 28.0762 39.2949 24.2836L40.4528 23.2714C40.4528 23.2714 42.4832 26.7131 39.8637 37.6062ZM3.25316 24.5395C3.37462 23.7814 3.84225 23.6844 3.84225 23.6844C3.84225 23.6844 3.31389 23.5875 3.15194 22.9845C2.98999 22.3814 3.23292 21.8948 3.49811 21.7784C3.76127 21.6621 4.7775 20.4948 4.71677 20.1051C4.65604 19.7154 4.55482 18.8797 5.08318 18.3542C5.61154 17.8288 6.74923 17.5379 7.45978 17.4991C8.17033 17.4604 9.51046 16.7798 9.65216 16.0216C9.79387 15.2635 9.59143 13.6871 9.97606 13.0066C10.3627 12.326 12.3122 10.6914 12.3122 10.6914C12.3122 10.6914 11.9599 11.9227 12.2575 13.4273C12.5551 14.9319 13.5976 15.4244 13.5976 15.4244C13.5976 15.4244 15.5613 11.5213 18.2415 10.6798C18.2557 10.7186 17.0775 13.1306 16.9824 14.1021C23.434 12.2853 30.331 9.23721 37.5114 5.40195C37.5114 5.40195 37.1248 7.87218 34.9931 10.5169C32.8615 13.1617 29.5111 14.9901 29.5111 14.9901C29.5111 14.9901 40.0702 14.232 42.6492 13.2392C42.6492 13.2392 37.0661 17.09 31.7035 17.8288C31.7035 17.8288 36.6996 20.1245 40.6168 20.2602C40.6168 20.2602 37.3677 22.2825 36.4952 22.3601C35.6227 22.4377 31.825 23.5274 30.7885 23.6243C29.752 23.7213 26.3207 26.5424 24.515 26.5618C22.7093 26.5812 16.0269 23.1202 13.794 23.4886C11.5611 23.8589 11.6624 25.5303 11.6624 25.5303C11.6624 25.5303 10.4032 24.014 9.73314 24.0916C9.06308 24.1692 8.9821 25.8619 8.9821 25.8619C8.9821 25.8619 8.08936 23.665 7.33832 23.7232C6.58728 23.7814 6.52655 25.5322 6.52655 25.5322C6.52655 25.5322 5.44959 23.9578 4.88277 24.0354C4.31595 24.1129 3.99003 26.8953 3.99003 26.8953C3.99003 26.8953 3.13777 25.2996 3.25923 24.5414L3.25316 24.5395Z" fill="#1E2C39" />
    <path d="M10.8202 23.8388C12.7533 24.1762 13.5172 20.9796 11.2256 20.5048C8.93407 20.0274 6.90236 23.114 6.95612 23.099C8.70782 22.6092 8.88927 23.4989 10.8202 23.8388Z" fill="#0A0E16" />
    <path d="M16.1163 19.8056C16.1163 19.8056 18.8546 24.382 23.2201 24.9602C27.5838 25.5384 28.339 19.6283 28.339 19.6283C26.2052 22.5834 23.0676 22.2732 23.0676 22.2732C27.791 20.0957 28.5462 11.3636 28.5462 11.3636C28.5462 11.3636 25.3351 16.1639 20.4046 17.586C15.4741 19.0081 13.7734 17.1629 13.7734 17.1629C14.4156 19.4068 16.1163 19.8078 16.1163 19.8078V19.8056ZM20.6513 18.76C20.8039 19.1964 21.1692 19.5043 21.5948 19.5043C22.158 19.5043 22.6156 18.966 22.6156 18.3037C22.6156 18.2129 22.6062 18.1265 22.5911 18.0401C23.1316 17.823 23.5968 17.6104 23.8435 17.4464C23.8435 17.4464 23.2013 19.7901 21.8698 20.0581C20.5383 20.3239 19.3989 19.1809 19.3989 19.1809C19.3989 19.1809 19.9413 19.0059 20.6532 18.7578L20.6513 18.76Z" fill="#0A0E16" />
    <path d="M37.6365 4.54541C37.6365 4.54541 37.4892 5.51584 36.8686 6.8911C33.618 8.87069 24.0254 14.3601 16.0257 15.3751C16.0257 15.3751 16.2614 14.0541 16.6032 13.3548C16.6032 13.3548 14.5546 14.9335 14.476 16.0743C14.476 16.0743 11.8481 14.7262 11.8756 12.9655C11.8756 12.9655 11.3237 14.3388 11.9542 15.53C12.5846 16.7213 11.691 17.7847 9.48531 17.4728C7.82369 17.2385 6.60989 17.4012 5.81836 18.1818C5.87139 17.9338 5.97941 17.6859 6.17386 17.4845C6.68648 16.9615 7.7903 16.669 8.47773 16.6302C9.16712 16.5915 10.4673 15.9097 10.6048 15.1543C10.7443 14.3969 10.5459 12.8221 10.9191 12.1442C11.2942 11.4643 13.1856 9.83144 13.1856 9.83144C13.1856 9.83144 12.8439 11.0634 13.1346 12.5645C13.4233 14.0676 14.4348 14.5596 14.4348 14.5596C14.4348 14.5596 16.338 10.6605 18.9384 9.81788C18.9502 9.85662 17.8091 12.2662 17.7168 13.2367C23.9763 11.4217 30.668 8.3787 37.6346 4.54541H37.6365Z" fill="#07CF06" />
    <path d="M30.2008 21.4793C30.4677 20.8812 30.5459 20.0119 30.5459 20.0119C29.9147 21.1902 28.3664 22.1154 28.3664 22.1154C29.6859 20.4095 29.4952 16.7121 29.4952 16.7121C28.8927 17.8723 26.7512 18.9963 26.6845 19.0306C27.3729 17.3536 28.3492 12.9789 28.3664 12.5C27.9487 14.5439 25.7959 20.1438 22.1518 21.4974C22.1518 21.4974 25.3249 21.7522 27.4873 19.3415C27.4873 19.3415 26.7226 24.1629 22.3044 23.6913C17.8861 23.2196 15.1116 19.486 15.1116 19.486C15.1116 19.486 14.8447 19.4354 14.4805 19.262C14.6978 19.9957 15.4167 20.8992 15.4167 20.8992L14.6692 20.9354C14.6692 20.9354 13.5976 18.8319 10.1938 19.1409C6.79001 19.4481 5.98531 22.2202 5.98531 22.2202C5.98531 22.2202 4.05173 22.3124 4.55133 21.5335C4.82974 21.0962 4.85643 20.6751 4.82402 20.3914C4.53798 20.8197 4.08033 21.2986 3.92016 21.3709C3.67035 21.4793 3.44153 21.9329 3.59408 22.4949C3.74663 23.057 4.24623 23.1473 4.24623 23.1473C4.24623 23.1473 3.80574 23.2377 3.69133 23.9443C3.57692 24.6509 4.37971 26.1363 4.37971 26.1363C4.37971 26.1363 4.68481 23.5449 5.22065 23.4726C5.75648 23.4003 6.77094 24.8695 6.77094 24.8695C6.77094 24.8695 6.82815 23.2359 7.5356 23.1835C8.24305 23.1292 9.08398 25.1767 9.08398 25.1767C9.08398 25.1767 9.16026 23.5991 9.79144 23.5268C10.4226 23.4545 11.6087 24.8695 11.6087 24.8695C11.6087 24.8695 11.5134 23.31 13.6166 22.9648C15.7218 22.6214 22.0145 25.8454 23.7155 25.8291C25.4183 25.811 28.6524 23.1835 29.6268 23.0913C30.6012 23.0009 34.1785 21.9871 35.0023 21.913C35.7307 21.8498 38.2154 20.3607 38.7722 20.0228C35.0023 21.2607 30.2008 21.4775 30.2008 21.4775V21.4793ZM10.6991 22.0504C9.05348 21.8046 8.90092 21.1613 7.40974 21.5155C7.36398 21.5263 9.09352 19.2945 11.0443 19.6396C12.995 19.9848 12.3447 22.2943 10.6991 22.0504Z" fill="#07CF06" />
    <path d="M40.6488 13.2713C40.4743 13.3866 34.7672 17.0925 29.2852 17.8168L31.3859 15.9091C31.3859 15.9091 36.8385 15.3577 40.6488 13.2732V13.2713Z" fill="#07CF06" />
    <path d="M28.5415 28.4109L27.7252 29.9721C26.5907 30.6451 23.9885 32.3895 22.4563 35.0107C22.4563 35.0107 22.3123 36.9982 20.621 37.6357L20.7536 39.023C20.7536 39.023 18.4733 39.1538 17.7896 39.7727C17.7896 39.7727 17.693 39.3146 17.2707 38.9949C17.2366 38.6116 17.1816 38.3106 17.1816 38.3106C17.1816 38.3106 17.8294 38.3106 18.0169 38.8921C18.0169 38.8921 19.8407 38.4976 20.2214 38.6285L20.3559 37.4861C20.3559 37.4861 21.5131 36.398 21.6476 35.5174C21.782 34.6349 25.8445 28.9344 28.5453 28.4091L28.5415 28.4109Z" fill="#07CF06" />
    <path d="M31.9076 29.0303C31.8509 29.2221 26.4659 37.7753 25.9745 37.9906C25.502 38.1931 20.7634 40.1672 17.1816 42.0454C20.4875 39.8325 25.1844 37.4683 25.1844 37.4683L27.5093 33.4198L25.1958 34.6542L25.1995 34.6499C25.3753 34.4602 31.0797 28.3268 31.5655 28.4099C32.0588 28.4952 31.9643 28.8384 31.9076 29.0281V29.0303Z" fill="#07CF06" />
    <path d="M27.4102 45.4546C29.9357 41.5982 32.2039 37.4278 34.2283 32.9546C34.2149 33.0681 33.9353 34.9875 33.4834 37.0559C31.9064 39.9126 29.9893 43.1746 28.7322 44.5773C28.0029 45.0894 27.4527 45.4279 27.4124 45.4501L27.4102 45.4546Z" fill="#07CF06" />
    <path d="M40.1483 26.0085C40.1483 26.0085 41.4204 32.0872 39.2379 36.3636C38.3611 33.9613 36.4589 29.2892 34.2285 27.1671L35.2347 26.7317C35.2347 26.7317 38.6486 29.8079 39.2978 32.8463C39.2978 32.8463 40.522 28.5547 39.0798 24.8518L40.4502 23.8636C40.4502 23.8636 40.788 24.335 41.0467 25.4841L40.1459 26.0085H40.1483Z" fill="#07CF06" />
    <path d="M11.5594 39.7728C11.1997 39.7675 10.8166 39.7479 10.4043 39.7106C10.4043 39.7106 10.0932 36.8771 11.1841 34.6818C12.277 32.4883 12.7845 32.0066 13.1754 31.8839C13.3387 31.8306 13.5682 31.8092 13.7724 31.8217C13.2473 32.4172 11.2483 35.0142 11.5594 39.7728Z" fill="#8EFFC1" />
    <path d="M19.3303 31.8182C15.7685 32.8193 12.7321 38.5842 12.6367 38.7641V38.7679C12.6367 38.7679 13.9287 37.0989 14.6224 36.7334C14.6224 36.7334 14.4728 38.2684 15.0169 38.9019C15.0169 38.9019 14.5906 39.3555 13.738 39.7728C15.187 39.4359 15.7311 38.8254 15.7311 38.8254C14.8318 37.7133 15.4694 35.4089 15.4694 35.4089C15.4694 35.4089 17.6999 35.9257 18.1505 35.8108C18.6012 35.696 20.5513 32.8154 20.5905 32.4326C20.6261 32.0479 19.3341 31.8182 19.3341 31.8182H19.3303ZM18.9919 33.9676C18.8797 34.1782 18.2609 34.9476 18.1113 35.005C18.0346 35.0337 17.7673 35.0682 17.513 35.0261C17.1783 34.9706 17.0343 34.5533 17.2549 34.2892C17.6588 33.8069 18.4104 32.9724 18.7302 33.026C19.1808 33.1025 19.106 33.7552 18.9919 33.9676Z" fill="#017500" />
    <path d="M22.8642 19.8263C22.6651 20.0915 22.4451 20.2861 22.2062 20.3745C20.7227 20.905 19.4551 18.6238 19.4551 18.6238C19.4551 18.6238 19.7505 18.4514 20.1989 18.1818C20.5174 18.8184 21.2592 19.7777 22.8621 19.8307L22.8642 19.8263Z" fill="#07CF06" />
</svg>