<svg width="20" height="20" viewBox="0 0 20 20" fill="none" xmlns="http://www.w3.org/2000/svg">
    <g clip-path="url(#clip0_1396_53026)">
        <g filter="url(#filter0_d_1396_53026)">
            <path
                d="M18.5633 8.06719C18.1594 6.1668 17.0883 4.43711 15.5469 3.19688C13.9706 1.93567 12.0118 1.249 9.99301 1.25C7.61332 1.25 5.39067 2.1668 3.72895 3.83164C2.12309 5.44258 1.24301 7.56953 1.25004 9.81914C1.2501 11.4685 1.73431 13.0815 2.64262 14.4582L2.81254 14.6945L1.87504 18.75L6.35942 17.6344C6.35942 17.6344 6.44926 17.6645 6.51567 17.6898C6.58207 17.7152 7.15356 17.9344 7.75981 18.1039C8.26371 18.2445 9.31215 18.4555 10.1336 18.4555C12.4637 18.4555 14.6395 17.5531 16.2598 15.9141C17.8657 14.2879 18.75 12.1258 18.75 9.82383C18.7502 9.23332 18.6876 8.64447 18.5633 8.06719ZM6.25004 11.25C6.00282 11.25 5.76114 11.1767 5.55558 11.0393C5.35002 10.902 5.1898 10.7068 5.09519 10.4784C5.00058 10.2499 4.97583 9.99861 5.02406 9.75614C5.07229 9.51366 5.19134 9.29093 5.36616 9.11612C5.54097 8.9413 5.7637 8.82225 6.00618 8.77402C6.24866 8.72579 6.49999 8.75054 6.7284 8.84515C6.9568 8.93976 7.15203 9.09998 7.28938 9.30554C7.42673 9.5111 7.50004 9.75277 7.50004 10C7.50004 10.3315 7.36835 10.6495 7.13392 10.8839C6.8995 11.1183 6.58156 11.25 6.25004 11.25ZM10 11.25C9.75282 11.25 9.51114 11.1767 9.30558 11.0393C9.10002 10.902 8.9398 10.7068 8.84519 10.4784C8.75058 10.2499 8.72583 9.99861 8.77406 9.75614C8.82229 9.51366 8.94134 9.29093 9.11616 9.11612C9.29097 8.9413 9.5137 8.82225 9.75618 8.77402C9.99866 8.72579 10.25 8.75054 10.4784 8.84515C10.7068 8.93976 10.902 9.09998 11.0394 9.30554C11.1767 9.5111 11.25 9.75277 11.25 10C11.25 10.3315 11.1183 10.6495 10.8839 10.8839C10.6495 11.1183 10.3316 11.25 10 11.25ZM13.75 11.25C13.5028 11.25 13.2611 11.1767 13.0556 11.0393C12.85 10.902 12.6898 10.7068 12.5952 10.4784C12.5006 10.2499 12.4758 9.99861 12.5241 9.75614C12.5723 9.51366 12.6913 9.29093 12.8662 9.11612C13.041 8.9413 13.2637 8.82225 13.5062 8.77402C13.7487 8.72579 14 8.75054 14.2284 8.84515C14.4568 8.93976 14.652 9.09998 14.7894 9.30554C14.9267 9.5111 15 9.75277 15 10C15 10.3315 14.8683 10.6495 14.6339 10.8839C14.3995 11.1183 14.0816 11.25 13.75 11.25Z"
                fill="#8691B2" />
        </g>
    </g>
    <defs>
        <filter id="filter0_d_1396_53026" x="-1.75" y="0.25" width="23.5" height="23.5"
            filterUnits="userSpaceOnUse" color-interpolation-filters="sRGB">
            <feFlood flood-opacity="0" result="BackgroundImageFix" />
            <feColorMatrix in="SourceAlpha" type="matrix"
                values="0 0 0 0 0 0 0 0 0 0 0 0 0 0 0 0 0 0 127 0" result="hardAlpha" />
            <feOffset dy="2" />
            <feGaussianBlur stdDeviation="1.5" />
            <feComposite in2="hardAlpha" operator="out" />
            <feColorMatrix type="matrix" values="0 0 0 0 0 0 0 0 0 0 0 0 0 0 0 0 0 0 0.1 0" />
            <feBlend mode="normal" in2="BackgroundImageFix" result="effect1_dropShadow_1396_53026" />
            <feBlend mode="normal" in="SourceGraphic" in2="effect1_dropShadow_1396_53026"
                result="shape" />
        </filter>
        <clipPath id="clip0_1396_53026">
            <rect width="20" height="20" fill="white" />
        </clipPath>
    </defs>
</svg>
    