<svg width="22" height="22" viewBox="0 0 22 22" fill="none" xmlns="http://www.w3.org/2000/svg">
    <path
        d="M19.3571 6.50001H16.1429V2.64287C16.1429 2.28782 15.855 2 15.5 2H2.64287C2.28782 2 2 2.28782 2 2.64287V17.4286C2 18.8487 3.15127 20 4.57144 20H17.4286C18.8487 20 20 18.8487 20 17.4286V7.14284C20 6.78783 19.7122 6.50001 19.3571 6.50001ZM7.14284 5.21427H11C11.355 5.21427 11.6428 5.50209 11.6428 5.85714C11.6428 6.21219 11.355 6.50001 11 6.50001H7.14284C6.78779 6.50001 6.49997 6.21219 6.49997 5.85714C6.49997 5.50209 6.78783 5.21427 7.14284 5.21427ZM12.9286 17.4286H5.21427C4.85922 17.4286 4.5714 17.1407 4.5714 16.7857C4.5714 16.4306 4.85922 16.1428 5.21427 16.1428H12.9286C13.2836 16.1428 13.5714 16.4306 13.5714 16.7857C13.5714 17.1407 13.2836 17.4286 12.9286 17.4286ZM12.9286 14.8571H5.21427C4.85922 14.8571 4.5714 14.5693 4.5714 14.2143C4.5714 13.8592 4.85922 13.5714 5.21427 13.5714H12.9286C13.2836 13.5714 13.5714 13.8592 13.5714 14.2143C13.5714 14.5693 13.2836 14.8571 12.9286 14.8571ZM12.9286 12.2857H5.21427C4.85922 12.2857 4.5714 11.9979 4.5714 11.6428C4.5714 11.2878 4.85922 11 5.21427 11H12.9286C13.2836 11 13.5714 11.2878 13.5714 11.6428C13.5714 11.9979 13.2836 12.2857 12.9286 12.2857ZM12.9286 9.71428H5.21427C4.85922 9.71428 4.5714 9.42646 4.5714 9.07141C4.5714 8.71636 4.85922 8.42854 5.21427 8.42854H12.9286C13.2836 8.42854 13.5714 8.71636 13.5714 9.07141C13.5714 9.42646 13.2836 9.71428 12.9286 9.71428ZM18.7143 17.4286C18.7143 18.1386 18.1386 18.7143 17.4286 18.7143C16.7185 18.7143 16.1429 18.1386 16.1429 17.4286V7.78571H18.7143V17.4286H18.7143Z"
        fill="#4E556F" />
</svg>
    