<svg width="22" height="22" viewBox="0 0 22 22" fill="none" xmlns="http://www.w3.org/2000/svg">
    <path fill-rule="evenodd" clip-rule="evenodd"
        d="M1.83398 2.74992C1.83398 2.5068 1.93056 2.27365 2.10247 2.10174C2.27438 1.92983 2.50754 1.83325 2.75065 1.83325H9.16732C9.41043 1.83325 9.64359 1.92983 9.8155 2.10174C9.98741 2.27365 10.084 2.5068 10.084 2.74992V9.16659C10.084 9.4097 9.98741 9.64286 9.8155 9.81477C9.64359 9.98668 9.41043 10.0833 9.16732 10.0833H2.75065C2.50754 10.0833 2.27438 9.98668 2.10247 9.81477C1.93056 9.64286 1.83398 9.4097 1.83398 9.16659V2.74992ZM4.58398 5.49992C4.58398 5.2568 4.68056 5.02365 4.85247 4.85174C5.02438 4.67983 5.25754 4.58325 5.50065 4.58325H6.41732C6.66043 4.58325 6.89359 4.67983 7.0655 4.85174C7.23741 5.02365 7.33398 5.2568 7.33398 5.49992V6.41659C7.33398 6.6597 7.23741 6.89286 7.0655 7.06477C6.89359 7.23667 6.66043 7.33325 6.41732 7.33325H5.50065C5.25754 7.33325 5.02438 7.23667 4.85247 7.06477C4.68056 6.89286 4.58398 6.6597 4.58398 6.41659V5.49992ZM1.83398 12.8333C1.83398 12.5901 1.93056 12.357 2.10247 12.1851C2.27438 12.0132 2.50754 11.9166 2.75065 11.9166H9.16732C9.41043 11.9166 9.64359 12.0132 9.8155 12.1851C9.98741 12.357 10.084 12.5901 10.084 12.8333V19.2499C10.084 19.493 9.98741 19.7262 9.8155 19.8981C9.64359 20.07 9.41043 20.1666 9.16732 20.1666H2.75065C2.50754 20.1666 2.27438 20.07 2.10247 19.8981C1.93056 19.7262 1.83398 19.493 1.83398 19.2499V12.8333ZM5.50065 14.6666C5.25754 14.6666 5.02438 14.7632 4.85247 14.9351C4.68056 15.107 4.58398 15.3401 4.58398 15.5833V16.4999C4.58398 16.743 4.68056 16.9762 4.85247 17.1481C5.02438 17.32 5.25754 17.4166 5.50065 17.4166H6.41732C6.66043 17.4166 6.89359 17.32 7.0655 17.1481C7.23741 16.9762 7.33398 16.743 7.33398 16.4999V15.5833C7.33398 15.3401 7.23741 15.107 7.0655 14.9351C6.89359 14.7632 6.66043 14.6666 6.41732 14.6666H5.50065ZM12.834 1.83325C12.5909 1.83325 12.3577 1.92983 12.1858 2.10174C12.0139 2.27365 11.9173 2.5068 11.9173 2.74992V9.16659C11.9173 9.4097 12.0139 9.64286 12.1858 9.81477C12.3577 9.98668 12.5909 10.0833 12.834 10.0833H19.2507C19.4938 10.0833 19.7269 9.98668 19.8988 9.81477C20.0707 9.64286 20.1673 9.4097 20.1673 9.16659V2.74992C20.1673 2.5068 20.0707 2.27365 19.8988 2.10174C19.7269 1.92983 19.4938 1.83325 19.2507 1.83325H12.834ZM14.6673 5.49992C14.6673 5.2568 14.7639 5.02365 14.9358 4.85174C15.1077 4.67983 15.3409 4.58325 15.584 4.58325H16.5007C16.7438 4.58325 16.9769 4.67983 17.1488 4.85174C17.3207 5.02365 17.4173 5.2568 17.4173 5.49992V6.41659C17.4173 6.6597 17.3207 6.89286 17.1488 7.06477C16.9769 7.23667 16.7438 7.33325 16.5007 7.33325H15.584C15.3409 7.33325 15.1077 7.23667 14.9358 7.06477C14.7639 6.89286 14.6673 6.6597 14.6673 6.41659V5.49992Z"
        fill="#4E556F" />
    <path
        d="M12.8346 11.9165C12.5915 11.9165 12.3584 12.0131 12.1865 12.185C12.0145 12.3569 11.918 12.5901 11.918 12.8332V13.7498C11.918 13.993 12.0145 14.2261 12.1865 14.398C12.3584 14.5699 12.5915 14.6665 12.8346 14.6665H13.7513V16.4998C13.7513 16.743 13.8479 16.9761 14.0198 17.148C14.1917 17.3199 14.4249 17.4165 14.668 17.4165H15.5846C15.8278 17.4165 16.0609 17.3199 16.2328 17.148C16.4047 16.9761 16.5013 16.743 16.5013 16.4998V14.6665C16.5013 14.4234 16.4047 14.1902 16.2328 14.0183C16.0609 13.8464 15.8278 13.7498 15.5846 13.7498H14.668V12.8332C14.668 12.5901 14.5714 12.3569 14.3995 12.185C14.2276 12.0131 13.9944 11.9165 13.7513 11.9165H12.8346ZM12.8346 17.4165C12.5915 17.4165 12.3584 17.5131 12.1865 17.685C12.0145 17.8569 11.918 18.0901 11.918 18.3332V19.2498C11.918 19.493 12.0145 19.7261 12.1865 19.898C12.3584 20.0699 12.5915 20.1665 12.8346 20.1665H13.7513C13.9944 20.1665 14.2276 20.0699 14.3995 19.898C14.5714 19.7261 14.668 19.493 14.668 19.2498V18.3332C14.668 18.0901 14.5714 17.8569 14.3995 17.685C14.2276 17.5131 13.9944 17.4165 13.7513 17.4165H12.8346ZM16.5013 12.8332C16.5013 12.5901 16.5979 12.3569 16.7698 12.185C16.9417 12.0131 17.1749 11.9165 17.418 11.9165H18.3346C18.5778 11.9165 18.8109 12.0131 18.9828 12.185C19.1547 12.3569 19.2513 12.5901 19.2513 12.8332V13.7498C19.2513 13.993 19.1547 14.2261 18.9828 14.398C18.8109 14.5699 18.5778 14.6665 18.3346 14.6665H17.418C17.1749 14.6665 16.9417 14.5699 16.7698 14.398C16.5979 14.2261 16.5013 13.993 16.5013 13.7498V12.8332ZM17.418 17.4165C17.1749 17.4165 16.9417 17.5131 16.7698 17.685C16.5979 17.8569 16.5013 18.0901 16.5013 18.3332V19.2498C16.5013 19.493 16.5979 19.7261 16.7698 19.898C16.9417 20.0699 17.1749 20.1665 17.418 20.1665H18.3346C18.5778 20.1665 18.8109 20.0699 18.9828 19.898C19.1547 19.7261 19.2513 19.493 19.2513 19.2498V18.3332C19.2513 18.0901 19.1547 17.8569 18.9828 17.685C18.8109 17.5131 18.5778 17.4165 18.3346 17.4165H17.418Z"
        fill="#4E556F" />
</svg>
    