<svg width="22" height="22" viewBox="0 0 22 22" fill="none" xmlns="http://www.w3.org/2000/svg">
    <g clip-path="url(#clip0_1396_36772)">
        <path
            d="M18.8856 2.83243H20.1747V4.12158H18.8856V2.83243ZM17.1667 5.41073H18.4558V6.69989H17.1667V5.41073ZM1.82422 2.83243H3.11329V4.12158H1.82422V2.83243ZM3.5431 5.41073H4.83217V6.69989H3.5431V5.41073ZM16.7181 0.644534V0H5.28085V0.644534C5.28085 1.44835 5.54077 2.21032 6.01287 2.83247H15.986C16.4581 2.21036 16.7181 1.44835 16.7181 0.644534ZM18.4115 9.86072L15.7118 6.69984H6.28903L3.58848 9.86038C2.45028 11.1932 1.82473 12.8883 1.82422 14.641C1.82422 18.6988 5.12548 22 9.18329 22H12.8156C16.8734 22 20.1747 18.6988 20.1747 14.6402C20.1742 12.888 19.549 11.1934 18.4115 9.86072ZM11.7903 17.6304H11.644V18.6038H10.3549V17.6304H8.5611V16.3413H11.7903C12.176 16.3413 12.4898 16.0275 12.4898 15.6418C12.4898 15.256 12.176 14.9422 11.7903 14.9422H10.1295C9.06178 14.9422 8.19316 14.0736 8.19316 13.0059C8.19316 11.9383 9.06178 11.0696 10.1295 11.0696H10.3549V10.0962H11.6439V11.0696H12.8989V12.3587H10.1295C9.77257 12.3587 9.48223 12.6491 9.48223 13.0059C9.48223 13.3628 9.77257 13.6532 10.1295 13.6532H11.7903C12.8868 13.6532 13.7789 14.5453 13.7789 15.6418C13.7789 16.7383 12.8868 17.6304 11.7903 17.6304ZM7.04185 4.12154H14.9571V5.41077H7.04185V4.12154Z"
            fill="#4E556F" />
    </g>
    <defs>
        <clipPath id="clip0_1396_36772">
            <rect width="22" height="22" fill="white" />
        </clipPath>
    </defs>
</svg>
    