<svg width="21" height="20" viewBox="0 0 21 20" fill="none" xmlns="http://www.w3.org/2000/svg">
<g id="Frame" clip-path="url(#clip0_1396_37363)">
<g id="Group">
<g id="layer1">
<g id="Group_2">
<path id="Vector" d="M19.601 11.157C19.0517 16.2174 15.5886 19.887 11.8137 19.887C11.6111 19.887 11.4086 19.8793 11.2138 19.8559C10.9995 19.8364 10.7931 19.8013 10.5866 19.7585C7.36495 19.0923 4.6614 15.6837 4.31859 11.157C3.93682 6.07326 6.59751 1.34011 10.5866 0.299983C11.0891 0.167533 11.6111 0.0974121 12.1448 0.0974121C16.7066 0.0974121 19.9399 4.93574 19.6634 10.4052C19.6634 10.4052 19.6634 10.4052 19.6634 10.4169C19.6556 10.6623 19.6322 10.9116 19.6049 11.157H19.601Z" fill="url(#paint0_linear_1396_37363)"/>
<path id="Vector_2" d="M9.35963 19.887C9.35963 19.887 11.8645 20.2337 13.2591 19.7117L13.9525 0.444078C13.9525 0.444078 13.1033 -0.25713 8.74023 0.101265L9.35963 19.887Z" fill="url(#paint1_linear_1396_37363)"/>
<path id="Vector_3" d="M16.855 11.157C16.5122 15.6876 13.8086 19.0923 10.5869 19.7585C10.1896 19.8442 9.77666 19.887 9.35983 19.887C6.81211 19.887 4.46307 18.2587 3.0178 15.7071C2.99053 15.6603 2.96326 15.6175 2.94378 15.5824C2.89314 15.4928 2.86587 15.4383 2.86587 15.4383C2.21141 14.2034 1.75173 12.7581 1.57643 11.157C0.949236 5.39542 4.24881 0.0974121 9.02871 0.0974121C9.55851 0.0974121 10.0805 0.167533 10.5869 0.299983C14.576 1.34011 17.2406 6.07326 16.855 11.157Z" fill="url(#paint2_linear_1396_37363)"/>
<path id="Vector_4" d="M13.5673 11.157C13.4504 14.367 11.4598 16.8096 9.06011 16.9615C8.9783 16.9693 8.8926 16.9732 8.8069 16.9732C6.29034 16.9732 4.05037 14.4761 3.77378 11.157C3.47772 7.55362 5.58913 4.39429 8.51473 4.39429C8.61212 4.39429 8.7134 4.39429 8.81079 4.40987C11.5961 4.61634 13.692 7.68217 13.5673 11.1609V11.157Z" fill="url(#paint3_linear_1396_37363)"/>
<path id="Vector_5" d="M13.5668 11.1571C13.45 14.367 11.4593 16.8096 9.05963 16.9615C6.65604 16.8096 4.56411 14.367 4.31868 11.1571C4.05378 7.67831 6.03275 4.61247 8.81031 4.40601C11.5957 4.61247 13.6915 7.67831 13.5668 11.1571Z" fill="url(#paint4_linear_1396_37363)"/>
<g id="Vector_6" style="mix-blend-mode:multiply" opacity="0.5">
<path d="M4.14355 8.04437C4.14355 8.04437 4.45131 8.51963 4.6305 8.282C4.8097 8.04047 5.65505 5.47717 8.44819 5.16941C11.2647 4.85777 13.1463 8.28589 13.1463 8.28589C13.1463 8.28589 11.6543 4.22278 8.41313 4.39419C5.18368 4.5617 4.14355 8.04437 4.14355 8.04437Z" fill="#7E527C"/>
</g>
<g id="Vector_7" style="mix-blend-mode:soft-light">
<path d="M2.12563 6.87962C2.09057 8.23918 3.53583 7.96259 3.73061 7.90416C3.92539 7.84183 4.9811 5.34865 7.24055 4.29684C9.55453 3.21776 11.6465 5.18893 12.3866 6.17062C13.1112 7.13283 15.1759 5.45772 15.3356 4.65134C15.4953 3.82936 11.7945 -0.615513 7.46649 0.553167C3.24756 1.69458 2.12563 6.87962 2.12563 6.87962Z" fill="white"/>
</g>
<g id="Vector_8" style="mix-blend-mode:multiply" opacity="0.2">
<path d="M2.06683 7.6471C1.45522 7.67826 1.57988 10.5844 1.80582 11.6829C2.02398 12.7503 3.22772 12.314 3.44977 11.9439C3.67181 11.57 3.78089 8.49244 3.81595 8.25871C3.85491 8.02497 3.43418 8.09509 2.85374 8.04445C2.2694 7.99381 2.21486 7.63931 2.06683 7.6471Z" fill="#7F6593"/>
</g>
<g id="Vector_9" style="mix-blend-mode:multiply" opacity="0.2">
<path d="M13.1931 6.7238C12.788 6.91079 13.458 9.14296 13.8476 10.5493C14.2254 11.9088 15.7136 10.113 16.3018 10.2026C16.89 10.2883 16.1927 5.76938 15.7876 5.38371C15.3785 4.99415 14.5566 6.37709 13.1931 6.72769V6.7238Z" fill="#7F6593"/>
</g>
<g id="Vector_10" style="mix-blend-mode:soft-light">
<path d="M6.49265 18.913C5.18762 17.2457 8.16386 17.795 10.0493 16.9613C11.9777 16.1082 12.7724 14.7837 13.2788 14.3396C13.793 13.8916 15.2889 15.3719 15.1292 16.0342C14.9695 16.6847 11.9192 21.3712 6.48875 18.913H6.49265Z" fill="#B6BDC9"/>
</g>
<g id="Vector_11" style="mix-blend-mode:multiply" opacity="0.5">
<path d="M14.7119 2.64121C14.4198 2.64121 14.9885 3.04635 15.7287 4.328C16.4494 5.57459 16.8506 7.06661 17.1428 7.36267C17.4349 7.65484 19.2892 7.23801 19.2892 7.23801C19.2892 7.23801 18.9192 3.9774 16.8194 2.42305C16.3909 2.10751 14.7158 2.63731 14.7158 2.63731L14.7119 2.64121Z" fill="#6E5066"/>
</g>
<g id="Vector_12" style="mix-blend-mode:multiply" opacity="0.5">
<path d="M13.2979 18.6794C12.9201 19.0534 14.6146 18.9832 14.8055 18.9131C15.0003 18.843 17.2987 17.5847 17.9726 16.0343C18.6739 14.4176 16.8546 14.3708 16.5157 14.367C16.1768 14.3631 15.6236 15.933 14.4783 17.3081C13.3719 18.6326 13.2979 18.6794 13.2979 18.6794Z" fill="#6E5066"/>
</g>
<g id="Vector_13" style="mix-blend-mode:soft-light">
<path d="M16.9332 7.64708C16.6371 7.65487 17.0033 9.82082 17.0345 11.5154C17.0657 13.1438 19.3757 12.5516 19.4147 12.3569C19.4537 12.1621 19.6251 10.1247 19.5627 9.17025C19.4965 8.19636 19.7458 7.44061 18.9862 7.43282C18.2265 7.42503 16.9371 7.64708 16.9371 7.64708H16.9332Z" fill="white"/>
</g>
<path id="Vector_14" d="M5.75687 15.6407C5.40237 14.5538 5.9088 15.7926 7.51768 16.5406C9.0915 17.273 11.0627 16.5406 11.8885 15.5472C11.8885 15.5472 10.825 16.9068 8.98632 16.973C6.89828 17.0509 5.75687 15.6407 5.75687 15.6407Z" fill="#EBF0FF"/>
<g id="Vector_15" style="mix-blend-mode:soft-light">
<path d="M8.42102 0.366082C6.8472 0.498532 6.81993 4.00847 8.06262 4.03573C9.30532 4.063 10.5636 4.16039 12.2699 6.02249C13.9021 7.81057 15.2578 4.74863 15.1994 4.14481C15.1409 3.52931 12.7646 -0.241631 8.42102 0.366082Z" fill="white"/>
</g>
<path id="Vector_16" d="M4.42048 17.616C2.7181 15.6994 4.82952 15.3488 5.20349 15.45C5.57747 15.5513 6.54358 16.8525 8.52644 17.0472C10.5015 17.242 9.25102 19.6729 8.50696 19.7274C7.7629 19.7858 5.56579 18.9015 4.42048 17.6121V17.616Z" fill="white"/>
<path id="Vector_17" d="M11.0665 0.553223C10.3341 0.588283 11.3626 3.08147 12.2663 3.96187C13.1506 4.82669 14.592 3.59179 14.5414 3.15159C14.4907 2.70749 12.5157 1.02069 11.0665 0.553223Z" fill="white"/>
<path id="Vector_18" d="M5.13285 17.5498C4.81341 16.868 6.46904 17.8848 6.27426 18.2432C6.08338 18.5977 5.4445 18.2198 5.13285 17.5498Z" fill="white"/>
<g id="Vector_19" style="mix-blend-mode:soft-light">
<path d="M14.1198 11.5153C13.7341 11.7568 13.738 13.1982 12.1954 15.5044C10.7384 17.682 12.3161 18.4923 12.655 18.5157C12.994 18.5391 15.1482 17.1328 16.0949 13.9462C16.8973 11.2504 16.3013 10.8375 16.0559 10.7206C15.8066 10.6076 14.4392 11.3166 14.1198 11.5153Z" fill="white"/>
</g>
<g id="Vector_20" style="mix-blend-mode:soft-light">
<path d="M12.1372 0.553182C11.0698 0.553182 13.676 1.83483 14.5837 2.29062C15.4835 2.73861 16.5159 1.93612 16.5159 1.93612C16.5159 1.93612 15.3316 0.229847 12.1372 0.557077V0.553182Z" fill="white"/>
</g>
<g id="Vector_21" style="mix-blend-mode:soft-light">
<path d="M3.75786 10.8727C3.67995 10.265 4.04613 9.04563 4.14742 8.88591C4.2487 8.72619 4.61879 11.7881 4.50192 12.3608C4.38505 12.9218 3.80461 11.235 3.75786 10.8766V10.8727Z" fill="white"/>
</g>
<path id="Vector_22" d="M14.5527 3.03076C14.5527 3.03076 17.7549 7.02764 16.4265 13.4242C16.4265 13.4242 18.5886 7.19126 14.5527 3.03076Z" fill="#EED6DD"/>
<g id="Vector_23" style="mix-blend-mode:multiply" opacity="0.8">
<path d="M8.51074 19.8247C8.51074 19.8247 9.66384 20.0623 10.8676 19.9571C12.0713 19.8519 14.0035 17.8457 14.0035 17.8457C14.0035 17.8457 12.1103 20.1831 8.51074 19.8208V19.8247Z" fill="#7E527C"/>
</g>
<g id="Vector_24" style="mix-blend-mode:multiply" opacity="0.8">
<path d="M9.35961 19.887C6.81189 19.887 4.46284 18.2586 3.01758 15.707C3.58244 16.6537 5.32767 19.1391 9.35961 19.887Z" fill="#7E527C"/>
</g>
<g id="Vector_25" style="mix-blend-mode:multiply" opacity="0.5">
<path d="M2.93945 15.5823C2.96283 15.6251 2.9901 15.668 3.01347 15.7069C2.9862 15.6602 2.95893 15.6173 2.93945 15.5823Z" fill="#BD2A4C"/>
</g>
<g id="Vector_26" style="mix-blend-mode:multiply" opacity="0.8">
<path d="M19.6011 11.1569C19.0518 16.2173 15.5886 19.8869 11.8138 19.8869C11.6112 19.8869 11.4086 19.8792 11.2139 19.8558C14.4472 19.5169 16.4768 17.682 17.591 16.4354C18.9077 14.959 19.6167 10.6894 19.6595 10.4167C19.6517 10.6622 19.6284 10.9115 19.6011 11.1569Z" fill="#7E527C"/>
</g>
<g id="Vector_27" style="mix-blend-mode:multiply" opacity="0.8">
<path d="M1.83008 6.91463C1.83008 6.91463 2.45727 4.24615 4.44792 2.44638C6.52038 0.572598 10.2991 0.0973349 10.2991 0.0973349L12.0326 0.0350053C12.0326 0.0350053 9.37196 -0.00784625 8.63569 0.0973349C7.89942 0.202516 3.4 0.595972 1.83008 6.91463Z" fill="#7E527C"/>
</g>
<g id="Group_3">
<path id="Vector_28" d="M6.75395 14.2151C6.70331 13.8256 6.72279 13.4866 6.80849 13.2023C7.0617 13.0815 7.22922 13.0192 7.30713 13.0192C7.45516 13.0192 7.6889 13.0698 8.01223 13.1828C8.05508 13.2919 8.09404 13.4516 8.13299 13.658C8.37842 13.8489 8.63942 13.9697 8.91211 14.0203C8.76798 13.0815 8.6628 12.3647 8.60047 11.8817C8.28882 11.8349 8.02781 11.7765 7.80576 11.7064C7.58761 11.6362 7.36556 11.5233 7.13572 11.3713C6.90978 11.2194 6.72279 11.0051 6.57865 10.7247C6.43451 10.4481 6.33712 10.1053 6.28648 9.69623C6.1774 8.82361 6.30596 8.03281 6.67994 7.31602C7.0695 6.57585 7.58761 6.12007 8.23428 5.97593L8.13689 4.66701C8.17195 4.57741 8.76019 4.61247 8.76019 4.61247L8.97834 5.94477C9.26272 5.96814 9.58605 6.06942 9.94445 6.24862C9.96782 5.93697 10.0302 5.70713 10.1353 5.563C10.2756 5.43444 10.4587 5.34874 10.6885 5.30978C11.0547 5.24745 11.1871 5.39549 11.3469 5.563C11.4053 5.74609 11.5923 6.11617 11.6351 6.86023C11.6663 7.35887 11.6507 7.70947 11.5962 7.91983C11.5416 8.1302 11.4209 8.27044 11.2378 8.34056C11.1092 8.40678 10.9846 8.44184 10.8599 8.45743C10.5872 8.48859 10.3574 8.43795 10.1743 8.30939C10.1197 8.16526 10.0847 8.00554 10.0691 7.82634C9.85874 7.73284 9.58995 7.6861 9.26661 7.6861C9.39906 8.53144 9.50425 9.369 9.58216 10.1949C10.4041 10.2533 11.0235 10.4286 11.4248 10.7208C11.8299 11.0168 12.052 11.5388 12.0948 12.2712C12.1455 13.1477 11.9429 13.8996 11.4988 14.5229C11.0703 15.1267 10.5054 15.4539 9.812 15.5163L9.81979 16.681C9.74577 16.7317 9.2744 16.8291 9.05236 16.8369L9.16533 15.5201C8.81083 15.4539 8.49918 15.3098 8.22649 15.0799C8.24597 15.2747 8.23038 15.415 8.17974 15.5046C8.07846 15.5786 7.90315 15.6097 7.65384 15.602C7.38894 15.5942 7.20584 15.5318 7.09677 15.415C6.92925 15.1111 6.81628 14.7099 6.75006 14.2073L6.75395 14.2151ZM7.60709 9.29888C7.66552 9.85595 7.93432 10.1598 8.42127 10.2221C8.37842 9.70402 8.33167 8.92879 8.28103 7.87698C7.75123 8.10682 7.52918 8.58209 7.60709 9.29888ZM9.78083 13.9268C10.0107 13.8061 10.1977 13.6347 10.3418 13.4048C10.4898 13.175 10.5522 12.9335 10.5327 12.6842C10.4976 12.2517 10.221 12.0024 9.69902 11.9362C9.73798 12.6062 9.76135 13.2724 9.78083 13.9268Z" fill="url(#paint5_linear_1396_37363)"/>
<path id="Vector_29" d="M11.5688 12.3062C11.5259 11.5699 11.2961 11.0479 10.8909 10.7557C10.813 10.6973 10.7234 10.6467 10.6299 10.5999C10.2365 10.3974 9.70666 10.2766 9.0483 10.2259C9.0483 10.2143 9.0483 10.1987 9.04441 10.1909C9.03272 10.0935 9.02493 10.0039 9.01324 9.90651C8.93144 9.18193 8.83405 8.45345 8.71328 7.72108C9.04051 7.72108 9.30541 7.76782 9.51578 7.86132C9.53136 8.04052 9.57031 8.20024 9.62875 8.34437C9.81184 8.47293 10.0417 8.52357 10.3144 8.4924C10.4351 8.48072 10.5637 8.44176 10.6922 8.37943C10.8714 8.30542 10.9961 8.16907 11.0467 7.95481C11.0974 7.74445 11.113 7.39385 11.0779 6.89911C11.0312 6.15115 10.9766 5.68368 10.9104 5.50059C10.7546 5.33697 10.4897 5.28243 10.1235 5.34476C9.89365 5.38761 9.71056 5.46942 9.57031 5.59798C9.46903 5.74211 9.4067 5.96806 9.38333 6.2836C9.02883 6.10051 8.7016 6.00312 8.41332 5.97585L8.18738 4.64355C7.87183 4.76042 7.69264 4.86171 7.66147 4.94741L7.66926 6.00701C7.02259 6.15505 6.50837 6.60694 6.12271 7.351C5.75263 8.06779 5.63186 8.8547 5.74484 9.72731C5.74484 9.74289 5.74873 9.75847 5.75263 9.77016C5.80717 10.1558 5.90456 10.4831 6.0448 10.7519C6.18894 11.0284 6.37592 11.2466 6.60187 11.3946C6.83171 11.5504 7.05376 11.6595 7.27191 11.7335C7.49396 11.8037 7.75886 11.866 8.06661 11.9088C8.09778 12.1348 8.13673 12.4114 8.18738 12.7425C8.24192 13.1126 8.30814 13.5489 8.38995 14.0436C8.11726 13.9969 7.86015 13.8761 7.61083 13.6852C7.57187 13.4749 7.53292 13.3152 7.48617 13.2061C7.16283 13.097 6.93299 13.0425 6.78496 13.0464C6.70315 13.0464 6.53954 13.1126 6.28632 13.2295C6.20452 13.5138 6.18504 13.8527 6.23958 14.2423C6.3058 14.7448 6.42267 15.1461 6.59408 15.446C6.69926 15.5629 6.88625 15.6213 7.15115 15.633C7.39657 15.6408 7.57187 15.6058 7.67316 15.5356C7.7238 15.446 7.73938 15.3019 7.71991 15.1071C7.9926 15.337 8.30424 15.485 8.65874 15.5512L8.8769 16.8017C9.09505 16.7939 9.24698 16.7628 9.3171 16.7121L9.30152 15.5473C9.99493 15.485 10.5559 15.1617 10.9805 14.5579C11.4207 13.9307 11.6194 13.1788 11.561 12.3023L11.5688 12.3062ZM7.64199 10.1909C7.30697 10.074 7.11609 9.78574 7.06155 9.32606C6.97974 8.61317 7.19789 8.13401 7.7277 7.90417C7.77834 8.89755 7.82509 9.6455 7.87183 10.1597V10.1909C7.87183 10.1909 7.87962 10.2259 7.87962 10.2454C7.79392 10.2337 7.71601 10.2143 7.6381 10.187L7.64199 10.1909ZM9.82353 13.4359C9.67939 13.6619 9.4924 13.8372 9.26646 13.954C9.25088 13.4671 9.2275 12.9762 9.20023 12.4776C9.18855 12.3062 9.18075 12.1348 9.17296 11.9634C9.39501 11.9907 9.57811 12.053 9.71056 12.1582C9.88975 12.2789 9.98714 12.4698 10.0066 12.7152C10.03 12.9646 9.96767 13.2061 9.82353 13.4359Z" fill="url(#paint6_linear_1396_37363)"/>
<g id="Vector_30" style="mix-blend-mode:soft-light">
<path d="M11.0463 7.95481C10.9956 8.16518 10.871 8.30542 10.6918 8.37943C10.5632 8.44566 10.4347 8.48461 10.3139 8.49241C10.0412 8.52357 9.81136 8.47293 9.62826 8.34437C9.57372 8.20413 9.53087 8.04052 9.51529 7.86132C9.30493 7.76782 9.04003 7.72108 8.7128 7.72108C8.83356 8.45345 8.93095 9.18582 9.01276 9.90651C8.63099 10.0234 8.24922 10.113 7.87914 10.1597C7.83239 9.6455 7.78565 8.90144 7.735 7.90417C7.20131 8.13012 6.98705 8.60927 7.06886 9.32606C7.1195 9.78574 7.31428 10.074 7.6493 10.1909C6.90914 10.2532 6.2313 10.1441 5.75993 9.77016C5.75993 9.75458 5.75604 9.739 5.75214 9.72731C5.63917 8.8547 5.76383 8.06779 6.13002 7.351C6.51568 6.60694 7.0299 6.15894 7.67657 6.00701L7.66878 4.94741C7.69994 4.86171 7.87914 4.76042 8.19468 4.64355L8.42063 5.97585C8.70501 5.99922 9.03224 6.10051 9.39063 6.2836C9.41401 5.96806 9.47244 5.74211 9.57762 5.59798C9.71786 5.46553 9.90095 5.38372 10.1308 5.34476C10.497 5.28243 10.7619 5.33697 10.9177 5.50059C10.9839 5.68368 11.0346 6.15115 11.0852 6.89911C11.1203 7.39385 11.1047 7.74835 11.0541 7.95481H11.0463Z" fill="white"/>
</g>
<g id="Vector_31" style="mix-blend-mode:multiply" opacity="0.2">
<path d="M10.303 11.5465C10.1355 11.7764 9.9329 11.9828 9.71474 12.1581C9.58229 12.0569 9.3992 11.9945 9.17715 11.9634C9.18884 12.1348 9.19663 12.3062 9.20442 12.4776C8.88498 12.6373 8.53827 12.7308 8.19156 12.7386C8.14092 12.4114 8.10196 12.1309 8.0708 11.9049C7.76305 11.8582 7.49815 11.7997 7.2761 11.7296C7.05794 11.6595 6.8359 11.5504 6.60605 11.3907C6.38011 11.2427 6.19312 11.0245 6.04898 10.7479C5.90874 10.4791 5.81135 10.1519 5.75681 9.76624C5.75681 9.75066 5.75292 9.73508 5.74902 9.72339C5.74902 9.72339 5.82694 10.1402 7.64228 10.187C7.7202 10.187 7.79811 10.187 7.87602 10.187C8.26948 10.187 8.67462 10.187 9.0408 10.187C9.0447 10.1987 9.0447 10.2142 9.0447 10.222C9.70306 10.2688 10.2329 10.3895 10.6263 10.596C10.712 10.7986 10.6224 11.1024 10.2991 11.5426L10.303 11.5465Z" fill="#7F6593"/>
</g>
<path id="Vector_32" d="M7.61476 13.6854C7.59139 13.5607 8.39388 14.0437 8.39388 14.0437C8.39388 14.0437 7.69657 14.036 7.61476 13.6854Z" fill="white"/>
<path id="Vector_33" d="M9.95996 5.38377C9.66 5.41883 10.295 6.8563 10.6612 7.14458C11.0235 7.42896 11.0546 5.77722 10.9066 5.50064C10.7586 5.22405 9.95607 5.38377 9.95607 5.38377H9.95996Z" fill="white"/>
<g id="Vector_34" style="mix-blend-mode:soft-light">
<path d="M7.97662 4.72928C7.66108 4.94743 8.29606 5.48113 8.29606 5.48113C8.29606 5.48113 8.261 4.7059 8.13634 4.66305C8.01168 4.6202 7.97662 4.72928 7.97662 4.72928Z" fill="white"/>
</g>
</g>
<path id="Vector_35" d="M16.6173 6.6809C16.3719 5.65636 16.4109 7.59247 16.6329 8.63649C16.8511 9.65714 16.9913 9.38055 16.9913 9.38055C16.9913 9.38055 17.0186 7.3899 16.6173 6.6809Z" fill="white"/>
<g id="Vector_36" style="mix-blend-mode:soft-light" opacity="0.5">
<path d="M11.0972 19.9532C9.88569 19.9415 12.1763 19.3611 12.6749 19.0572C13.1814 18.7534 14.5253 19.1273 14.5253 19.1273C14.5253 19.1273 13.3255 20.0389 11.0972 19.9532Z" fill="white"/>
</g>
<path id="Vector_37" d="M16.4265 13.428C15.8344 13.3501 15.2189 15.3407 15.5461 15.7576C15.8734 16.1705 16.6486 14.994 16.8005 14.6084C16.9563 14.2188 16.4265 13.428 16.4265 13.428Z" fill="#63495F"/>
<path id="Vector_38" d="M14.0039 17.8495C13.5714 17.7833 14.5843 16.9964 14.7752 16.9613C14.9661 16.9262 14.8959 17.3431 14.7362 17.6469C14.5804 17.9469 14.1636 17.8768 14.0039 17.8495Z" fill="#63495F"/>
<path id="Vector_39" d="M14.0151 17.5378C13.8982 17.7677 14.128 17.904 14.4748 17.8222C14.576 17.7988 14.7124 17.682 14.7124 17.682C14.7124 17.682 14.3696 18.0365 14.0307 18.0599C13.6917 18.0832 13.7852 17.7638 14.0151 17.5378Z" fill="#A89AA6"/>
<path id="Vector_40" d="M15.5034 14.9046C15.5034 14.9046 15.5268 15.0487 15.8929 15.15C16.3799 15.2863 16.7772 14.6514 16.7772 14.6514C16.7772 14.6514 16.3215 15.7577 15.7605 15.9759C15.2034 16.194 15.4177 15.2435 15.5034 14.9046Z" fill="#A89AA6"/>
<g id="Vector_41" style="mix-blend-mode:multiply" opacity="0.5">
<path d="M15.6979 14.2578C15.4759 15.2084 16.3524 14.4955 16.516 14.3669C16.6796 14.2345 16.8315 14.4448 16.8315 14.4448C16.8315 14.4448 16.6835 13.506 16.4264 13.4281C16.1693 13.3502 15.6979 14.2617 15.6979 14.2617V14.2578Z" fill="#5B3952"/>
</g>
<g id="Vector_42" style="mix-blend-mode:multiply" opacity="0.5">
<path d="M14.3185 17.2497C14.1977 17.5848 14.5172 17.6977 14.7198 17.577C14.9223 17.4562 14.8483 16.9303 14.7704 16.9576C14.6964 16.9887 14.3146 17.2458 14.3146 17.2458L14.3185 17.2497Z" fill="#5B3952"/>
</g>
<path id="Vector_43" d="M15.92 15.8901C15.6785 15.9329 16.033 15.6758 16.2433 15.4771C16.4576 15.2785 16.1304 15.7888 15.92 15.8901Z" fill="white"/>
<path id="Vector_44" d="M14.0623 18.0521C14.0233 18.0288 14.4129 17.8379 14.4713 17.8729C14.4441 17.9898 14.0623 18.0521 14.0623 18.0521Z" fill="white"/>
</g>
</g>
</g>
</g>
<defs>
<linearGradient id="paint0_linear_1396_37363" x1="11.9812" y1="19.887" x2="11.9812" y2="0.0974121" gradientUnits="userSpaceOnUse">
<stop stop-color="#728EE3"/>
<stop offset="0.3" stop-color="#836888"/>
<stop offset="0.57" stop-color="#E1D9E0"/>
<stop offset="0.85" stop-color="#937D9A"/>
<stop offset="1" stop-color="#6D636A"/>
</linearGradient>
<linearGradient id="paint1_linear_1396_37363" x1="11.3464" y1="20" x2="11.3464" y2="-1.95504e-05" gradientUnits="userSpaceOnUse">
<stop stop-color="#728EE3"/>
<stop offset="0.3" stop-color="#836888"/>
<stop offset="0.57" stop-color="#E1D9E0"/>
<stop offset="0.85" stop-color="#937D9A"/>
<stop offset="1" stop-color="#6D636A"/>
</linearGradient>
<linearGradient id="paint2_linear_1396_37363" x1="12.5231" y1="19.1196" x2="5.87327" y2="0.841471" gradientUnits="userSpaceOnUse">
<stop stop-color="#DECDD1"/>
<stop offset="0.15" stop-color="#DBC9CD"/>
<stop offset="0.28" stop-color="#D2BEC4"/>
<stop offset="0.4" stop-color="#C5ACB4"/>
<stop offset="0.53" stop-color="#B1929E"/>
<stop offset="0.63" stop-color="#9B7584"/>
<stop offset="0.7" stop-color="#AE959A"/>
<stop offset="1" stop-color="#DDD4EA"/>
</linearGradient>
<linearGradient id="paint3_linear_1396_37363" x1="10.782" y1="16.4979" x2="6.54355" y2="4.85786" gradientUnits="userSpaceOnUse">
<stop stop-color="#FFF1DE"/>
<stop offset="0.21" stop-color="#A690A5"/>
<stop offset="1" stop-color="#5C475E"/>
</linearGradient>
<linearGradient id="paint4_linear_1396_37363" x1="8.93497" y1="16.9615" x2="8.93497" y2="4.40601" gradientUnits="userSpaceOnUse">
<stop stop-color="#957A84"/>
<stop offset="0.99" stop-color="#655167"/>
</linearGradient>
<linearGradient id="paint5_linear_1396_37363" x1="9.57068" y1="16.8108" x2="8.76272" y2="4.58193" gradientUnits="userSpaceOnUse">
<stop stop-color="#774854"/>
<stop offset="1" stop-color="#40314B"/>
</linearGradient>
<linearGradient id="paint6_linear_1396_37363" x1="9.03076" y1="16.7957" x2="8.22768" y2="4.64062" gradientUnits="userSpaceOnUse">
<stop stop-color="#DECDD1"/>
<stop offset="0.63" stop-color="#9B7584"/>
<stop offset="0.7" stop-color="#AE959A"/>
<stop offset="1" stop-color="#DDD4EA"/>
</linearGradient>
<clipPath id="clip0_1396_37363">
<rect width="20" height="20" fill="white" transform="translate(0.5)"/>
</clipPath>
</defs>
</svg>
