<svg width="22" height="22" viewBox="0 0 22 22" fill="none" xmlns="http://www.w3.org/2000/svg">
    <path
        d="M7.25 19.75C7.24901 20.0812 7.117 20.3986 6.88279 20.6328C6.64858 20.867 6.33122 20.999 6 21H4.75C4.41878 20.999 4.10142 20.867 3.86721 20.6328C3.633 20.3986 3.50099 20.0812 3.5 19.75H7.25ZM18.5 19.75C18.499 20.0812 18.367 20.3986 18.1328 20.6328C17.8986 20.867 17.5812 20.999 17.25 21H16C15.6688 20.999 15.3514 20.867 15.1172 20.6328C14.883 20.3986 14.751 20.0812 14.75 19.75H18.5Z"
        fill="#4E556F" />
    <path
        d="M11 11.625C12.0355 11.625 12.875 10.7855 12.875 9.75C12.875 8.71447 12.0355 7.875 11 7.875C9.96447 7.875 9.125 8.71447 9.125 9.75C9.125 10.7855 9.96447 11.625 11 11.625Z"
        fill="#4E556F" />
    <path
        d="M15.375 6.625C15.375 6.45924 15.4408 6.30027 15.5581 6.18306C15.6753 6.06585 15.8342 6 16 6H16.625V4.75H5.375V14.75H16.625V13.5H16C15.8342 13.5 15.6753 13.4342 15.5581 13.3169C15.4408 13.1997 15.375 13.0408 15.375 12.875C15.375 12.7092 15.4408 12.5503 15.5581 12.4331C15.6753 12.3158 15.8342 12.25 16 12.25H16.625V7.25H16C15.8342 7.25 15.6753 7.18415 15.5581 7.06694C15.4408 6.94973 15.375 6.79076 15.375 6.625ZM14.125 9.75C14.125 10.3623 13.9438 10.961 13.6044 11.4706L14.0938 11.9594C14.1534 12.017 14.2011 12.086 14.2338 12.1622C14.2666 12.2385 14.2838 12.3205 14.2845 12.4035C14.2853 12.4865 14.2694 12.5688 14.238 12.6456C14.2066 12.7224 14.1602 12.7922 14.1015 12.8509C14.0428 12.9096 13.973 12.956 13.8962 12.9874C13.8194 13.0188 13.7371 13.0346 13.6541 13.0339C13.5711 13.0332 13.4891 13.0159 13.4129 12.9832C13.3366 12.9504 13.2677 12.9028 13.21 12.8431L12.7206 12.3544C12.211 12.6939 11.6124 12.8751 11 12.8751C10.3876 12.8751 9.78898 12.6939 9.27937 12.3544L8.79 12.8431C8.73235 12.9028 8.66338 12.9504 8.58713 12.9832C8.51088 13.0159 8.42886 13.0332 8.34588 13.0339C8.26289 13.0346 8.18059 13.0188 8.10378 12.9874C8.02697 12.956 7.95719 12.9096 7.8985 12.8509C7.83982 12.7922 7.79341 12.7224 7.76199 12.6456C7.73056 12.5688 7.71475 12.4865 7.71547 12.4035C7.71619 12.3205 7.73343 12.2385 7.76619 12.1622C7.79894 12.086 7.84656 12.017 7.90625 11.9594L8.39563 11.4706C8.05608 10.961 7.87491 10.3624 7.87491 9.75C7.87491 9.13764 8.05608 8.53898 8.39563 8.02937L7.90625 7.54063C7.84656 7.48297 7.79894 7.41401 7.76619 7.33775C7.73343 7.2615 7.71619 7.17949 7.71547 7.0965C7.71475 7.01351 7.73056 6.93121 7.76199 6.8544C7.79341 6.77759 7.83982 6.70781 7.8985 6.64913C7.95719 6.59045 8.02697 6.54404 8.10378 6.51261C8.18059 6.48119 8.26289 6.46537 8.34588 6.46609C8.42886 6.46681 8.51088 6.48406 8.58713 6.51681C8.66338 6.54957 8.73235 6.59718 8.79 6.65687L9.27937 7.14563C9.78898 6.80608 10.3876 6.62491 11 6.62491C11.6124 6.62491 12.211 6.80608 12.7206 7.14563L13.21 6.65687C13.3279 6.54303 13.4858 6.48003 13.6496 6.48145C13.8135 6.48288 13.9703 6.54861 14.0861 6.66449C14.202 6.78037 14.2677 6.93713 14.2692 7.101C14.2706 7.26487 14.2076 7.42275 14.0938 7.54063L13.6044 8.02937C13.9438 8.539 14.125 9.13766 14.125 9.75Z"
        fill="#4E556F" />
    <path
        d="M18.5 1H3.5C3.00287 1.0005 2.52625 1.1982 2.17472 1.54972C1.8232 1.90125 1.6255 2.37787 1.625 2.875V16.625C1.6255 17.1221 1.8232 17.5988 2.17472 17.9503C2.52625 18.3018 3.00287 18.4995 3.5 18.5H18.5C18.9971 18.4995 19.4738 18.3018 19.8253 17.9503C20.1768 17.5988 20.3745 17.1221 20.375 16.625V2.875C20.3745 2.37787 20.1768 1.90125 19.8253 1.54972C19.4738 1.1982 18.9971 1.0005 18.5 1ZM18.5 12.875C18.5 13.0408 18.4342 13.1997 18.3169 13.3169C18.1997 13.4342 18.0408 13.5 17.875 13.5V15.375C17.875 15.5408 17.8092 15.6997 17.6919 15.8169C17.5747 15.9342 17.4158 16 17.25 16H4.75C4.58424 16 4.42527 15.9342 4.30806 15.8169C4.19085 15.6997 4.125 15.5408 4.125 15.375V4.125C4.125 3.95924 4.19085 3.80027 4.30806 3.68306C4.42527 3.56585 4.58424 3.5 4.75 3.5H17.25C17.4158 3.5 17.5747 3.56585 17.6919 3.68306C17.8092 3.80027 17.875 3.95924 17.875 4.125V6C18.0408 6 18.1997 6.06585 18.3169 6.18306C18.4342 6.30027 18.5 6.45924 18.5 6.625C18.5 6.79076 18.4342 6.94973 18.3169 7.06694C18.1997 7.18415 18.0408 7.25 17.875 7.25V12.25C18.0408 12.25 18.1997 12.3158 18.3169 12.4331C18.4342 12.5503 18.5 12.7092 18.5 12.875Z"
        fill="#4E556F" />
</svg>
    