<svg width="22" height="22" viewBox="0 0 22 22" fill="none" xmlns="http://www.w3.org/2000/svg">
    <path fill-rule="evenodd" clip-rule="evenodd"
        d="M19.0189 17.8873H2.98331C2.98331 17.8873 3.26844 12.9422 1.71289 9.43544L2.0579 9.15601L5.35278 11.8423L6.59169 7.35652L7.61133 7.1106L11.001 10.8039L14.3908 7.1106L15.4105 7.35652L16.6494 11.8423L19.9441 9.15601L20.2891 9.43544C18.7337 12.9422 19.0189 17.8873 19.0189 17.8873ZM16.0512 13.3528C15.9198 13.3512 15.7894 13.3757 15.6675 13.4249C15.5457 13.4741 15.4348 13.547 15.3413 13.6393C15.2479 13.7317 15.1737 13.8417 15.123 13.9629C15.0724 14.0842 15.0463 14.2143 15.0463 14.3457C15.0463 14.4771 15.0724 14.6072 15.123 14.7284C15.1737 14.8497 15.2479 14.9597 15.3413 15.052C15.4348 15.1444 15.5457 15.2173 15.6675 15.2664C15.7894 15.3156 15.9198 15.3402 16.0512 15.3386C16.3145 15.3386 16.5671 15.234 16.7533 15.0477C16.9395 14.8615 17.0442 14.609 17.0442 14.3456C17.0442 14.0822 16.9395 13.8297 16.7533 13.6435C16.5671 13.4572 16.3145 13.3526 16.0512 13.3526V13.3528ZM5.95099 13.3528C5.8196 13.3512 5.6892 13.3757 5.56735 13.4249C5.44551 13.4741 5.33464 13.547 5.24117 13.6393C5.1477 13.7317 5.07349 13.8417 5.02284 13.9629C4.97219 14.0842 4.94611 14.2143 4.94611 14.3457C4.94611 14.4771 4.97219 14.6072 5.02284 14.7284C5.07349 14.8497 5.1477 14.9597 5.24117 15.052C5.33464 15.1444 5.44551 15.2173 5.56735 15.2664C5.6892 15.3156 5.8196 15.3402 5.95099 15.3386C6.21434 15.3386 6.46691 15.234 6.65313 15.0477C6.83935 14.8615 6.94397 14.609 6.94397 14.3456C6.94397 14.0822 6.83935 13.8297 6.65313 13.6435C6.46691 13.4572 6.21434 13.3526 5.95099 13.3526V13.3528ZM11.0013 12.2276L9.56607 14.3455L11.0013 16.4634L12.4364 14.3455L11.0013 12.2276Z"
        fill="#4E556F" />
    <path fill-rule="evenodd" clip-rule="evenodd"
        d="M12.9466 7.97057L11.7038 4.01147H10.2995L9.05664 7.97057L11.0017 10.09L12.9466 7.97057Z"
        fill="#4E556F" />
    <path fill-rule="evenodd" clip-rule="evenodd"
        d="M11.001 1C10.1079 1 9.38396 1.72396 9.38396 2.61686C9.38396 3.5099 10.1079 4.23385 11.001 4.23385C11.894 4.23385 12.6178 3.5099 12.6178 2.61686C12.6178 1.72396 11.8939 1 11.001 1ZM6.87963 5.19276C6.58241 5.19276 6.29737 5.31083 6.08721 5.52099C5.87704 5.73116 5.75897 6.0162 5.75897 6.31341C5.75897 6.61063 5.87704 6.89567 6.08721 7.10583C6.29737 7.31599 6.58241 7.43406 6.87963 7.43406C7.17682 7.43406 7.46184 7.316 7.67199 7.10585C7.88214 6.8957 8.0002 6.61068 8.0002 6.31348C8.0002 6.01629 7.88214 5.73126 7.67199 5.52111C7.46184 5.31097 7.17682 5.19276 6.87963 5.19276ZM1.25534 7.3518C0.958149 7.3518 0.673125 7.46986 0.462976 7.68001C0.252826 7.89016 0.134766 8.17518 0.134766 8.47238C0.134766 8.76958 0.252826 9.0546 0.462976 9.26475C0.673125 9.4749 0.958149 9.59296 1.25534 9.59296C1.55254 9.59296 1.83756 9.4749 2.04771 9.26475C2.25786 9.0546 2.37592 8.76958 2.37592 8.47238C2.37592 8.17518 2.25786 7.89016 2.04771 7.68001C1.83756 7.46986 1.55254 7.3518 1.25534 7.3518ZM15.1222 5.19276C14.8249 5.19276 14.5399 5.31083 14.3297 5.52099C14.1196 5.73116 14.0015 6.0162 14.0015 6.31341C14.0015 6.61063 14.1196 6.89567 14.3297 7.10583C14.5399 7.31599 14.8249 7.43406 15.1222 7.43406C15.4193 7.43406 15.7044 7.316 15.9145 7.10585C16.1247 6.8957 16.2427 6.61068 16.2427 6.31348C16.2427 6.01629 16.1247 5.73126 15.9145 5.52111C15.7044 5.31097 15.4193 5.19276 15.1222 5.19276ZM20.7464 7.3518C20.4492 7.3518 20.1642 7.46986 19.9541 7.68001C19.7439 7.89016 19.6259 8.17518 19.6259 8.47238C19.6259 8.76958 19.7439 9.0546 19.9541 9.26475C20.1642 9.4749 20.4492 9.59296 20.7464 9.59296C21.0436 9.59296 21.3287 9.4749 21.5388 9.26475C21.749 9.0546 21.867 8.76958 21.867 8.47238C21.867 8.17518 21.749 7.89016 21.5388 7.68001C21.3287 7.46986 21.0436 7.3518 20.7464 7.3518ZM19.0237 18.3701H2.98312C2.83079 18.3705 2.68482 18.4312 2.57711 18.5389C2.4694 18.6466 2.4087 18.7926 2.40829 18.9449V20.1277C2.40829 20.6074 2.80077 20.9999 3.28051 20.9999H18.7211C19.2009 20.9999 19.5933 20.6074 19.5933 20.1277V18.9401C19.5929 18.7891 19.5328 18.6444 19.426 18.5376C19.3192 18.4308 19.1745 18.3706 19.0235 18.3701H19.0237ZM11.2352 19.9264C11.2992 19.9264 11.3606 19.9009 11.4059 19.8557C11.4511 19.8104 11.4766 19.749 11.4766 19.685C11.4766 19.621 11.4511 19.5596 11.4059 19.5143C11.3606 19.4691 11.2992 19.4436 11.2352 19.4436H10.767C10.703 19.4436 10.6416 19.4691 10.5963 19.5143C10.5511 19.5596 10.5256 19.621 10.5256 19.685C10.5256 19.749 10.5511 19.8104 10.5963 19.8557C10.6416 19.9009 10.703 19.9264 10.767 19.9264H11.2352ZM8.56491 19.9264C8.62893 19.9264 8.69032 19.9009 8.73559 19.8557C8.78085 19.8104 8.80628 19.749 8.80628 19.685C8.80628 19.621 8.78085 19.5596 8.73559 19.5143C8.69032 19.4691 8.62893 19.4436 8.56491 19.4436H8.09701C8.03299 19.4436 7.9716 19.4691 7.92634 19.5143C7.88107 19.5596 7.85564 19.621 7.85564 19.685C7.85564 19.749 7.88107 19.8104 7.92634 19.8557C7.9716 19.9009 8.03299 19.9264 8.09701 19.9264H8.56491ZM5.89491 19.9264C5.95893 19.9264 6.02032 19.9009 6.06558 19.8557C6.11085 19.8104 6.13628 19.749 6.13628 19.685C6.13628 19.621 6.11085 19.5596 6.06558 19.5143C6.02032 19.4691 5.95893 19.4436 5.89491 19.4436H5.42658C5.36256 19.4436 5.30117 19.4691 5.25591 19.5143C5.21064 19.5596 5.18521 19.621 5.18521 19.685C5.18521 19.749 5.21064 19.8104 5.25591 19.8557C5.30117 19.9009 5.36256 19.9264 5.42658 19.9264H5.89491ZM13.4372 19.4436C13.3731 19.4436 13.3117 19.4691 13.2665 19.5143C13.2212 19.5596 13.1958 19.621 13.1958 19.685C13.1958 19.749 13.2212 19.8104 13.2665 19.8557C13.3117 19.9009 13.3731 19.9264 13.4372 19.9264H13.9053C13.9694 19.9264 14.0307 19.9009 14.076 19.8557C14.1213 19.8104 14.1467 19.749 14.1467 19.685C14.1467 19.621 14.1213 19.5596 14.076 19.5143C14.0307 19.4691 13.9694 19.4436 13.9053 19.4436H13.4372ZM16.1072 19.4436C16.0431 19.4436 15.9817 19.4691 15.9365 19.5143C15.8912 19.5596 15.8658 19.621 15.8658 19.685C15.8658 19.749 15.8912 19.8104 15.9365 19.8557C15.9817 19.9009 16.0431 19.9264 16.1072 19.9264H16.5753C16.6394 19.9264 16.7007 19.9009 16.746 19.8557C16.7913 19.8104 16.8167 19.749 16.8167 19.685C16.8167 19.621 16.7913 19.5596 16.746 19.5143C16.7007 19.4691 16.6394 19.4436 16.5753 19.4436H16.1072Z"
        fill="#4E556F" />
</svg>
    